<?xml version="1.0" encoding="utf-8"?>
<!-- Generator: Adobe Illustrator 24.1.2, SVG Export Plug-In . SVG Version: 6.00 Build 0)  -->
<svg version="1.1" id="Capa_1" xmlns="http://www.w3.org/2000/svg" xmlns:xlink="http://www.w3.org/1999/xlink" x="0px" y="0px"
	 viewBox="0 0 93 93" style="enable-background:new 0 0 93 93;" xml:space="preserve">
<style type="text/css">
	.st0{fill:#FFFFFF;}
	.st1{fill:#3C4660;}
</style>
<g>
	<circle class="st0" cx="59.9" cy="47.2" r="33.1"/>
	<g>
		<path class="st1" d="M4.3,43c-0.5-1.3-1.2-2.3-1.4-3.4c-0.3-1.8,0.5-3.3,2-4.3c2.9-2,6.1-3.4,9.6-3.9c0.6-0.1,0.8-0.3,1-0.9
			c0.6-2.7,1.2-5.4,1.9-8.1c0.1-0.5,0.1-0.8-0.4-1.1c-1.9-1.1-2.7-3.1-2.1-5.1c0.6-2,2.3-3.3,4.5-3.3c5.8-0.1,11.6-0.1,17.3-0.1
			c2.8,0,5.7,0,8.5,0c2.6,0,4.4,1.2,5,3.3c0.6,2.2-0.3,4.1-2.7,5.5c1,4.9,2,9.8,2.9,14.7c1.5,0,2.9,0,4.5,0c0-1.6,0.1-3.1,0-4.6
			c-0.1-2.1,0.6-3.9,2.2-5.3c0.6-0.5,1.1-1.1,1.7-1.7c0.6-0.6,1.5-0.6,2,0c0.6,0.6,0.5,1.4-0.1,2c-0.7,0.7-1.4,1.4-2.1,2.1
			c-0.6,0.6-1,1.4-1,2.3c0,1.7,0,3.4,0,5.1c0.4,0,0.7,0,1,0c4.6,0,9.2,0,13.8,0c4.1,0,7.3,2.7,8,6.7c0.1,0.5,0.1,1,0.1,1.6
			c0,3.3,0,6.6,0,9.8c0,4-2.2,6.9-6.1,8.1c-0.3,0.1-0.7,0.4-0.8,0.8c-2,5.9-7.3,9.7-13.4,9.7c-6,0-11.4-3.8-13.4-9.6
			c-0.2-0.5-0.4-0.7-0.9-0.7c-3.5,0-6.9,0-10.4,0c-0.5,0-0.7,0.1-1,0.6c-3.7,6.7-9.4,10-17.1,9.9C9.2,73,1.6,66.4,0.3,58.1
			C-0.6,52.5,0.7,47.5,4.3,43C4.3,43,4.4,42.9,4.3,43z M19.8,70c2.7,0.1,7.3-1.9,8.5-3.6c-0.4-0.3-0.7-0.6-1.1-1
			c-0.6-0.7-0.6-1.5-0.1-2c0.6-0.6,1.3-0.6,2,0c0.4,0.4,0.8,0.7,1.2,1.1c2-2.5,3.2-5.3,3.5-8.6c-0.6,0-1.1,0-1.6,0
			c-0.9,0-1.5-0.5-1.5-1.3s0.5-1.4,1.4-1.4c0.5,0,1,0,1.5,0c0.1-2.5-1.8-7.1-3.6-8.5c-0.4,0.4-0.7,0.9-1.1,1.2c-0.7,0.6-1.5,0.6-2,0
			s-0.5-1.4,0.1-2c0.4-0.4,0.9-0.7,1.4-1.1c-2.2-2.1-6.5-3.8-8.7-3.6c0,0.5,0,1,0,1.5c0,0.9-0.5,1.5-1.3,1.5S17,41.7,17,40.7
			c0-0.5,0-1,0-1.5c-3.1,0.2-7,1.8-8.6,3.7c0.4,0.3,0.8,0.6,1.1,0.9c0.6,0.6,0.6,1.5,0.1,2c-0.6,0.6-1.4,0.6-2.1-0.1
			c-0.4-0.3-0.7-0.7-1.1-1c-2,2.3-3.6,6.1-3.4,8.5c0.5,0,1,0,1.5,0c1,0.1,1.5,0.7,1.5,1.5C6,55.5,5.4,56,4.5,56c-0.5,0-1,0-1.6,0
			c0.3,3.3,1.5,6.1,3.7,8.7c0.4-0.5,0.7-0.9,1-1.2c0.6-0.6,1.5-0.6,2-0.1s0.6,1.4,0,2c-0.4,0.4-0.8,0.7-1.2,1.1
			c2.6,2.2,5.4,3.3,8.6,3.6c0-0.4,0-0.6,0-0.9s0-0.6,0-1c0.1-0.8,0.7-1.2,1.5-1.2c0.8,0.1,1.2,0.5,1.3,1.3
			C19.8,68.9,19.8,69.4,19.8,70z M47.4,38.5c0.1-0.5,0.4-1,0.3-1.5c-0.9-4.9-1.9-9.7-2.9-14.6c0-0.2-0.4-0.6-0.6-0.6
			c-7.7,0-15.4,0-23.1,0c-0.5,0-0.6,0.2-0.7,0.6c-0.4,2-0.9,3.9-1.4,5.8c-0.2,0.9-0.4,1.7-0.6,2.6c0.1,0.1,0.2,0.1,0.2,0.1
			c0.2,0,0.5,0,0.7,0c8,0.4,14.3,3.9,18.9,10.5c0.6,0.9,1.1,2.2,1.9,2.6c0.9,0.5,2.2,0.1,3.3,0.1h0.1c0.2-0.1,0.6-0.2,0.7-0.4
			c0.6-0.9,1.1-1.9,1.5-2.7c-1.6-1.6-3.2-3.2-4.9-4.9c-0.4,0.4-0.7,0.8-1.1,1.2C39,38,38.2,38,37.6,37.4s-0.5-1.4,0.1-2.1
			c1.5-1.6,3.1-3.1,4.7-4.7c0.7-0.7,1.5-0.7,2.1-0.1s0.6,1.4-0.1,2.1c-0.5,0.5-1,0.8-1.5,1.2C44.5,35.6,45.9,37,47.4,38.5z M46,59.9
			c-0.8-8.1,5.3-14.8,12.6-15.6c3.4-0.4,6.5,0.4,9.4,2.3c4.5,3.1,6.5,7.5,6.4,12.9c2.1-0.7,3.4-2.5,3.4-4.9c0-3.4,0-6.9,0-10.3
			c0-3.1-2.2-5.3-5.3-5.3c-7.2,0-14.4,0-21.7,0c-0.5,0-0.8,0.1-1,0.6c-1.1,2-2.4,4.1-3.5,6.1c-0.5,0.9-1.1,1.3-2.1,1.2
			c-1.1,0-2.2,0-3.3,0c0.3,1.1,0.5,2.1,0.8,3.1c0.7,3.2-1,5.5-4.2,5.9c-0.2,0-0.6,0.2-0.6,0.3c-0.2,1.2-0.4,2.4-0.6,3.6
			C39.4,59.9,42.7,59.9,46,59.9z M60.2,47.4c-6.3,0-11.4,5.1-11.4,11.4S54,70.1,60.4,70.2c6,0,11.1-5.2,11.1-11.4
			C71.6,52.5,66.5,47.4,60.2,47.4z M36.9,53.2c1.5,0,2.3-0.9,2.1-2.2C36.2,36.1,19.1,29,6.7,37.5c-1.2,0.8-1.2,2.2,0,3.1
			C18.3,31,35.4,38.2,36.9,53.2z M32.5,19.1c4.4,0,8.8,0,13.1,0c1.2,0,1.9-0.7,1.9-1.7s-0.8-1.8-1.9-1.8c-0.1,0-0.3,0-0.4,0
			c-8.4,0-16.9,0-25.3,0c-0.4,0-0.8,0-1.2,0.1c-1.1,0.4-1.6,1.8-0.8,2.7c0.4,0.4,1.1,0.6,1.7,0.6C23.9,19.1,28.2,19.1,32.5,19.1z"/>
		<path class="st1" d="M18.5,46.2c4.7,0,8.5,3.9,8.4,8.6c0,4.6-3.9,8.3-8.5,8.3S10,59.2,10,54.5C10,49.9,13.8,46.2,18.5,46.2z
			 M18.4,49c-3.1,0-5.6,2.5-5.6,5.6s2.5,5.7,5.6,5.7s5.7-2.6,5.7-5.7C24.1,51.5,21.6,49,18.4,49z"/>
		<path class="st1" d="M66.6,58.9c0,3.5-2.9,6.4-6.4,6.4c-3.6,0-6.5-2.9-6.5-6.5s2.9-6.4,6.4-6.4C63.8,52.5,66.6,55.3,66.6,58.9z
			 M63.8,58.9c0-2.1-1.5-3.7-3.6-3.7c-2,0-3.6,1.5-3.6,3.5s1.5,3.7,3.6,3.7C62.2,62.5,63.8,60.9,63.8,58.9z"/>
	</g>
</g>
</svg>
