<?xml version="1.0" encoding="utf-8"?>
<!-- Generator: Adobe Illustrator 24.1.2, SVG Export Plug-In . SVG Version: 6.00 Build 0)  -->
<svg version="1.1" id="Capa_1" xmlns="http://www.w3.org/2000/svg" xmlns:xlink="http://www.w3.org/1999/xlink" x="0px" y="0px"
	 viewBox="0 0 82 82" style="enable-background:new 0 0 82 82;" xml:space="preserve">
<style type="text/css">
	.st0{fill:#FFFFFF;}
	.st1{fill:#3C4660;}
</style>
<g>
	<circle class="st0" cx="33.1" cy="45.6" r="33.1"/>
	<g>
		<path class="st1" d="M12.6,27.7c0-3.2,0-6.5,0-9.7c0-1.6,0.2-2,1.8-2.4C25.5,12.7,36,8.4,46.1,2.8c0.9-0.5,1.6-0.4,2.4,0
			c9,5,18.5,8.9,28.4,11.8c1.2,0.4,2.4,0.7,3.5,1s1.5,0.8,1.5,1.9c0,5.5,0,10.9,0,16.4C81.8,46,77.8,56.7,69.6,65.7
			c-5.2,5.7-11.4,10.2-18.7,13c-2.5,1-4.9,1-7.4,0c-6.2-2.4-11.5-6.1-16.3-10.6c-4.2-4-7.7-8.8-10.2-14.2c-3-6.4-4.3-13.1-4.3-20.1
			C12.6,31.7,12.6,29.7,12.6,27.7z M15.6,18.4c0,5.7-0.1,11.3,0,17c0.1,5,1,9.8,2.9,14.5c4.7,11.8,13.1,20.2,24.6,25.4
			c4.1,1.9,4.1,1.8,8.3,0c6.2-2.6,11.5-6.6,16-11.6c7.8-8.5,11.6-18.6,11.5-30.2c0-4.8,0-9.5,0-14.3c0-0.2,0-0.5,0-0.8
			c-0.3-0.1-0.6-0.2-0.9-0.3C67.6,15.3,57.6,11.2,48,6c-0.5-0.3-1-0.3-1.5,0c-7.5,4.2-15.4,7.6-23.6,10.2
			C20.5,17,18.1,17.7,15.6,18.4z"/>
		<path class="st1" d="M17.9,28.7c0-2.3,0-4.6,0-6.9c0-1.4,0.3-1.8,1.6-2.2c8-2.4,15.8-5.4,23.2-9.1c1.1-0.6,2.3-1.1,3.4-1.8
			c0.8-0.4,1.5-0.4,2.3,0c6.4,3.4,12.9,6.2,19.7,8.6c2.3,0.8,4.6,1.5,6.9,2.2c1.4,0.5,1.7,0.8,1.7,2.2c0,4.2,0,8.4,0,12.6
			c-0.2,12.3-4.9,22.5-14,30.8c-3.9,3.5-8.2,6.3-13,8.4c-1.6,0.7-3.1,0.7-4.7,0c-10.6-4.7-18.6-12.1-23.5-22.7
			c-2-4.4-3.1-9-3.4-13.8C17.9,34.3,17.9,29.1,17.9,28.7z M73.7,22.4c-0.2-0.1-0.2-0.1-0.3-0.1c-8.9-2.7-17.4-6.2-25.7-10.4
			c-0.2-0.1-0.7-0.1-1,0c-8.1,4.2-16.5,7.6-25.3,10.3c-0.5,0.1-0.6,0.4-0.6,0.8c0,3.7,0,7.4,0,11.1c0,4.1,0.5,8.1,1.9,12
			c4,11.7,12.1,19.6,23.2,24.7c1,0.4,1.8,0.4,2.7,0c6.1-2.6,11.2-6.5,15.5-11.4c5-5.6,8-12.2,9-19.6C74,34,73.5,28.2,73.7,22.4z"/>
		<path class="st1" d="M39.3,33.9c0-1.7,0-3.4,0-5.1c0.1-3.9,3.1-7.2,7-7.7c4.6-0.6,8.8,3,9,7.6c0.1,1.7,0,3.4,0,5.2
			c0.3,0.1,0.7,0.1,1,0.2c1.3,0.4,2.2,1.6,2.2,2.9c0,4,0,8,0,12.1c0,1.8-1.5,3.1-3.4,3.1c-2.7,0-5.4,0-8.1,0c-2.4,0-4.7,0-7.1,0
			c-2.4,0-3.7-1.3-3.7-3.7c0-3.4,0-6.9,0-10.3C36.1,35.5,36.7,34.6,39.3,33.9z M47.3,49.2c2.4,0,4.9,0,7.3,0c0.7,0,0.9-0.2,0.9-0.9
			c0-3.5,0-7,0-10.5c0-0.7-0.2-0.9-0.9-0.9c-4.9,0-9.7,0-14.6,0c-0.7,0-0.9,0.2-0.9,0.9c0,3.5,0,7,0,10.5c0,0.7,0.2,0.9,0.9,0.9
			C42.4,49.2,44.8,49.2,47.3,49.2z M52.2,33.9c0-1.6,0-3.1,0-4.6c0-0.4,0-0.7-0.1-1c-0.4-2.4-2.2-4.1-4.7-4.3
			c-2.2-0.1-4.4,1.4-4.9,3.7c-0.2,0.9-0.2,1.8-0.2,2.7c0,1.2,0,2.3,0,3.5C45.7,33.9,48.9,33.9,52.2,33.9z"/>
		<path class="st1" d="M49.3,42.2c-0.2,1.2-0.4,2.4-0.7,3.5c-0.1,0.6-0.7,0.9-1.4,0.9s-1.1-0.4-1.4-1c-0.1-0.3-0.1-0.6-0.1-1
			c-0.1-0.5-0.2-1.1-0.4-1.5c-0.4-0.8-0.2-1.7,0.4-2.4c0.6-0.6,1.5-0.8,2.3-0.5C48.9,40.5,49.4,41.3,49.3,42.2z"/>
	</g>
</g>
</svg>
