<?xml version="1.0" encoding="utf-8"?>
<!-- Generator: Adobe Illustrator 23.1.1, SVG Export Plug-In . SVG Version: 6.00 Build 0)  -->
<svg version="1.1" id="Capa_1" xmlns="http://www.w3.org/2000/svg" xmlns:xlink="http://www.w3.org/1999/xlink" x="0px" y="0px"
	 viewBox="0 0 81.2 84.1" style="enable-background:new 0 0 81.2 84.1;" xml:space="preserve">
<style type="text/css">
	.st0{fill:#FFFFFF;}
	.st1{fill:#3C4660;}
</style>
<g>
	<circle class="st0" cx="48.1" cy="51" r="33.1"/>
	<g>
		<path class="st1" d="M4.2,23.6c-0.9,0-1.9,0-2.8,0c-1,0-1.6-0.7-1.4-1.7c0.4-2,0.8-3.9,1.2-5.9c0.3-1.4,0.6-1.6,2-1.6
			c6.6,0,13.2,0,19.8,0c0.3,0,0.6,0,1,0c0.1-1.4,0.3-2.7,0.4-4.1c0.2-1.7,0.3-3.4,0.5-5c0.1-0.5,0.4-1,0.9-1.3
			c2.5-1.3,5.1-2.6,7.6-3.8c0.8-0.4,1.5-0.2,1.9,0.5c0.4,0.7,0.1,1.4-0.7,1.8c-2.1,1.1-4.3,2.1-6.4,3.2c-0.3,0.1-0.6,0.4-0.7,0.7
			c-0.3,2.6-0.5,5.2-0.8,7.9c0.4,0,0.7,0,1,0c6.3,0,12.6,0,18.9,0c1.5,0,1.7,0.2,2,1.7c0.4,1.9,0.8,3.9,1.2,5.8
			c0.2,1-0.4,1.7-1.4,1.7c-0.9,0-1.9,0-2.8,0c-0.2,2.4-0.3,4.6-0.5,6.9c-0.2,3-0.5,5.9-0.6,8.9c-0.1,2.3,0.5,4.2,3,5
			c2.4,0.7,4.8-1,5-3.5c0.1-1.2,0.4-1.5,1.7-1.6c0.3,0,0.6-0.2,0.8-0.4c1.8-1.8,3.6-3.6,5.4-5.4c1-1,1.6-1,2.5,0
			c1.5,1.5,3.1,3.1,4.6,4.6c0.9,0.9,0.9,1.4,0.1,2.3c-0.8,1-0.8,2.4,0.1,3.3c0.9,0.9,2.2,0.9,3.3,0.1c1-0.8,1.5-0.7,2.3,0.1
			c1.5,1.5,3.1,3.1,4.6,4.6c1,1,1,1.5,0,2.5c-5.3,5.3-10.5,10.5-15.8,15.8c-0.4,0.4-0.5,0.8-0.5,1.3c0,2.9,0,5.9,0,8.8
			c0,1.3-0.4,1.7-1.7,1.7c-1.9,0-3.9,0-5.8,0c-1.1,0-1.6-0.4-1.7-1.5c-0.2-2.1-1.9-3.7-4-3.7c-2,0-3.7,1.6-3.9,3.7
			c-0.1,1.1-0.5,1.5-1.6,1.5c-11.1,0-22.3,0-33.5,0c-1.2,0-1.6-0.4-1.7-1.6C7.1,66,6.4,54.9,5.6,43.8c-0.4-6.5-0.9-13.1-1.3-19.6
			C4.3,24,4.3,23.8,4.2,23.6z M42.9,23.7c-12,0-24,0-36,0C8.1,41.2,9.2,58.6,10.4,76c8,0,15.8,0,23.6,0c0-7.1,0-14.1,0-21.2
			c-4.9,5.6-12.7,5.4-17.2,1c-4.6-4.4-4.9-11.7-0.7-16.4c2.1-2.4,4.8-3.7,7.9-4c4.1-0.3,7.6,1.3,10.1,4.3c0.8-0.1,1.4-0.4,1.9-0.4
			c1.9,0,3.9,0,5.9,0C42.2,34.1,42.6,28.9,42.9,23.7z M59,64.2c0-7.5,0-14.9,0-22.3c-1.4,0-2.7,0-4,0c-1.2,3.3-3.3,5.1-6.1,5.2
			c-3.6,0.1-5.8-1.9-6.8-5.2c-1.8,0-3.5,0-5.3,0c0,7.4,0,14.8,0,22.2c1.3,0,2.5,0,3.7,0c0.9,0,1.5,0.5,1.5,1.3
			c0,0.8-0.6,1.3-1.5,1.3c-0.3,0-0.6,0-0.9,0c-0.9,0-1.9,0-2.8,0c0,3.1,0,6.1,0,9.1c1.8,0,3.5,0,5.3,0c1.5-3.6,3.5-5.2,6.5-5.2
			c3,0,5.1,1.7,6.4,5.2c1.3,0,2.6,0,4,0c0-3,0-6,0-9.1c-1.2,0-2.4,0-3.6,0c-1,0-1.6-0.5-1.6-1.3c0-0.8,0.6-1.3,1.6-1.3
			C56.6,64.2,57.7,64.2,59,64.2z M46.9,20.9c-0.2-1-0.4-2-0.5-2.9c-0.1-0.8-0.4-1-1.2-1c-13.5,0-27,0-40.5,0c-0.2,0-0.5,0-0.6,0
			c-0.1,0-0.4,0.2-0.4,0.3c-0.3,1.2-0.5,2.4-0.7,3.6C17.6,20.9,32.2,20.9,46.9,20.9z M58.4,39.3c0.5,0,0.9,0,1.3,0c1.6,0,2,0.4,2,2
			c0,2.1,0,4.3,0,6.5c1.4-0.8,1.6-0.8,2.8,0.3c1,1,2.1,2.1,3.1,3.1c0.9,0.9,0.9,1.5,0,2.4c-1.5,1.5-3,3-4.5,4.5
			c-0.4,0.4-0.9,0.7-1.4,1.1c0,1.4,0,2.8,0,4.2c4.5-4.5,9.1-9.1,13.6-13.6c-1.1-1.1-2.2-2.2-3.4-3.4c0,0,0,0-0.1,0
			c-2.4,1.3-4.7,0.3-5.9-0.9c-1.5-1.5-1.9-3.5-1-5.7c0.1-0.1,0.1-0.4,0-0.5c-1.1-1.1-2.2-2.2-3.3-3.3C60.6,37.1,59.5,38.2,58.4,39.3
			z M17.1,42.4c-2.5,3.8-1.6,9,2,11.9C22.7,57.2,28.1,57,31,54C26.4,50.1,21.8,46.3,17.1,42.4z M18.8,40.4
			c4.6,3.9,9.2,7.7,13.9,11.5c2.5-3.8,1.5-9-2-11.9C27.1,37.2,21.8,37.4,18.8,40.4z M62.9,50.4c-0.5,0.5-1.1,0.9-1.2,1.4
			c-0.2,1.3-0.1,2.6-0.1,3.7c1.1-1.1,2.1-2.1,3.2-3.2C64.3,51.7,63.7,51.1,62.9,50.4z"/>
		<path class="st1" d="M45.9,55.7c0-1.5,0-2.9,0-4.3c0-1.1,0.5-1.6,1.5-1.6c2.5,0,5,0,7.5,0c1,0,1.5,0.5,1.5,1.5c0,2.9,0,5.8,0,8.8
			c0,1-0.5,1.5-1.5,1.5c-2.5,0-5,0-7.5,0c-1,0-1.5-0.5-1.5-1.5C45.9,58.7,45.9,57.2,45.9,55.7z M48.6,52.5c0,2.2,0,4.3,0,6.5
			c1.8,0,3.5,0,5.1,0c0-2.2,0-4.3,0-6.5C52,52.5,50.3,52.5,48.6,52.5z"/>
		<path class="st1" d="M42,55.8c0,1.4,0,2.8,0,4.2c0,1-0.5,1.5-1.3,1.6c-0.8,0-1.3-0.6-1.3-1.5c0-2.9,0-5.8,0-8.8
			c0-1,0.5-1.5,1.3-1.5c0.8,0,1.3,0.6,1.3,1.5C42,52.8,42,54.3,42,55.8z"/>
		<path class="st1" d="M47.9,64.2c0.6,0,1.3,0,2,0c0.8,0,1.3,0.6,1.3,1.3c0,0.7-0.5,1.3-1.3,1.3c-1.3,0-2.7,0-4,0
			c-0.8,0-1.3-0.6-1.3-1.3c0-0.7,0.5-1.2,1.3-1.3C46.6,64.2,47.2,64.2,47.9,64.2z"/>
	</g>
</g>
</svg>
