<?xml version="1.0" encoding="utf-8"?>
<!-- Generator: Adobe Illustrator 24.1.2, SVG Export Plug-In . SVG Version: 6.00 Build 0)  -->
<svg version="1.1" id="Capa_1" xmlns="http://www.w3.org/2000/svg" xmlns:xlink="http://www.w3.org/1999/xlink" x="0px" y="0px"
	 viewBox="0 0 84.9 84.9" style="enable-background:new 0 0 84.9 84.9;" xml:space="preserve">
<style type="text/css">
	.st0{fill:#FFFFFF;}
	.st1{fill:#3C4660;}
</style>
<g>
	<circle class="st0" cx="33.1" cy="34.5" r="33.1"/>
	<g>
		<path class="st1" d="M84.9,43c-0.1,1.1,0,2.3-0.2,3.4c-0.4,2.5-2.4,4.2-4.9,4.4c-1.7,0.1-2.4,0.7-3,2.3c-0.7,1.9-1.5,3.8-2.4,5.6
			c-0.6,1.4-0.5,2.5,0.5,3.7c2,2.4,1.9,5.3-0.3,7.6c-1.1,1.1-2.2,2.2-3.3,3.3c-2.1,2.1-5.2,2.2-7.4,0.3c-1.2-1.1-2.4-1.2-3.8-0.5
			c-1.8,0.9-3.7,1.6-5.6,2.4c-1.5,0.6-2.1,1.3-2.2,2.9c-0.2,2.9-2.4,5.1-5.3,5.1c-1.7,0-3.4,0-5.1,0c-2.9-0.1-5.1-2.3-5.3-5.1
			c-0.1-1.6-0.7-2.3-2.2-2.9c-2-0.8-3.9-1.6-5.8-2.4c-1.3-0.6-2.4-0.5-3.5,0.5c-2.5,2.1-5.4,2-7.7-0.3c-1.1-1.1-2.2-2.1-3.2-3.2
			c-2.1-2.1-2.2-5.2-0.3-7.4c1.1-1.2,1.2-2.4,0.5-3.8c-0.9-1.8-1.6-3.7-2.3-5.6c-0.6-1.5-1.3-2.1-2.9-2.2c-2.9-0.2-5-2.4-5.1-5.3
			C4,43.9,4,42.2,4,40.5c0.1-2.9,2.2-5.1,5.1-5.2c1.6-0.1,2.3-0.7,2.9-2.2c0.8-2,1.6-3.9,2.4-5.8c0.6-1.3,0.5-2.4-0.5-3.5
			c-2.1-2.5-2-5.4,0.3-7.7c1.1-1.1,2.1-2.2,3.2-3.2c2.1-2.1,5.2-2.2,7.4-0.3c1.2,1.1,2.4,1.2,3.8,0.5c1.8-0.9,3.7-1.6,5.6-2.3
			c1.4-0.5,2.1-1.4,2.2-2.9c0.2-2.9,2.4-5.1,5.3-5.1c1.7-0.1,3.4-0.1,5.1,0c2.9,0.1,5.1,2.2,5.2,5.1c0.1,1.6,0.7,2.3,2.2,2.9
			c1.9,0.7,3.8,1.5,5.7,2.4c1.4,0.6,2.5,0.5,3.7-0.5c2.4-2,5.3-1.9,7.5,0.3c1.1,1.1,2.2,2.2,3.3,3.3c2.1,2.1,2.2,5.2,0.3,7.4
			c-1.1,1.2-1.2,2.4-0.5,3.8c0.9,1.8,1.6,3.7,2.3,5.6c0.6,1.5,1.3,2.1,2.9,2.2c2.9,0.2,5,2.4,5.1,5.3C84.9,41.3,84.9,42.2,84.9,43
			L84.9,43z M67.5,72.4c0.7-0.4,1.4-0.7,2-1.2c1.1-1,2.1-2,3.1-3.1c1.4-1.4,1.4-2.7,0.1-4.2c-1.6-1.9-1.8-4-0.8-6.3
			c0.9-1.8,1.6-3.7,2.3-5.6c0.9-2.4,2.5-3.7,5.1-3.9c1.6-0.1,2.7-1.1,2.8-2.7c0.1-1.6,0.1-3.3,0-5C82,38.9,81,38,79.4,37.8
			c-2.6-0.2-4.3-1.5-5.2-4c-0.7-1.8-1.4-3.6-2.2-5.4c-1.1-2.4-0.9-4.5,0.8-6.5c1.1-1.3,1.1-2.7-0.1-4c-1-1-2-2-3-3
			c-1.4-1.4-2.7-1.5-4.3-0.2c-1.9,1.6-4,1.8-6.2,0.8c-1.9-0.8-3.7-1.6-5.6-2.3c-2.5-0.9-3.8-2.6-4-5.2c-0.1-1.6-1.1-2.6-2.6-2.7
			c-1.7-0.1-3.4-0.1-5.1,0c-1.5,0.1-2.5,1.1-2.6,2.6c-0.2,2.7-1.5,4.4-4.1,5.3c-1.8,0.6-3.5,1.3-5.2,2.1c-2.4,1.2-4.6,1-6.7-0.8
			c-1.3-1.1-2.7-1.1-3.9,0.1c-1.1,1.1-2.2,2.1-3.2,3.2c-1.2,1.3-1.3,2.6-0.1,4c1.7,2,1.9,4.2,0.8,6.5c-0.8,1.7-1.5,3.5-2.2,5.4
			c-0.9,2.5-2.6,3.8-5.2,4c-1.6,0.1-2.6,1.1-2.7,2.7c-0.1,1.6-0.1,3.3,0,5c0,1.6,1.1,2.6,2.7,2.7c2.6,0.2,4.3,1.5,5.2,4
			c0.7,1.9,1.4,3.7,2.3,5.5c1.1,2.4,0.9,4.5-0.8,6.5c-1.2,1.4-1.1,2.7,0.1,4c1.1,1.1,2.1,2.2,3.2,3.2c1.3,1.2,2.6,1.2,4,0.1
			c2-1.7,4.1-1.9,6.5-0.8c1.8,0.9,3.7,1.6,5.5,2.3c2.4,0.9,3.7,2.5,3.9,5.1c0.1,1.7,1.1,2.7,2.9,2.8c1.5,0,3,0,4.6,0
			c1.7,0,2.8-1,2.9-2.8c0.2-2.5,1.5-4.2,3.9-5.1c1.8-0.7,3.7-1.4,5.5-2.3c2.4-1.1,4.5-0.9,6.6,0.8C66.1,71.8,66.8,72,67.5,72.4z"/>
		<path class="st1" d="M21.3,43c0-12.7,10.4-23.1,23.1-23.1c12.8,0,23.1,10.4,23.1,23.1S57.1,66,44.4,66C31.6,66,21.3,55.8,21.3,43z
			 M38.7,62.5c0-0.4,0-0.7,0-1c0-3.2,0-6.4,0-9.5c0-0.7-0.2-1.1-0.8-1.5c-7.8-4.9-7.5-16.5,0.5-20.9c1.3-0.7,2.3-0.2,2.3,1.3
			c0,1.5,0,3,0,4.5c0,1.2-0.4,2.5,0.1,3.5s1.8,1.5,2.8,2.2l0.1,0.1c0.4,0.4,0.8,0.3,1.2,0c0.8-0.6,1.6-1.2,2.4-1.7
			c0.5-0.3,0.7-0.7,0.6-1.2c0-2.3,0-4.6,0-7c0-0.7,0-1.6,0.8-1.8c0.5-0.1,1.3,0,1.8,0.3c7.8,4.6,7.9,15.9,0.2,20.7
			c-0.5,0.3-0.8,0.7-0.8,1.4c0,3.3,0,6.5,0,9.8c0,0.3,0,0.5,0,0.8c7.4-1.8,15.4-9.7,14.6-20.9c-0.7-10.6-9.5-18.9-20-19
			C33.9,22.5,25,30.5,24.1,41.5C23.2,52.4,30.9,60.5,38.7,62.5z M38.1,33.3c-0.1,0-0.2-0.1-0.3-0.2c-0.2,0.2-0.4,0.5-0.6,0.7
			c-4.1,4.7-2.7,11.9,2.9,14.7c1,0.5,1.3,1.1,1.3,2.2c0,3.8,0,7.6,0,11.4c0,0.3,0,0.7,0,1.1c2.1,0,4,0,6,0c0-0.5,0-0.9,0-1.2
			c0-3.6,0-7.2,0-10.9c0-1.3,0.4-2,1.6-2.7c5.4-2.9,6.6-10.1,2.5-14.7c-0.2-0.2-0.4-0.3-0.7-0.6c0,2.2,0.1,4.1,0,6.1
			c0,0.5-0.4,1.2-0.8,1.6c-1.4,1.2-3,2.2-4.5,3.3c-0.7,0.5-1.4,0.5-2.1,0C42,43,40.5,42,39.1,41c-0.7-0.5-1-1.1-1-1.9
			C38.1,37.2,38.1,35.3,38.1,33.3z"/>
	</g>
</g>
</svg>
