<?xml version="1.0" encoding="utf-8"?>
<!-- Generator: Adobe Illustrator 24.1.2, SVG Export Plug-In . SVG Version: 6.00 Build 0)  -->
<svg version="1.1" id="Capa_1" xmlns="http://www.w3.org/2000/svg" xmlns:xlink="http://www.w3.org/1999/xlink" x="0px" y="0px"
	 viewBox="0 0 86.9 86.9" style="enable-background:new 0 0 86.9 86.9;" xml:space="preserve">
<style type="text/css">
	.st0{fill:#FFFFFF;}
	.st1{fill:#3C4660;}
</style>
<g>
	<circle class="st0" cx="53.8" cy="36.1" r="33.1"/>
	<g>
		<path class="st1" d="M26.3,51.5c0.4-0.2,0.6-0.3,0.9-0.4c6.7-3.7,13.4-7.4,20.1-11.1c0.2-0.1,0.4-0.2,0.5-0.3
			c1.2-0.6,2.1-0.1,2.1,1.3c0,0.4,0,0.8,0,1.1c0,2.9,0,5.7,0,8.5c0,0.3,0,0.5,0,1c1.4-0.8,2.6-1.4,3.8-2.1c0.2-0.1,0.3-0.6,0.3-0.9
			c0.1-3.9,0.2-7.8,0.4-11.8c0.3-9.9,0.5-19.7,0.8-29.6c0-1.6,0.4-2,2-2c2.6,0,5.3,0,7.9,0C66.6,5.2,67,5.6,67,7
			c0.2,8.3,0.5,16.6,0.7,25c0.1,3.1,0.2,6.2,0.3,9.5c0.8-0.4,1.4-0.8,2.1-1.1c0.5-0.3,1.1-0.6,1.6-0.9c0.8-0.4,1.7,0.1,1.8,1
			c0,0.2,0,0.5,0,0.8c0,13.6,0,27.1,0,40.7c0,1.6-0.4,2-2,2C48.3,84,25.1,84,2,84c-1.6,0-2-0.4-2-2c0-9.2,0-18.5,0-27.7
			c0-0.9,0.3-1.5,1.2-2c7.5-4.2,15.1-8.4,22.6-12.6c0.1,0,0.1-0.1,0.2-0.1c1.3-0.7,2.3-0.2,2.3,1.4c0,3.2,0,6.4,0,9.5
			C26.3,50.8,26.3,51.1,26.3,51.5z M47.2,42.9c-0.4,0.2-0.6,0.3-0.8,0.4c-6.8,3.8-13.6,7.5-20.3,11.3c-1.5,0.8-2.4,0.3-2.4-1.4
			c0-3.1,0-6.3,0-9.5c0-0.3,0-0.5,0-0.9c-0.3,0.1-0.4,0.2-0.5,0.2c-6.7,3.7-13.3,7.4-20,11.1c-0.5,0.3-0.5,0.6-0.5,1.1
			c0,8.4,0,16.8,0,25.1c0,0.3,0,0.5,0,0.8c7.5,0,14.9,0,22.3,0c0-2.5,0-5,0-7.4c0-1.2,0.5-1.7,1.6-1.7c6.8,0,13.6,0,20.5,0
			c1.1,0,1.6,0.5,1.6,1.7c0,2.2,0,4.4,0,6.6c0,0.3,0,0.5,0,0.8c7.5,0,14.9,0,22.2,0c0-12.8,0-25.5,0-38.4c-0.9,0.5-1.7,1-2.6,1.4
			c-6.2,3.5-12.4,6.9-18.7,10.4c-0.6,0.3-1.3,0.6-1.8,0c-0.3-0.4-0.5-1-0.5-1.4c0-3.1,0-6.3,0-9.5C47.2,43.5,47.2,43.3,47.2,42.9z
			 M56.6,47.7c0.3-0.1,0.5-0.2,0.7-0.3c2.5-1.4,5-2.8,7.5-4.1c0.5-0.3,0.6-0.6,0.6-1.1c-0.3-9.3-0.5-18.6-0.8-27.9
			c0-0.4,0-0.8-0.1-1.1c-2.3,0-4.6,0-6.9,0C57.2,24.6,56.9,36.1,56.6,47.7z M27.6,74.8c0,2.2,0,4.4,0,6.5c2.6,0,5.2,0,7.8,0
			c0-2.2,0-4.3,0-6.5C32.8,74.8,30.2,74.8,27.6,74.8z M38.1,74.8c0,2.2,0,4.3,0,6.5c2.6,0,5.2,0,7.8,0c0-2.2,0-4.3,0-6.5
			C43.3,74.8,40.7,74.8,38.1,74.8z M64.3,7.9c-2.3,0-4.5,0-6.6,0c0,0.9,0,1.7,0,2.5c2.2,0,4.5,0,6.6,0C64.3,9.5,64.3,8.7,64.3,7.9z"
			/>
		<path class="st1" d="M36.8,65.5c-1.6,0-3.2,0-4.8,0c-1.3,0-1.7-0.5-1.7-1.7c0-1.5,0-3,0-4.5c0-1.2,0.5-1.7,1.7-1.7
			c3.2,0,6.5,0,9.7,0c1.2,0,1.7,0.5,1.7,1.7c0,1.5,0,3,0,4.5c0,1.2-0.5,1.7-1.7,1.7C40,65.6,38.4,65.5,36.8,65.5z M32.8,62.9
			c2.7,0,5.2,0,7.9,0c0-0.8,0-1.4,0-2.1c0-0.1-0.3-0.4-0.5-0.4c-2.3,0-4.6,0-6.9,0c-0.2,0-0.5,0.3-0.5,0.4
			C32.8,61.4,32.8,62.1,32.8,62.9z"/>
		<path class="st1" d="M13.1,65.5c-1.6,0-3.2,0-4.8,0c-1.3,0-1.7-0.5-1.7-1.7c0-1.5,0-3,0-4.5c0-1.2,0.5-1.7,1.6-1.7
			c3.3,0,6.5,0,9.8,0c1.2,0,1.6,0.5,1.6,1.6c0,1.5,0,3.1,0,4.6c0,1.1-0.5,1.6-1.6,1.6C16.4,65.6,14.8,65.5,13.1,65.5z M9.2,62.9
			c2.6,0,5.2,0,7.8,0c0-0.9,0-1.7,0-2.5c-2.6,0-5.2,0-7.8,0C9.2,61.2,9.2,62,9.2,62.9z"/>
		<path class="st1" d="M60.4,65.5c-1.6,0-3.3,0-4.9,0c-1.3,0-1.7-0.5-1.7-1.7c0-1.5,0-3,0-4.5c0-1.1,0.5-1.6,1.6-1.6
			c3.3,0,6.7,0,10,0c1.1,0,1.5,0.5,1.5,1.6c0,1.6,0,3.1,0,4.7c0,1.2-0.5,1.6-1.6,1.6C63.7,65.6,62,65.5,60.4,65.5z M64.2,62.9
			c0-0.8,0-1.7,0-2.5c-2.6,0-5.2,0-7.8,0c0,0.9,0,1.7,0,2.5C59.1,62.9,61.6,62.9,64.2,62.9z"/>
	</g>
</g>
</svg>
