<?xml version="1.0" encoding="utf-8"?>
<!-- Generator: Adobe Illustrator 23.1.1, SVG Export Plug-In . SVG Version: 6.00 Build 0)  -->
<svg version="1.1" id="Capa_1" xmlns="http://www.w3.org/2000/svg" xmlns:xlink="http://www.w3.org/1999/xlink" x="0px" y="0px"
	 viewBox="0 0 87.6 87.1" style="enable-background:new 0 0 87.6 87.1;" xml:space="preserve">
<style type="text/css">
	.st0{fill:#FFFFFF;}
	.st1{fill:#3C4660;}
</style>
<g>
	<circle class="st0" cx="33.1" cy="33.1" r="33.1"/>
	<g>
		<path class="st1" d="M17.9,46.8c-2.1-0.3-2.1-0.3-2.1-2.4c0-1,0-2,0-3c0,0,0-0.1-0.1-0.3c-1.2,0-2.4,0-3.7,0
			c-1.2,0-1.6-0.4-1.6-1.5c0-1.5,0-3,0-4.5c0-1.2,0.4-1.5,1.6-1.5c0.4,0,0.9,0,1.4,0c0-1,0-1.9,0-2.9c-0.6,0-1.1,0-1.7,0
			c-0.8,0-1.2-0.4-1.2-1.1c0-1.6,0-3.2,0-4.9c0-0.8,0.5-1,1.1-1.3c5.3-1.9,10.5-3.8,15.8-5.6c6.9-2.5,13.9-5,20.8-7.4
			c0.5-0.2,1.1-0.2,1.6,0c12.2,4.3,24.4,8.7,36.6,13c0.8,0.3,1.2,0.8,1.2,1.7c0,1.4,0,2.7,0,4c0,1.2-0.4,1.6-1.5,1.6
			c-0.5,0-0.9,0-1.4,0c0,1,0,1.9,0,2.9c0.5,0,1.1,0,1.6,0c0.9,0,1.3,0.5,1.3,1.4c0,1.6,0,3.2,0,4.9c0,1-0.4,1.4-1.4,1.4
			c-1.3,0-2.5,0-3.9,0c0,1.1,0,2.2,0,3.2c0,2.1,0,2.1-2.1,2.4c0,7.8,0,15.6,0,23.4c0.1,0,0.1,0.1,0.2,0.1c1.8,0.1,1.9,0.2,1.9,2
			c0,1.1,0,2.2,0,3.3c0,0,0,0.1,0.1,0.3c1.2,0,2.4,0,3.7,0c1.2,0,1.6,0.4,1.6,1.5c0,2.8,0,5.5,0,8.3c0,1.2-0.4,1.6-1.6,1.6
			c-24.7,0-49.3,0-74,0c-1.2,0-1.6-0.4-1.6-1.5c0-2.8,0-5.5,0-8.3c0-1.2,0.4-1.5,1.6-1.5c1.2,0,2.4,0,3.8,0c0-1.1,0-2.2,0-3.2
			c0-2.1,0-2.1,2.1-2.4C17.9,62.4,17.9,54.6,17.9,46.8z M68.5,46.8c-0.2,0-0.3,0-0.4,0c-1.4-0.1-1.6-0.3-1.6-1.8c0-1.2,0-2.5,0-3.7
			c-11.6,0-23.1,0-34.6,0c0,0.1-0.1,0.2-0.1,0.2c0,1.1,0,2.2,0,3.2c0.1,1.8-0.5,2.1-1.9,2c-0.1,0-0.1,0.1-0.2,0.1
			c0,7.8,0,15.6,0,23.4c2.1,0.3,2.1,0.3,2.1,2.4c0,1.1,0,2.1,0,3.2c11.6,0,23.1,0,34.7,0c0-1,0-2,0-3c0-2.2,0-2.2,2.1-2.6
			C68.5,62.4,68.5,54.6,68.5,46.8z M12.8,28.3c24.2,0,48.3,0,72.5,0c0-0.7,0-1.4,0-2.1c0-0.6-0.2-0.9-0.8-1.1
			c-11.6-4.1-23.2-8.3-34.9-12.4c-0.4-0.1-0.9-0.1-1.2,0c-11.1,4-22.2,7.9-33.4,11.9c-0.8,0.3-1.8,0.4-2.2,1
			c-0.4,0.6-0.1,1.6-0.1,2.5C12.8,28,12.8,28.1,12.8,28.3z M85.2,84.8c0-2.2,0-4.5,0-6.7c-24.2,0-48.3,0-72.4,0c0,2.3,0,4.5,0,6.7
			C37,84.8,61.1,84.8,85.2,84.8z M85.3,35.9c-24.2,0-48.3,0-72.4,0c0,1,0,2,0,2.9c24.2,0,48.3,0,72.5,0
			C85.3,37.9,85.3,36.9,85.3,35.9z M15.8,33.5c22.2,0,44.3,0,66.5,0c0-1,0-1.9,0-2.8c-22.2,0-44.3,0-66.5,0
			C15.8,31.6,15.8,32.6,15.8,33.5z M20.3,46.7c0,7.9,0,15.6,0,23.4c2.4,0,4.7,0,7,0c0-7.8,0-15.6,0-23.4
			C24.9,46.7,22.6,46.7,20.3,46.7z M70.8,46.7c0,7.9,0,15.6,0,23.4c2.4,0,4.7,0,7,0c0-7.8,0-15.6,0-23.4
			C75.5,46.7,73.2,46.7,70.8,46.7z M18.1,44.4c3.8,0,7.5,0,11.2,0c0-1.1,0-2.1,0-3.1c-3.8,0-7.5,0-11.2,0
			C18.1,42.3,18.1,43.3,18.1,44.4z M80,41.2c-3.8,0-7.5,0-11.3,0c0,1.1,0,2.1,0,3.1c3.8,0,7.5,0,11.3,0C80,43.3,80,42.3,80,41.2z
			 M29.4,72.6c-3.8,0-7.5,0-11.3,0c0,1.1,0,2.1,0,3.2c3.8,0,7.5,0,11.3,0C29.4,74.6,29.4,73.6,29.4,72.6z M68.7,75.7
			c3.8,0,7.5,0,11.3,0c0-1.1,0-2.1,0-3.1c-3.8,0-7.5,0-11.3,0C68.7,73.6,68.7,74.6,68.7,75.7z"/>
		<path class="st1" d="M60.9,58.5c0,6.6-5.3,11.9-11.9,11.9c-6.5,0-11.9-5.3-11.9-11.8c0-6.6,5.3-12,11.9-11.9
			C55.6,46.6,60.9,51.9,60.9,58.5z M58.6,58.4c0-5.3-4.3-9.6-9.7-9.6c-5.3,0-9.6,4.3-9.5,9.6c0,5.4,4.3,9.6,9.6,9.6
			C54.4,68,58.7,63.8,58.6,58.4z"/>
		<path class="st1" d="M48.2,51.8c0-0.3,0-0.6,0.1-0.9c0.5,0,1,0,1.6,0c0,0.4,0.1,0.7,0.1,1.1c1.4,0.3,2.7,0.7,3.8,1.8
			c-0.4,0.5-0.8,1.1-1.2,1.6c-0.8-0.4-1.7-0.9-2.7-1.4c0,1.3,0,2.3,0,3.4c0,0.1,0.3,0.3,0.5,0.3c0.6,0.2,1.2,0.4,1.8,0.6
			c2.8,1.2,2.3,4.8,0.5,5.9c-0.8,0.5-1.7,0.7-2.7,1.1c0,0.2,0,0.5-0.1,0.9c-0.5,0-1,0-1.6,0c0.4-1.1-0.4-1.3-1.1-1.4
			c-1.2-0.3-2.2-0.9-3.1-1.7c0.4-0.5,0.8-1,1.2-1.5c1,0.5,1.9,1,3,1.6c0-1.3,0-2.4,0-3.5c0-0.1-0.2-0.3-0.4-0.4
			c-0.4-0.2-0.8-0.2-1.1-0.4c-1.2-0.5-2.1-1.3-2.2-2.7c-0.1-1.5,0.5-2.7,1.8-3.5C46.8,52.3,47.5,52.1,48.2,51.8z M50,63
			c1.3-0.3,1.9-0.9,1.8-1.8c-0.1-0.7-0.8-1.3-1.8-1.3C50,60.9,50,61.9,50,63z M48.2,54c-0.9,0.2-1.5,0.8-1.4,1.5
			c0,0.8,0.6,1.1,1.4,1.4C48.2,55.9,48.2,55,48.2,54z"/>
	</g>
</g>
</svg>
