<?xml version="1.0" encoding="utf-8"?>
<!-- Generator: Adobe Illustrator 24.1.2, SVG Export Plug-In . SVG Version: 6.00 Build 0)  -->
<svg version="1.1" id="Capa_1" xmlns="http://www.w3.org/2000/svg" xmlns:xlink="http://www.w3.org/1999/xlink" x="0px" y="0px"
	 viewBox="0 0 81.7 81.7" style="enable-background:new 0 0 81.7 81.7;" xml:space="preserve">
<style type="text/css">
	.st0{fill:#FFFFFF;}
	.st1{fill:#3C4660;}
</style>
<g>
	<circle class="st0" cx="34.4" cy="33.1" r="33.1"/>
	<path class="st1" d="M41.1,81.7c-7.9,0-15.8,0-23.7,0c-1.7,0-2.1-0.5-2.1-2.1c0-11.3,0-22.6,0-34c0-0.5-0.1-0.9-0.5-1.3
		c-4-4-7.9-8-11.9-12c-1.1-1.2-1.1-1.9,0.1-3c5-4.5,10-9,15.1-13.4c0.5-0.4,1.1-0.8,1.8-1c3.5-1.3,7-2.6,10.5-3.8
		c1.6-0.6,2.3-0.1,2.6,1.5c0.4,2.4,1.2,4.6,3.1,6.2c4.5,3.6,11.4,1.4,13-4.1c0.2-0.7,0.4-1.4,0.5-2.1c0.2-1.5,1-2,2.5-1.5
		c2.6,0.9,5.2,2,7.8,2.8s4.7,2.1,6.7,3.9c4.3,3.9,8.7,7.7,13,11.6c1.2,1.1,1.2,1.9,0.1,3c-3.9,4-7.9,7.9-11.8,11.9
		c-0.5,0.5-0.7,0.9-0.7,1.6c0,11.2,0,22.5,0,33.7c0,0.5,0,0.9-0.2,1.3c-0.3,0.8-1,0.9-1.8,0.9C57.1,81.7,49.1,81.7,41.1,81.7z
		 M15.3,40.1c0-0.1,0-0.3,0-0.5c0-1.9,0-3.7,0-5.6c0-0.3,0-0.7,0.1-1c0.2-0.7,0.8-1.1,1.5-1.1s1.3,0.5,1.4,1.3c0,0.4,0,0.7,0,1.1
		c0,14.5,0,28.9,0,43.4c0,0.3,0,0.6,0,1c15.3,0,30.4,0,45.7,0c0-0.4,0-0.7,0-1c0-14.5,0-28.9,0-43.4c0-0.3,0-0.6,0-0.8
		c0.1-0.8,0.6-1.4,1.4-1.4s1.5,0.5,1.6,1.3c0,0.2,0,0.5,0,0.8c0,1.9,0,3.9,0,5.8c0,0.2,0,0.4,0.1,0.5c0-0.1-0.1-0.1-0.1-0.2
		c3.2-3,6.3-6.1,9.5-9.2c-0.2-0.1-0.3-0.2-0.4-0.3c-4.6-4.1-9.2-8.3-13.9-12.5c-0.2-0.2-0.5-0.4-0.9-0.5c-2.8-1-5.5-2-8.3-3
		c-0.2-0.1-0.5-0.1-0.8-0.2c-0.6,2.5-1.7,4.5-3.5,6.2c-1.9,1.7-4,2.7-6.5,2.9c-6.5,0.3-10.4-3-12.3-9.1c-3,1.1-5.9,2.1-8.8,3.2
		c-0.4,0.2-0.9,0.4-1.2,0.7c-4.5,4-9,8.1-13.6,12.1C6,30.7,5.8,30.8,5.5,31C8.9,34.1,12.2,37.1,15.3,40.1z"/>
</g>
</svg>
