<?xml version="1.0" encoding="utf-8"?>
<!-- Generator: Adobe Illustrator 23.1.1, SVG Export Plug-In . SVG Version: 6.00 Build 0)  -->
<svg version="1.1" id="Capa_1" xmlns="http://www.w3.org/2000/svg" xmlns:xlink="http://www.w3.org/1999/xlink" x="0px" y="0px"
	 viewBox="0 0 56 56" style="enable-background:new 0 0 56 56;" xml:space="preserve">
<style type="text/css">
	.st0{fill:#3E4C68;}
	.st1{fill:#ADA1A2;}
</style>
<circle class="st0" cx="28" cy="28" r="28"/>
<path class="st1" d="M44.9,41.2C44.9,41.1,44.9,41.1,44.9,41.2c0.1-0.1,0.2-0.2,0.2-0.3c0-0.1,0.1-0.2,0.1-0.4v-25c0,0,0,0,0,0
	c0-0.1,0-0.2,0-0.2c0,0,0-0.1,0-0.1c0,0-0.1-0.1-0.1-0.1c0-0.1-0.1-0.1-0.1-0.2c0,0,0,0,0,0c0,0-0.1,0-0.1-0.1
	c-0.1,0-0.1-0.1-0.2-0.1c-0.1,0-0.1,0-0.2,0c0,0-0.1,0-0.1,0h0c0,0,0,0,0,0H11.8c-0.1,0-0.2,0-0.4,0.1c-0.1,0-0.2,0.1-0.3,0.2
	c0,0,0,0,0,0c0,0,0,0,0,0C11.1,15,11,15,10.9,15.1c0,0.1-0.1,0.2-0.1,0.4v25c0,0.1,0,0.2,0.1,0.4c0,0.1,0.1,0.2,0.2,0.3c0,0,0,0,0,0
	c0,0,0,0,0,0c0.1,0.1,0.2,0.1,0.3,0.2c0.1,0,0.2,0.1,0.4,0.1h32.4c0.1,0,0.2,0,0.4-0.1C44.7,41.3,44.7,41.3,44.9,41.2
	C44.8,41.2,44.9,41.2,44.9,41.2z M28.5,30.8L14,16.4h28L28.5,30.8z M23,28L12.7,38.3V17.7L23,28z M24.3,29.3l3.5,3.5
	c0.2,0.2,0.4,0.3,0.7,0.3c0,0,0,0,0,0c0.3,0,0.5-0.1,0.7-0.3l2.9-3.1l9.9,9.9H14L24.3,29.3z M33.4,28.3l9.9-10.5v20.4L33.4,28.3z"/>
</svg>
