<?xml version="1.0" encoding="utf-8"?>
<!-- Generator: Adobe Illustrator 23.1.1, SVG Export Plug-In . SVG Version: 6.00 Build 0)  -->
<svg version="1.1" id="Capa_1" xmlns="http://www.w3.org/2000/svg" xmlns:xlink="http://www.w3.org/1999/xlink" x="0px" y="0px"
	 viewBox="0 0 56 56" style="enable-background:new 0 0 56 56;" xml:space="preserve">
<style type="text/css">
	.st0{fill:#3E4C68;}
	.st1{fill:#ADA1A2;}
</style>
<circle class="st0" cx="28" cy="28" r="28"/>
<g>
	<path class="st1" d="M35.3,12.7H20.7c-1.5,0-2.7,1.2-2.7,2.7v25.3c0,1.5,1.2,2.7,2.7,2.7h14.5c1.5,0,2.7-1.2,2.7-2.7V15.3
		C37.9,13.9,36.8,12.7,35.3,12.7z M20.7,14.3h14.5c0.6,0,1,0.5,1,1v2.3H19.7v-2.3C19.7,14.8,20.2,14.3,20.7,14.3z M36.3,19.3v14.9
		H19.7V19.3H36.3z M35.3,41.7H20.7c-0.6,0-1-0.4-1-1v-4.8h16.6v4.8C36.3,41.2,35.8,41.7,35.3,41.7z"/>
	<g>
		<path class="st1" d="M28,39.6c-0.7,0-1.2-0.6-1.2-1.2s0.6-1.2,1.2-1.2s1.2,0.6,1.2,1.2S28.7,39.6,28,39.6z M28,37.9
			c-0.2,0-0.4,0.2-0.4,0.4s0.2,0.4,0.4,0.4s0.4-0.2,0.4-0.4S28.2,37.9,28,37.9z"/>
	</g>
</g>
</svg>
