<?xml version="1.0" encoding="utf-8"?>
<!-- Generator: Adobe Illustrator 23.1.1, SVG Export Plug-In . SVG Version: 6.00 Build 0)  -->
<svg version="1.1" id="Capa_1" xmlns="http://www.w3.org/2000/svg" xmlns:xlink="http://www.w3.org/1999/xlink" x="0px" y="0px"
	 viewBox="0 0 215.5 117.2" style="enable-background:new 0 0 215.5 117.2;" xml:space="preserve">
<style type="text/css">
	.st0{fill:#ADA1A2;}
</style>
<g>
	<g>
		<path class="st0" d="M7.8,77.6l0.1,3.7H7.6C7.4,80.3,7,79.6,6.4,79s-1.3-0.8-2-0.8c-0.5,0-1,0.1-1.3,0.4s-0.5,0.6-0.5,1
			c0,0.2,0.1,0.5,0.2,0.6c0.2,0.2,0.4,0.5,0.8,0.8c0.2,0.2,0.8,0.5,1.8,1c1.3,0.6,2.2,1.2,2.6,1.8c0.4,0.6,0.7,1.2,0.7,1.9
			c0,0.9-0.4,1.7-1.1,2.4s-1.6,1-2.7,1c-0.4,0-0.7,0-1-0.1s-0.7-0.2-1.2-0.4c-0.3-0.1-0.5-0.2-0.6-0.2c-0.1,0-0.3,0-0.5,0.2
			s-0.3,0.3-0.4,0.5H0.9v-4.2h0.3c0.2,1.2,0.7,2.1,1.4,2.7c0.7,0.6,1.4,0.9,2.2,0.9c0.6,0,1.1-0.2,1.5-0.5s0.5-0.7,0.5-1.1
			c0-0.3-0.1-0.5-0.2-0.8c-0.1-0.2-0.4-0.5-0.6-0.7s-0.8-0.5-1.5-0.9c-1-0.5-1.7-0.9-2.2-1.3s-0.8-0.7-1-1.2
			c-0.2-0.4-0.4-0.9-0.4-1.4c0-0.9,0.3-1.6,1-2.2s1.5-0.9,2.4-0.9c0.4,0,0.7,0,1,0.1c0.2,0.1,0.6,0.2,0.9,0.4s0.6,0.3,0.8,0.3
			c0.1,0,0.2,0,0.3-0.1s0.2-0.3,0.2-0.6L7.8,77.6L7.8,77.6z"/>
		<path class="st0" d="M16.1,85.7h-3.9l-0.5,1.1c-0.1,0.4-0.2,0.6-0.2,0.9c0,0.3,0.1,0.5,0.4,0.7c0.1,0.1,0.5,0.1,1.1,0.2v0.3H9.3
			v-0.3c0.4-0.1,0.7-0.2,1-0.5s0.6-0.8,0.9-1.7l3.9-8.8h0.1l4,9c0.4,0.9,0.7,1.4,0.9,1.6c0.2,0.2,0.4,0.3,0.8,0.3v0.3h-5.3v-0.3h0.2
			c0.4,0,0.7-0.1,0.9-0.2c0.1-0.1,0.2-0.2,0.2-0.4c0-0.1,0-0.2,0-0.3c0,0-0.1-0.2-0.2-0.6L16.1,85.7z M15.9,85.1l-1.6-3.8l-1.7,3.8
			H15.9z"/>
		<path class="st0" d="M31.7,84.9l-0.4,3.9h-9.8v-0.3h0.4c0.3,0,0.6-0.1,0.8-0.2c0.1-0.1,0.2-0.2,0.3-0.4c0.1-0.1,0.1-0.5,0.1-1
			v-7.2c0-0.6,0-0.9-0.1-1.1s-0.2-0.3-0.4-0.4s-0.4-0.2-0.7-0.2h-0.4v-0.3h5.9v0.3h-0.5c-0.3,0-0.6,0.1-0.8,0.2
			c-0.1,0.1-0.2,0.2-0.3,0.4c-0.1,0.1-0.1,0.5-0.1,1v7c0,0.6,0,0.9,0.1,1.1c0.1,0.1,0.2,0.3,0.4,0.3c0.1,0,0.5,0.1,1,0.1h0.9
			c0.6,0,1.1-0.1,1.5-0.3c0.4-0.2,0.7-0.5,1-1s0.5-1.1,0.8-2L31.7,84.9L31.7,84.9z"/>
		<path class="st0" d="M42.6,77.8v0.3c-0.4,0.1-0.8,0.3-1.1,0.6c-0.2,0.3-0.6,0.9-1,1.9l-3.8,8.4h-0.3l-3.8-8.8
			c-0.5-1.1-0.8-1.7-0.9-1.9s-0.4-0.3-0.9-0.4v-0.3h5.3v0.3H36c-0.5,0-0.8,0.1-1,0.2c-0.1,0.1-0.2,0.2-0.2,0.4c0,0.1,0,0.2,0.1,0.3
			s0.2,0.5,0.4,1.1l2.4,5.5l2.2-4.9c0.3-0.6,0.4-1,0.5-1.2s0.1-0.4,0.1-0.5c0-0.2,0-0.3-0.1-0.4s-0.2-0.2-0.4-0.3
			c-0.2-0.1-0.5-0.1-0.9-0.1v-0.3H42.6z"/>
		<path class="st0" d="M47.6,85.7h-3.9l-0.5,1.1c-0.1,0.4-0.2,0.6-0.2,0.9c0,0.3,0.1,0.5,0.4,0.7c0.1,0.1,0.5,0.1,1.1,0.2v0.3h-3.7
			v-0.3c0.4-0.1,0.7-0.2,1-0.5s0.6-0.8,0.9-1.7l3.9-8.8h0.1l4,9c0.4,0.9,0.7,1.4,0.9,1.6c0.2,0.2,0.4,0.3,0.8,0.3v0.3h-5.3v-0.3h0.2
			c0.4,0,0.7-0.1,0.9-0.2c0.1-0.1,0.2-0.2,0.2-0.4c0-0.1,0-0.2,0-0.3c0,0-0.1-0.2-0.2-0.6L47.6,85.7z M47.3,85.1l-1.6-3.8L44,85.1
			H47.3z"/>
		<path class="st0" d="M52.9,88.8v-0.3h0.4c0.3,0,0.6,0,0.7-0.1s0.3-0.2,0.4-0.4c0-0.1,0.1-0.5,0.1-1v-7.2c0-0.6,0-0.9-0.1-1.1
			s-0.2-0.3-0.4-0.4s-0.4-0.2-0.7-0.2h-0.4v-0.3h4.9c1.3,0,2.4,0.2,3.2,0.5c1,0.4,1.7,1.1,2.2,2c0.5,0.9,0.8,1.9,0.8,3
			c0,0.8-0.1,1.5-0.4,2.1c-0.2,0.6-0.6,1.2-1,1.6c-0.4,0.4-0.9,0.8-1.4,1c-0.5,0.3-1.1,0.5-1.9,0.6c-0.3,0.1-0.9,0.1-1.6,0.1
			L52.9,88.8L52.9,88.8z M57.1,78.4V87c0,0.5,0,0.7,0.1,0.8c0,0.1,0.1,0.2,0.2,0.2c0.1,0.1,0.4,0.1,0.6,0.1c0.9,0,1.6-0.3,2.1-0.9
			c0.6-0.8,1-2.1,1-3.9c0-1.4-0.2-2.5-0.7-3.4c-0.4-0.7-0.8-1.1-1.4-1.4C58.6,78.5,58,78.4,57.1,78.4z"/>
		<path class="st0" d="M71.1,77.6c1.8-0.1,3.2,0.5,4.3,1.5c1.1,1.1,1.6,2.5,1.6,4.1c0,1.4-0.4,2.6-1.2,3.7c-1.1,1.4-2.6,2.1-4.6,2.1
			s-3.5-0.7-4.6-2c-0.9-1.1-1.3-2.3-1.3-3.8c0-1.6,0.6-3,1.7-4.1C68.1,78.1,69.5,77.6,71.1,77.6z M71.2,78.2c-1,0-1.8,0.5-2.3,1.5
			c-0.4,0.8-0.6,2.1-0.6,3.6c0,1.9,0.3,3.3,1,4.2c0.5,0.6,1.1,0.9,1.9,0.9c0.6,0,1-0.1,1.4-0.4c0.5-0.4,0.9-0.9,1.1-1.7
			c0.3-0.8,0.4-1.8,0.4-3c0-1.5-0.1-2.5-0.4-3.3s-0.6-1.2-1-1.5C72.2,78.3,71.7,78.2,71.2,78.2z"/>
		<path class="st0" d="M82,83.8v3.1c0,0.6,0,1,0.1,1.1s0.2,0.3,0.4,0.4c0.2,0.1,0.5,0.1,1,0.1v0.3h-5.6v-0.3c0.5,0,0.9,0,1-0.1
			s0.3-0.2,0.4-0.4s0.1-0.5,0.1-1.1v-7.1c0-0.6,0-1-0.1-1.1s-0.2-0.3-0.4-0.4s-0.5-0.1-1-0.1v-0.3H83c1.3,0,2.3,0.1,2.9,0.3
			c0.6,0.2,1.1,0.5,1.5,1s0.6,1.1,0.6,1.7c0,0.8-0.3,1.5-0.9,2c-0.4,0.3-0.9,0.6-1.6,0.8l2.6,3.7c0.4,0.5,0.6,0.8,0.7,0.9
			c0.2,0.2,0.5,0.3,0.8,0.3v0.3h-3.5l-3.5-5L82,83.8L82,83.8z M82,78.4v4.8h0.5c0.8,0,1.3-0.1,1.7-0.2c0.4-0.1,0.7-0.4,0.9-0.8
			s0.3-0.8,0.3-1.4c0-0.8-0.2-1.5-0.6-1.9c-0.4-0.4-1-0.6-1.9-0.6L82,78.4L82,78.4z"/>
		<path class="st0" d="M98.2,83.8v3.1c0,0.6,0,1,0.1,1.1c0.1,0.1,0.2,0.3,0.4,0.4s0.5,0.1,1,0.1v0.3h-5.6v-0.3c0.5,0,0.9,0,1-0.1
			c0.2-0.1,0.3-0.2,0.4-0.4s0.1-0.5,0.1-1.1v-7.1c0-0.6,0-1-0.1-1.1c-0.1-0.1-0.2-0.3-0.4-0.4c-0.2-0.1-0.5-0.1-1-0.1v-0.3h5.1
			c1.3,0,2.3,0.1,2.9,0.3c0.6,0.2,1.1,0.5,1.5,1s0.6,1.1,0.6,1.7c0,0.8-0.3,1.5-0.9,2c-0.4,0.3-0.9,0.6-1.6,0.8l2.6,3.7
			c0.4,0.5,0.6,0.8,0.7,0.9c0.2,0.2,0.5,0.3,0.8,0.3v0.3h-3.5l-3.5-5L98.2,83.8L98.2,83.8z M98.2,78.4v4.8h0.5
			c0.8,0,1.3-0.1,1.7-0.2c0.4-0.1,0.7-0.4,0.9-0.8s0.3-0.8,0.3-1.4c0-0.8-0.2-1.5-0.6-1.9s-1-0.6-1.9-0.6L98.2,78.4L98.2,78.4z"/>
		<path class="st0" d="M106.2,77.8h5.7v0.3h-0.3c-0.4,0-0.7,0-0.9,0.1s-0.3,0.2-0.3,0.4s-0.1,0.5-0.1,1.2v5.4c0,1,0.1,1.6,0.2,2
			c0.1,0.3,0.4,0.6,0.7,0.8s0.8,0.3,1.3,0.3c0.6,0,1.1-0.1,1.5-0.4c0.4-0.3,0.7-0.6,0.9-1.1c0.2-0.5,0.3-1.3,0.3-2.5v-4.5
			c0-0.5,0-0.8-0.1-1s-0.2-0.4-0.4-0.4c-0.2-0.1-0.6-0.2-1-0.2v-0.3h3.8v0.3h-0.2c-0.3,0-0.6,0.1-0.8,0.2c-0.2,0.1-0.4,0.3-0.5,0.6
			c-0.1,0.2-0.1,0.5-0.1,0.9V84c0,1.3-0.1,2.2-0.3,2.8c-0.2,0.6-0.6,1.1-1.2,1.6c-0.7,0.5-1.6,0.7-2.7,0.7c-1,0-1.7-0.1-2.2-0.4
			c-0.7-0.4-1.2-0.8-1.5-1.3s-0.4-1.3-0.4-2.2v-5.4c0-0.6,0-1-0.1-1.2s-0.2-0.3-0.4-0.4c-0.2-0.1-0.5-0.1-1-0.1L106.2,77.8
			L106.2,77.8z"/>
		<path class="st0" d="M129.3,77.6v3.9H129c-0.4-1.1-0.9-1.9-1.6-2.4c-0.7-0.5-1.5-0.8-2.4-0.8c-0.8,0-1.5,0.2-2,0.7
			c-0.5,0.5-0.9,1.1-1.2,1.9c-0.2,0.8-0.3,1.7-0.3,2.5c0,1,0.1,2,0.4,2.8s0.6,1.4,1.2,1.8s1.2,0.6,2,0.6c0.3,0,0.5,0,0.8-0.1
			c0.3-0.1,0.6-0.1,0.9-0.2v-2.3c0-0.4,0-0.7-0.1-0.8s-0.2-0.2-0.4-0.3s-0.4-0.1-0.7-0.1h-0.3v-0.3h5.4v0.3c-0.4,0-0.7,0.1-0.9,0.2
			c-0.2,0.1-0.3,0.2-0.4,0.4c0,0.1-0.1,0.4-0.1,0.8v2.3c-0.7,0.3-1.4,0.5-2.2,0.7s-1.5,0.2-2.4,0.2c-1,0-1.9-0.1-2.6-0.4
			c-0.7-0.3-1.3-0.7-1.8-1.1s-0.9-1-1.2-1.6c-0.4-0.8-0.6-1.6-0.6-2.5c0-1.7,0.6-3.1,1.8-4.2c1.2-1.1,2.6-1.7,4.4-1.7
			c0.5,0,1,0,1.5,0.1c0.2,0,0.6,0.2,1.2,0.4s0.9,0.3,1,0.3c0.1,0,0.3-0.1,0.4-0.2c0.1-0.1,0.2-0.3,0.4-0.6H129.3z"/>
		<path class="st0" d="M142.2,77.6v3.9h-0.3c-0.4-1.1-0.9-1.9-1.6-2.4c-0.7-0.5-1.5-0.8-2.4-0.8c-0.8,0-1.5,0.2-2,0.7
			s-0.9,1.1-1.2,1.9s-0.3,1.7-0.3,2.5c0,1,0.1,2,0.4,2.8s0.6,1.4,1.2,1.8c0.5,0.4,1.2,0.6,2,0.6c0.3,0,0.5,0,0.8-0.1
			c0.3-0.1,0.6-0.1,0.9-0.2v-2.3c0-0.4,0-0.7-0.1-0.8s-0.2-0.2-0.4-0.3s-0.4-0.1-0.7-0.1h-0.3v-0.3h5.4v0.3c-0.4,0-0.7,0.1-0.9,0.2
			c-0.2,0.1-0.3,0.2-0.4,0.4c0,0.1-0.1,0.4-0.1,0.8v2.3c-0.7,0.3-1.4,0.5-2.2,0.7s-1.5,0.2-2.4,0.2c-1,0-1.9-0.1-2.6-0.4
			s-1.3-0.7-1.8-1.1s-0.9-1-1.2-1.6c-0.4-0.8-0.6-1.6-0.6-2.5c0-1.7,0.6-3.1,1.8-4.2s2.6-1.7,4.4-1.7c0.5,0,1,0,1.5,0.1
			c0.2,0,0.6,0.2,1.2,0.4c0.5,0.2,0.9,0.3,1,0.3c0.1,0,0.3-0.1,0.4-0.2c0.1-0.1,0.2-0.3,0.4-0.6H142.2z"/>
		<path class="st0" d="M148.2,78.4v4.5h0.2c0.7,0,1.2-0.2,1.5-0.7c0.3-0.4,0.5-1.1,0.6-1.9h0.3v5.8h-0.3c-0.1-0.6-0.2-1.1-0.4-1.5
			s-0.5-0.7-0.7-0.8c-0.3-0.1-0.7-0.2-1.2-0.2v3.1c0,0.6,0,1,0.1,1.1c0,0.1,0.1,0.2,0.3,0.3c0.1,0.1,0.4,0.1,0.7,0.1h0.7
			c1,0,1.9-0.2,2.5-0.7c0.6-0.5,1.1-1.2,1.3-2.2h0.3l-0.5,3.5H144v-0.3h0.4c0.3,0,0.6-0.1,0.8-0.2c0.1-0.1,0.2-0.2,0.3-0.4
			c0.1-0.1,0.1-0.5,0.1-1v-7.2c0-0.5,0-0.8,0-0.9c0-0.2-0.1-0.3-0.3-0.4c-0.2-0.1-0.5-0.2-0.8-0.2H144v-0.3h9.2V81h-0.3
			c-0.2-0.8-0.4-1.4-0.7-1.7c-0.3-0.4-0.7-0.6-1.2-0.8c-0.3-0.1-0.9-0.1-1.7-0.1L148.2,78.4L148.2,78.4z"/>
		<path class="st0" d="M159.2,83.8v3.1c0,0.6,0,1,0.1,1.1c0.1,0.1,0.2,0.3,0.4,0.4s0.5,0.1,1,0.1v0.3H155v-0.3c0.5,0,0.9,0,1-0.1
			c0.2-0.1,0.3-0.2,0.4-0.4s0.1-0.5,0.1-1.1v-7.1c0-0.6,0-1-0.1-1.1c-0.1-0.1-0.2-0.3-0.4-0.4c-0.2-0.1-0.5-0.1-1-0.1v-0.3h5.1
			c1.3,0,2.3,0.1,2.9,0.3c0.6,0.2,1.1,0.5,1.5,1s0.6,1.1,0.6,1.7c0,0.8-0.3,1.5-0.9,2c-0.4,0.3-0.9,0.6-1.6,0.8l2.6,3.7
			c0.4,0.5,0.6,0.8,0.7,0.9c0.2,0.2,0.5,0.3,0.8,0.3v0.3h-3.5l-3.5-5L159.2,83.8L159.2,83.8z M159.2,78.4v4.8h0.5
			c0.8,0,1.3-0.1,1.7-0.2c0.4-0.1,0.7-0.4,0.9-0.8s0.3-0.8,0.3-1.4c0-0.8-0.2-1.5-0.6-1.9s-1-0.6-1.9-0.6L159.2,78.4L159.2,78.4z"/>
		<path class="st0" d="M172.8,88.5v0.3h-5.8v-0.3h0.4c0.3,0,0.6-0.1,0.8-0.2c0.1-0.1,0.2-0.2,0.3-0.4c0.1-0.1,0.1-0.5,0.1-1v-7.2
			c0-0.6,0-0.9-0.1-1.1c-0.1-0.1-0.2-0.3-0.4-0.4s-0.4-0.2-0.7-0.2h-0.4v-0.3h5.8v0.3h-0.4c-0.3,0-0.6,0.1-0.8,0.2
			c-0.1,0.1-0.2,0.2-0.3,0.4c-0.1,0.1-0.1,0.5-0.1,1v7.2c0,0.6,0,0.9,0.1,1.1c0.1,0.1,0.2,0.3,0.4,0.4s0.4,0.2,0.7,0.2H172.8z"/>
	</g>
	<g>
		<path class="st0" d="M101.1,0l0.3,13.5h-1.2c-0.6-3.4-2-6.1-4.3-8.2c-2.3-2.1-4.7-3.1-7.3-3.1c-2,0-3.6,0.5-4.8,1.6
			C82.6,5,82,6.2,82,7.6c0,0.9,0.2,1.7,0.6,2.4c0.6,0.9,1.5,1.9,2.8,2.8c0.9,0.7,3.1,1.8,6.5,3.5c4.7,2.3,7.9,4.5,9.6,6.6
			c1.6,2.1,2.5,4.5,2.5,7.1c0,3.4-1.3,6.3-4,8.8c-2.6,2.4-6,3.7-10.1,3.7c-1.3,0-2.5-0.1-3.6-0.4c-1.1-0.3-2.6-0.8-4.3-1.5
			c-1-0.4-1.7-0.6-2.4-0.6c-0.5,0-1.1,0.2-1.6,0.6s-1,1-1.4,1.8h-1.1V27.1h1.1c0.9,4.3,2.6,7.6,5.1,9.9s5.2,3.4,8.1,3.4
			c2.2,0,4-0.6,5.3-1.8c1.3-1.2,2-2.6,2-4.2c0-1-0.2-1.9-0.8-2.8s-1.3-1.8-2.3-2.6s-2.9-1.9-5.5-3.1c-3.7-1.8-6.3-3.4-8-4.6
			s-2.9-2.7-3.7-4.3c-0.9-1.6-1.3-3.3-1.3-5.2c0-3.2,1.2-6,3.6-8.2s5.4-3.4,9-3.4c1.3,0,2.6,0.2,3.8,0.5c0.9,0.2,2.1,0.7,3.4,1.3
			s2.3,1,2.8,1c0.5,0,0.9-0.2,1.2-0.5s0.6-1.1,0.8-2.3L101.1,0L101.1,0z"/>
	</g>
	<g>
		<path class="st0" d="M111.3,36.4v11.4c0,2.2,0.1,3.6,0.4,4.1s0.7,1,1.4,1.4c0.7,0.3,1.9,0.5,3.8,0.5v1.1H96.2v-1.1
			c1.9,0,3.1-0.2,3.8-0.5c0.7-0.4,1.1-0.8,1.4-1.4s0.4-1.9,0.4-4.1V21.5c0-2.2-0.1-3.6-0.4-4.1s-0.7-1-1.4-1.4
			c-0.7-0.3-1.9-0.5-3.8-0.5v-1.1H115c4.9,0,8.5,0.3,10.8,1s4.1,1.9,5.6,3.8c1.4,1.8,2.1,4,2.1,6.4c0,3-1.1,5.5-3.2,7.4
			c-1.4,1.2-3.3,2.2-5.8,2.8l9.7,13.7c1.3,1.8,2.2,2.9,2.7,3.3c0.8,0.6,1.8,1,2.8,1v1.1H127l-13-18.5L111.3,36.4L111.3,36.4z
			 M111.3,16.6v17.8h1.7c2.8,0,4.8-0.2,6.2-0.8c1.4-0.5,2.5-1.4,3.2-2.8c0.8-1.3,1.2-3,1.2-5.2c0-3.1-0.7-5.4-2.2-6.8
			c-1.4-1.5-3.8-2.2-7-2.2L111.3,16.6L111.3,16.6z"/>
	</g>
	<g>
		<path class="st0" d="M183.1,85.3h1.9v0.2c-0.2,0-0.4,0.1-0.5,0.2c-0.1,0.1-0.3,0.3-0.5,0.7s-0.5,0.8-0.8,1.2
			c0.3,0.3,0.6,0.5,0.8,0.6c0.1,0.1,0.3,0.1,0.4,0.1c0.2,0,0.4-0.1,0.6-0.5l0.2,0.1c-0.2,0.5-0.5,0.8-0.8,1
			c-0.2,0.2-0.5,0.2-0.7,0.2c-0.2,0-0.5,0-0.7-0.1s-0.5-0.3-0.8-0.6c-0.4,0.3-0.7,0.4-1.1,0.6s-0.7,0.2-1,0.2c-0.6,0-1-0.2-1.4-0.5
			c-0.3-0.3-0.5-0.7-0.5-1.1c0-0.5,0.2-0.9,0.5-1.2c0.3-0.3,0.8-0.6,1.4-0.9c-0.1-0.2-0.1-0.4-0.2-0.6c0-0.2-0.1-0.4-0.1-0.5
			c0-0.5,0.2-0.9,0.5-1.2c0.3-0.3,0.8-0.5,1.3-0.5c0.4,0,0.8,0.1,1,0.3c0.2,0.2,0.4,0.5,0.4,0.8c0,0.4-0.1,0.6-0.4,0.9
			s-0.7,0.5-1.2,0.7c0.4,0.6,0.9,1.3,1.5,2c0.5-0.5,0.7-0.9,0.7-1.3c0-0.1,0-0.2-0.1-0.3s-0.2-0.1-0.4-0.2L183.1,85.3L183.1,85.3z
			 M180.2,85.8c-0.2,0.1-0.4,0.2-0.5,0.3c-0.1,0.2-0.2,0.4-0.2,0.6c0,0.3,0.1,0.6,0.2,0.9c0.2,0.3,0.4,0.5,0.6,0.7s0.5,0.2,0.7,0.2
			c0.1,0,0.2,0,0.4-0.1c0.1,0,0.3-0.1,0.5-0.2C181.1,87.4,180.6,86.6,180.2,85.8z M181.3,85c0.3-0.1,0.5-0.2,0.6-0.4
			c0.1-0.1,0.2-0.3,0.2-0.5c0-0.3-0.1-0.6-0.3-0.9c-0.1-0.2-0.3-0.2-0.4-0.2c-0.1,0-0.3,0.1-0.4,0.2s-0.1,0.3-0.1,0.5
			c0,0.1,0,0.3,0.1,0.5C181,84.3,181.1,84.6,181.3,85z"/>
		<path class="st0" d="M191.3,87.2h-2.2l-0.3,0.6c-0.1,0.2-0.1,0.4-0.1,0.5c0,0.2,0.1,0.3,0.2,0.4c0.1,0,0.3,0.1,0.6,0.1V89h-2.1
			v-0.2c0.2,0,0.4-0.1,0.5-0.3c0.1-0.1,0.3-0.5,0.5-0.9l2.2-5h0.1l2.2,5.1c0.2,0.5,0.4,0.8,0.5,0.9c0.1,0.1,0.2,0.1,0.4,0.2V89h-3
			v-0.2h0.1c0.2,0,0.4,0,0.5-0.1c0.1,0,0.1-0.1,0.1-0.2c0,0,0-0.1,0-0.2c0,0,0-0.1-0.1-0.3L191.3,87.2z M191.2,86.9l-0.9-2.1l-1,2.1
			H191.2z"/>
		<path class="st0" d="M198.6,82.6l0,2.1h-0.2c-0.1-0.5-0.3-0.9-0.6-1.3c-0.4-0.3-0.7-0.5-1.1-0.5c-0.3,0-0.6,0.1-0.7,0.2
			s-0.3,0.4-0.3,0.6c0,0.1,0,0.3,0.1,0.4c0.1,0.1,0.2,0.3,0.4,0.4c0.1,0.1,0.5,0.3,1,0.5c0.7,0.4,1.2,0.7,1.5,1
			c0.2,0.3,0.4,0.7,0.4,1.1c0,0.5-0.2,1-0.6,1.3c-0.4,0.4-0.9,0.6-1.5,0.6c-0.2,0-0.4,0-0.5-0.1c-0.2,0-0.4-0.1-0.7-0.2
			c-0.1-0.1-0.3-0.1-0.4-0.1c-0.1,0-0.2,0-0.2,0.1s-0.2,0.1-0.2,0.3h-0.2v-2.4h0.2c0.1,0.7,0.4,1.2,0.8,1.5c0.4,0.4,0.8,0.5,1.2,0.5
			c0.3,0,0.6-0.1,0.8-0.3s0.3-0.4,0.3-0.6c0-0.1,0-0.3-0.1-0.4s-0.2-0.3-0.4-0.4s-0.4-0.3-0.9-0.5c-0.6-0.3-1-0.5-1.2-0.7
			c-0.2-0.2-0.4-0.4-0.6-0.7s-0.2-0.5-0.2-0.8c0-0.5,0.2-0.9,0.5-1.3c0.4-0.4,0.8-0.5,1.4-0.5c0.2,0,0.4,0,0.6,0.1
			c0.1,0,0.3,0.1,0.5,0.2s0.4,0.1,0.4,0.1s0.1,0,0.2-0.1c0,0,0.1-0.2,0.1-0.4L198.6,82.6L198.6,82.6z"/>
		<path class="st0" d="M203.1,82.7c1,0,1.8,0.2,2.4,0.9s0.9,1.4,0.9,2.3c0,0.8-0.2,1.5-0.7,2.1c-0.6,0.8-1.5,1.2-2.6,1.2
			c-1.1,0-2-0.4-2.6-1.1c-0.5-0.6-0.7-1.3-0.7-2.1c0-0.9,0.3-1.7,0.9-2.3C201.4,82.9,202.2,82.6,203.1,82.7z M203.1,83
			c-0.6,0-1,0.3-1.3,0.9c-0.2,0.5-0.4,1.2-0.4,2.1c0,1.1,0.2,1.9,0.6,2.4c0.3,0.4,0.6,0.5,1.1,0.5c0.3,0,0.6-0.1,0.8-0.2
			c0.3-0.2,0.5-0.5,0.6-0.9s0.2-1,0.2-1.7c0-0.8-0.1-1.4-0.2-1.9c-0.1-0.4-0.4-0.7-0.6-0.9C203.7,83.1,203.4,83,203.1,83z"/>
		<path class="st0" d="M213,82.6v2.2h-0.2c-0.1-0.6-0.4-1-0.8-1.3c-0.4-0.3-0.8-0.5-1.2-0.5c-0.4,0-0.8,0.1-1.1,0.3
			c-0.3,0.2-0.6,0.5-0.7,0.9c-0.2,0.5-0.3,1-0.3,1.5s0.1,1.1,0.2,1.5s0.4,0.8,0.7,1s0.7,0.4,1.2,0.4c0.4,0,0.8-0.1,1.1-0.3
			s0.7-0.5,1-0.9v0.5c-0.3,0.4-0.7,0.6-1.1,0.8s-0.8,0.2-1.3,0.2c-0.7,0-1.2-0.1-1.8-0.4c-0.5-0.3-0.9-0.6-1.2-1.1s-0.4-1-0.4-1.6
			c0-0.6,0.2-1.2,0.5-1.7s0.7-1,1.3-1.2c0.5-0.3,1.1-0.4,1.7-0.4c0.4,0,0.9,0.1,1.4,0.3c0.3,0.1,0.5,0.2,0.5,0.2
			c0.1,0,0.2,0,0.2-0.1c0.1-0.1,0.1-0.2,0.1-0.3L213,82.6L213,82.6z"/>
		<path class="st0" d="M214.7,87.6c0.2,0,0.4,0.1,0.5,0.2c0.2,0.1,0.2,0.3,0.2,0.5s-0.1,0.4-0.2,0.5c-0.2,0.1-0.3,0.2-0.5,0.2
			s-0.4-0.1-0.5-0.2s-0.2-0.3-0.2-0.5s0.1-0.4,0.2-0.5C214.3,87.7,214.5,87.6,214.7,87.6z"/>
	</g>
	<g>
		<path class="st0" d="M45,115.2h-2.3l-0.3,0.6c-0.1,0.2-0.1,0.4-0.1,0.5c0,0.2,0.1,0.3,0.2,0.4c0.1,0,0.3,0.1,0.6,0.1v0.2h-2.1
			v-0.2c0.2,0,0.4-0.1,0.6-0.3s0.3-0.5,0.5-1l2.3-5.1h0.1l2.3,5.3c0.2,0.5,0.4,0.8,0.5,0.9c0.1,0.1,0.3,0.1,0.5,0.2v0.2h-3.1v-0.2
			h0.1c0.2,0,0.4,0,0.5-0.1c0.1,0,0.1-0.1,0.1-0.2c0-0.1,0-0.1,0-0.2c0,0,0-0.1-0.1-0.4L45,115.2z M44.9,114.9l-1-2.2l-1,2.2H44.9z"
			/>
		<path class="st0" d="M48.2,110.7h3.3v0.2h-0.2c-0.2,0-0.4,0-0.5,0.1s-0.2,0.1-0.2,0.2c0,0.1-0.1,0.3-0.1,0.7v3.1
			c0,0.6,0,1,0.1,1.1s0.2,0.3,0.4,0.5c0.2,0.1,0.5,0.2,0.8,0.2c0.4,0,0.6-0.1,0.9-0.2c0.2-0.2,0.4-0.4,0.5-0.6s0.2-0.8,0.2-1.4v-2.6
			c0-0.3,0-0.5-0.1-0.6c-0.1-0.1-0.1-0.2-0.2-0.3c-0.1-0.1-0.3-0.1-0.6-0.1v-0.2h2.2v0.2h-0.1c-0.2,0-0.3,0-0.5,0.1
			c-0.1,0.1-0.2,0.2-0.3,0.3c0,0.1-0.1,0.3-0.1,0.5v2.4c0,0.8,0,1.3-0.1,1.6s-0.3,0.6-0.7,0.9s-0.9,0.4-1.6,0.4
			c-0.6,0-1-0.1-1.3-0.2c-0.4-0.2-0.7-0.5-0.9-0.8s-0.3-0.7-0.3-1.3v-3.1c0-0.4,0-0.6-0.1-0.7s-0.1-0.2-0.2-0.2
			c-0.1,0-0.3-0.1-0.6-0.1L48.2,110.7L48.2,110.7z"/>
		<path class="st0" d="M55.1,117.1v-0.2h0.2c0.2,0,0.3,0,0.4-0.1s0.2-0.1,0.2-0.2c0-0.1,0-0.3,0-0.6v-4.2c0-0.3,0-0.5,0-0.6
			c0-0.1-0.1-0.1-0.2-0.2c-0.1-0.1-0.2-0.1-0.4-0.1h-0.2v-0.2H58c0.8,0,1.4,0.1,1.9,0.3c0.6,0.3,1,0.6,1.3,1.2
			c0.3,0.5,0.4,1.1,0.4,1.8c0,0.5-0.1,0.9-0.2,1.2s-0.3,0.7-0.6,0.9c-0.2,0.2-0.5,0.5-0.8,0.6s-0.7,0.3-1.1,0.4
			c-0.2,0-0.5,0.1-0.9,0.1L55.1,117.1L55.1,117.1z M57.6,111v5c0,0.3,0,0.4,0,0.5s0.1,0.1,0.1,0.1c0.1,0,0.2,0.1,0.4,0.1
			c0.5,0,0.9-0.2,1.2-0.5c0.4-0.5,0.6-1.2,0.6-2.3c0-0.8-0.1-1.5-0.4-2c-0.2-0.4-0.5-0.6-0.8-0.8C58.5,111.1,58.1,111,57.6,111z"/>
		<path class="st0" d="M65.6,116.9v0.2h-3.4v-0.2h0.2c0.2,0,0.3,0,0.5-0.1c0.1,0,0.1-0.1,0.2-0.2c0-0.1,0-0.3,0-0.6v-4.2
			c0-0.3,0-0.5,0-0.6c0-0.1-0.1-0.1-0.2-0.2c-0.1-0.1-0.2-0.1-0.4-0.1h-0.2v-0.2h3.4v0.2h-0.2c-0.2,0-0.3,0-0.5,0.1
			c-0.1,0-0.1,0.1-0.2,0.2c0,0.1,0,0.3,0,0.6v4.2c0,0.3,0,0.5,0,0.6s0.1,0.1,0.2,0.2c0.1,0.1,0.2,0.1,0.4,0.1H65.6z"/>
		<path class="st0" d="M71.9,110.7v1.7h-0.2c-0.1-0.4-0.2-0.7-0.3-0.9s-0.3-0.3-0.5-0.4c-0.1-0.1-0.3-0.1-0.6-0.1h-0.5v5
			c0,0.3,0,0.5,0,0.6s0.1,0.1,0.2,0.2c0.1,0.1,0.2,0.1,0.4,0.1h0.2v0.2h-3.4v-0.2h0.2c0.2,0,0.3,0,0.5-0.1c0.1,0,0.1-0.1,0.2-0.2
			c0-0.1,0-0.3,0-0.6v-5h-0.5c-0.4,0-0.8,0.1-0.9,0.3c-0.3,0.3-0.5,0.6-0.5,1.1h-0.2v-1.7L71.9,110.7L71.9,110.7z"/>
		<path class="st0" d="M75.9,110.6c1,0,1.9,0.3,2.5,0.9c0.6,0.6,1,1.4,1,2.4c0,0.8-0.2,1.5-0.7,2.1c-0.6,0.8-1.5,1.2-2.7,1.2
			c-1.2,0-2-0.4-2.7-1.2c-0.5-0.6-0.8-1.4-0.8-2.2c0-1,0.3-1.8,1-2.4C74.1,110.8,74.9,110.5,75.9,110.6z M75.9,110.9
			c-0.6,0-1,0.3-1.3,0.9c-0.2,0.5-0.4,1.2-0.4,2.1c0,1.1,0.2,1.9,0.6,2.4c0.3,0.4,0.6,0.5,1.1,0.5c0.3,0,0.6-0.1,0.8-0.2
			c0.3-0.2,0.5-0.5,0.6-1c0.2-0.4,0.2-1,0.2-1.7c0-0.9-0.1-1.5-0.2-1.9s-0.4-0.7-0.6-0.9C76.5,111,76.2,110.9,75.9,110.9z"/>
		<path class="st0" d="M82.2,114.2v1.8c0,0.4,0,0.6,0.1,0.7s0.1,0.2,0.2,0.2s0.3,0.1,0.6,0.1v0.2h-3.3v-0.2c0.3,0,0.5,0,0.6-0.1
			c0.1,0,0.2-0.1,0.2-0.2s0.1-0.3,0.1-0.6v-4.2c0-0.4,0-0.6-0.1-0.7s-0.1-0.2-0.2-0.2c-0.1,0-0.3-0.1-0.6-0.1v-0.2h3
			c0.8,0,1.4,0,1.7,0.2s0.6,0.3,0.9,0.6s0.3,0.6,0.3,1c0,0.5-0.2,0.9-0.5,1.2c-0.2,0.2-0.5,0.3-0.9,0.4l1.5,2.2
			c0.2,0.3,0.4,0.5,0.4,0.5c0.1,0.1,0.3,0.1,0.5,0.2v0.2h-2l-2.1-2.9L82.2,114.2L82.2,114.2z M82.2,111v2.8h0.3c0.4,0,0.8,0,1-0.1
			s0.4-0.2,0.5-0.4s0.2-0.5,0.2-0.8c0-0.5-0.1-0.9-0.3-1.1c-0.2-0.2-0.6-0.4-1.1-0.4H82.2z"/>
		<path class="st0" d="M89.3,111v2.6h0.1c0.4,0,0.7-0.1,0.9-0.4s0.3-0.6,0.4-1.1h0.2v3.4h-0.2c0-0.4-0.1-0.7-0.2-0.9
			c-0.1-0.2-0.3-0.4-0.4-0.5s-0.4-0.1-0.7-0.1v1.8c0,0.4,0,0.6,0,0.6s0.1,0.1,0.2,0.2c0.1,0,0.2,0.1,0.4,0.1h0.4
			c0.6,0,1.1-0.1,1.4-0.4c0.4-0.3,0.6-0.7,0.8-1.3h0.2l-0.3,2h-5.6v-0.2h0.2c0.2,0,0.3,0,0.5-0.1c0.1,0,0.1-0.1,0.2-0.2
			c0-0.1,0-0.3,0-0.6v-4.2c0-0.3,0-0.5,0-0.5c0-0.1-0.1-0.2-0.2-0.3c-0.1-0.1-0.3-0.1-0.5-0.1h-0.2v-0.2h5.4v1.9h-0.2
			c-0.1-0.5-0.2-0.8-0.4-1s-0.4-0.4-0.7-0.5c-0.2-0.1-0.5-0.1-1-0.1L89.3,111L89.3,111z"/>
		<path class="st0" d="M97.7,110.5l0,2.1h-0.2c-0.1-0.5-0.3-1-0.7-1.3s-0.8-0.5-1.2-0.5c-0.3,0-0.6,0.1-0.8,0.3s-0.3,0.4-0.3,0.6
			c0,0.1,0,0.3,0.1,0.4c0.1,0.1,0.2,0.3,0.4,0.4c0.1,0.1,0.5,0.3,1,0.5c0.8,0.4,1.3,0.7,1.5,1c0.3,0.3,0.4,0.7,0.4,1.1
			c0,0.5-0.2,1-0.6,1.4s-1,0.6-1.6,0.6c-0.2,0-0.4,0-0.6-0.1s-0.4-0.1-0.7-0.2c-0.1-0.1-0.3-0.1-0.4-0.1c-0.1,0-0.2,0-0.3,0.1
			s-0.2,0.2-0.2,0.3h-0.2v-2.4h0.2c0.1,0.7,0.4,1.2,0.8,1.6c0.4,0.4,0.8,0.5,1.3,0.5c0.4,0,0.6-0.1,0.9-0.3s0.3-0.4,0.3-0.7
			c0-0.1,0-0.3-0.1-0.4s-0.2-0.3-0.4-0.4c-0.2-0.1-0.5-0.3-0.9-0.5c-0.6-0.3-1-0.5-1.3-0.7s-0.5-0.4-0.6-0.7
			c-0.1-0.2-0.2-0.5-0.2-0.8c0-0.5,0.2-1,0.6-1.3s0.9-0.5,1.4-0.5c0.2,0,0.4,0,0.6,0.1c0.1,0,0.3,0.1,0.5,0.2
			c0.2,0.1,0.4,0.1,0.5,0.1c0.1,0,0.1,0,0.2-0.1c0,0,0.1-0.2,0.1-0.4L97.7,110.5L97.7,110.5z"/>
		<path class="st0" d="M107.5,110.7v0.2c-0.2,0-0.4,0.1-0.5,0.2c-0.2,0.1-0.4,0.5-0.8,1.1l-1.4,2.3v1.5c0,0.3,0,0.5,0,0.6
			c0,0.1,0.1,0.1,0.2,0.2c0.1,0.1,0.2,0.1,0.4,0.1h0.4v0.2h-3.6v-0.2h0.3c0.2,0,0.3,0,0.5-0.1c0.1,0,0.1-0.1,0.2-0.2
			c0-0.1,0-0.3,0-0.6v-1.3l-1.5-2.8c-0.3-0.5-0.5-0.9-0.6-1s-0.3-0.1-0.5-0.1v-0.2h3.1v0.2h-0.1c-0.2,0-0.3,0-0.4,0.1
			s-0.1,0.1-0.1,0.2c0,0.1,0.1,0.4,0.4,0.9l1.2,2.1l1.2-1.9c0.3-0.5,0.4-0.8,0.4-0.9c0-0.1,0-0.2-0.1-0.2c-0.1-0.1-0.3-0.1-0.6-0.1
			v-0.2L107.5,110.7L107.5,110.7z"/>
		<path class="st0" d="M116.2,110.5v2.2H116c-0.1-0.6-0.4-1-0.8-1.3s-0.8-0.5-1.3-0.5c-0.4,0-0.8,0.1-1.1,0.4
			c-0.3,0.2-0.6,0.5-0.7,0.9c-0.2,0.5-0.3,1-0.3,1.6s0.1,1.1,0.2,1.6s0.4,0.8,0.7,1.1c0.3,0.2,0.7,0.4,1.2,0.4
			c0.4,0,0.8-0.1,1.1-0.3c0.3-0.2,0.7-0.5,1.1-0.9v0.5c-0.4,0.4-0.7,0.6-1.1,0.8s-0.9,0.2-1.4,0.2c-0.7,0-1.3-0.1-1.8-0.4
			c-0.5-0.3-0.9-0.7-1.2-1.2s-0.4-1.1-0.4-1.6c0-0.6,0.2-1.2,0.5-1.8s0.8-1,1.3-1.3s1.1-0.5,1.7-0.5c0.5,0,0.9,0.1,1.4,0.3
			c0.3,0.1,0.5,0.2,0.5,0.2c0.1,0,0.2,0,0.3-0.1c0.1-0.1,0.1-0.2,0.1-0.4L116.2,110.5L116.2,110.5z"/>
		<path class="st0" d="M120.5,110.6c1,0,1.9,0.3,2.5,0.9c0.6,0.6,1,1.4,1,2.4c0,0.8-0.2,1.5-0.7,2.1c-0.6,0.8-1.5,1.2-2.7,1.2
			c-1.2,0-2-0.4-2.7-1.2c-0.5-0.6-0.8-1.4-0.8-2.2c0-1,0.3-1.8,1-2.4C118.7,110.8,119.5,110.5,120.5,110.6z M120.5,110.9
			c-0.6,0-1,0.3-1.3,0.9c-0.2,0.5-0.4,1.2-0.4,2.1c0,1.1,0.2,1.9,0.6,2.4c0.3,0.4,0.6,0.5,1.1,0.5c0.3,0,0.6-0.1,0.8-0.2
			c0.3-0.2,0.5-0.5,0.6-1c0.2-0.4,0.2-1,0.2-1.7c0-0.9-0.1-1.5-0.2-1.9s-0.4-0.7-0.6-0.9C121.1,111,120.8,110.9,120.5,110.9z"/>
		<path class="st0" d="M126.7,110.7l3.2,4v-2.8c0-0.4-0.1-0.6-0.2-0.8c-0.1-0.2-0.4-0.3-0.8-0.3v-0.2h2.1v0.2
			c-0.3,0-0.5,0.1-0.5,0.1c-0.1,0.1-0.2,0.1-0.2,0.3s-0.1,0.3-0.1,0.6v5.4H130l-4.4-5.4v4.1c0,0.4,0.1,0.6,0.2,0.8s0.4,0.2,0.6,0.2
			h0.1v0.2h-2.3v-0.2c0.4,0,0.6-0.1,0.7-0.2c0.1-0.1,0.2-0.4,0.2-0.7v-4.5l-0.1-0.2c-0.1-0.2-0.3-0.3-0.4-0.3
			c-0.1,0-0.2-0.1-0.5-0.1v-0.2L126.7,110.7L126.7,110.7z"/>
		<path class="st0" d="M135.8,110.5l0,2.1h-0.2c-0.1-0.5-0.3-1-0.7-1.3s-0.8-0.5-1.2-0.5c-0.3,0-0.6,0.1-0.8,0.3s-0.3,0.4-0.3,0.6
			c0,0.1,0,0.3,0.1,0.4c0.1,0.1,0.2,0.3,0.4,0.4c0.1,0.1,0.5,0.3,1,0.5c0.8,0.4,1.3,0.7,1.5,1c0.3,0.3,0.4,0.7,0.4,1.1
			c0,0.5-0.2,1-0.6,1.4s-1,0.6-1.6,0.6c-0.2,0-0.4,0-0.6-0.1s-0.4-0.1-0.7-0.2c-0.1-0.1-0.3-0.1-0.4-0.1c-0.1,0-0.2,0-0.3,0.1
			s-0.2,0.2-0.2,0.3h-0.2v-2.4h0.2c0.1,0.7,0.4,1.2,0.8,1.6c0.4,0.4,0.8,0.5,1.3,0.5c0.4,0,0.6-0.1,0.9-0.3s0.3-0.4,0.3-0.7
			c0-0.1,0-0.3-0.1-0.4s-0.2-0.3-0.4-0.4s-0.5-0.3-0.9-0.5c-0.6-0.3-1-0.5-1.3-0.7c-0.3-0.2-0.5-0.4-0.6-0.7
			c-0.1-0.2-0.2-0.5-0.2-0.8c0-0.5,0.2-1,0.6-1.3c0.4-0.4,0.9-0.5,1.4-0.5c0.2,0,0.4,0,0.6,0.1c0.1,0,0.3,0.1,0.5,0.2
			c0.2,0.1,0.4,0.1,0.5,0.1c0.1,0,0.1,0,0.2-0.1c0,0,0.1-0.2,0.1-0.4L135.8,110.5L135.8,110.5z"/>
		<path class="st0" d="M136.9,110.7h3.3v0.2h-0.2c-0.2,0-0.4,0-0.5,0.1s-0.2,0.1-0.2,0.2c0,0.1-0.1,0.3-0.1,0.7v3.1
			c0,0.6,0,1,0.1,1.1s0.2,0.3,0.4,0.5c0.2,0.1,0.5,0.2,0.8,0.2c0.4,0,0.6-0.1,0.9-0.2c0.2-0.2,0.4-0.4,0.5-0.6s0.2-0.8,0.2-1.4v-2.6
			c0-0.3,0-0.5-0.1-0.6c-0.1-0.1-0.1-0.2-0.2-0.3c-0.1-0.1-0.3-0.1-0.6-0.1v-0.2h2.2v0.2h-0.1c-0.2,0-0.3,0-0.5,0.1
			c-0.1,0.1-0.2,0.2-0.3,0.3c0,0.1-0.1,0.3-0.1,0.5v2.4c0,0.8,0,1.3-0.1,1.6s-0.3,0.6-0.7,0.9s-0.9,0.4-1.6,0.4
			c-0.6,0-1-0.1-1.3-0.2c-0.4-0.2-0.7-0.5-0.9-0.8s-0.3-0.7-0.3-1.3v-3.1c0-0.4,0-0.6-0.1-0.7s-0.1-0.2-0.2-0.2
			c-0.1,0-0.3-0.1-0.6-0.1L136.9,110.7L136.9,110.7z"/>
		<path class="st0" d="M149.8,114.8l-0.2,2.3h-5.7v-0.2h0.2c0.2,0,0.3,0,0.5-0.1c0.1,0,0.1-0.1,0.2-0.2c0-0.1,0-0.3,0-0.6v-4.2
			c0-0.3,0-0.5,0-0.6c0-0.1-0.1-0.1-0.2-0.2c-0.1-0.1-0.2-0.1-0.4-0.1h-0.2v-0.2h3.4v0.2H147c-0.2,0-0.3,0-0.5,0.1
			c-0.1,0-0.1,0.1-0.2,0.2c0,0.1,0,0.3,0,0.6v4.1c0,0.3,0,0.5,0.1,0.6s0.1,0.2,0.2,0.2c0.1,0,0.3,0,0.6,0h0.5c0.3,0,0.6-0.1,0.9-0.2
			s0.4-0.3,0.6-0.6c0.2-0.3,0.3-0.6,0.5-1.1L149.8,114.8L149.8,114.8z"/>
		<path class="st0" d="M155.4,110.7v1.7h-0.2c-0.1-0.4-0.2-0.7-0.3-0.9s-0.3-0.3-0.5-0.4c-0.1-0.1-0.3-0.1-0.6-0.1h-0.5v5
			c0,0.3,0,0.5,0,0.6s0.1,0.1,0.2,0.2c0.1,0.1,0.2,0.1,0.4,0.1h0.2v0.2h-3.4v-0.2h0.2c0.2,0,0.3,0,0.5-0.1c0.1,0,0.1-0.1,0.2-0.2
			c0-0.1,0-0.3,0-0.6v-5h-0.5c-0.4,0-0.8,0.1-0.9,0.3c-0.3,0.3-0.5,0.6-0.5,1.1h-0.2v-1.7L155.4,110.7L155.4,110.7z"/>
		<path class="st0" d="M159.3,110.6c1,0,1.9,0.3,2.5,0.9c0.6,0.6,1,1.4,1,2.4c0,0.8-0.2,1.5-0.7,2.1c-0.6,0.8-1.5,1.2-2.7,1.2
			c-1.2,0-2-0.4-2.7-1.2c-0.5-0.6-0.8-1.4-0.8-2.2c0-1,0.3-1.8,1-2.4C157.6,110.8,158.4,110.5,159.3,110.6z M159.4,110.9
			c-0.6,0-1,0.3-1.3,0.9c-0.2,0.5-0.4,1.2-0.4,2.1c0,1.1,0.2,1.9,0.6,2.4c0.3,0.4,0.6,0.5,1.1,0.5c0.3,0,0.6-0.1,0.8-0.2
			c0.3-0.2,0.5-0.5,0.6-1c0.2-0.4,0.2-1,0.2-1.7c0-0.9-0.1-1.5-0.2-1.9s-0.4-0.7-0.6-0.9C160,111,159.7,110.9,159.4,110.9z"/>
		<path class="st0" d="M165.7,114.2v1.8c0,0.4,0,0.6,0.1,0.7s0.1,0.2,0.2,0.2s0.3,0.1,0.6,0.1v0.2h-3.3v-0.2c0.3,0,0.5,0,0.6-0.1
			c0.1,0,0.2-0.1,0.2-0.2s0.1-0.3,0.1-0.6v-4.2c0-0.4,0-0.6-0.1-0.7s-0.1-0.2-0.2-0.2c-0.1,0-0.3-0.1-0.6-0.1v-0.2h3
			c0.8,0,1.4,0,1.7,0.2s0.6,0.3,0.9,0.6s0.3,0.6,0.3,1c0,0.5-0.2,0.9-0.5,1.2c-0.2,0.2-0.5,0.3-0.9,0.4l1.5,2.2
			c0.2,0.3,0.4,0.5,0.4,0.5c0.1,0.1,0.3,0.1,0.5,0.2v0.2h-2l-2.1-2.9L165.7,114.2L165.7,114.2z M165.7,111v2.8h0.3
			c0.4,0,0.8,0,1-0.1s0.4-0.2,0.5-0.4s0.2-0.5,0.2-0.8c0-0.5-0.1-0.9-0.3-1.1c-0.2-0.2-0.6-0.4-1.1-0.4H165.7z"/>
		<path class="st0" d="M172.8,111v2.6h0.1c0.4,0,0.7-0.1,0.9-0.4s0.3-0.6,0.4-1.1h0.2v3.4h-0.2c0-0.4-0.1-0.7-0.2-0.9
			c-0.1-0.2-0.3-0.4-0.4-0.5s-0.4-0.1-0.7-0.1v1.8c0,0.4,0,0.6,0,0.6s0.1,0.1,0.2,0.2c0.1,0,0.2,0.1,0.4,0.1h0.4
			c0.6,0,1.1-0.1,1.4-0.4c0.4-0.3,0.6-0.7,0.8-1.3h0.2l-0.3,2h-5.6v-0.2h0.2c0.2,0,0.3,0,0.5-0.1c0.1,0,0.1-0.1,0.2-0.2
			c0-0.1,0-0.3,0-0.6v-4.2c0-0.3,0-0.5,0-0.5c0-0.1-0.1-0.2-0.2-0.3c-0.1-0.1-0.3-0.1-0.5-0.1h-0.2v-0.2h5.4v1.9h-0.2
			c-0.1-0.5-0.2-0.8-0.4-1s-0.4-0.4-0.7-0.5c-0.2-0.1-0.5-0.1-1-0.1L172.8,111L172.8,111z"/>
		<path class="st0" d="M181.2,110.5l0,2.1H181c-0.1-0.5-0.3-1-0.7-1.3s-0.8-0.5-1.2-0.5c-0.3,0-0.6,0.1-0.8,0.3s-0.3,0.4-0.3,0.6
			c0,0.1,0,0.3,0.1,0.4c0.1,0.1,0.2,0.3,0.4,0.4c0.1,0.1,0.5,0.3,1,0.5c0.8,0.4,1.3,0.7,1.5,1c0.3,0.3,0.4,0.7,0.4,1.1
			c0,0.5-0.2,1-0.6,1.4s-1,0.6-1.6,0.6c-0.2,0-0.4,0-0.6-0.1s-0.4-0.1-0.7-0.2c-0.1-0.1-0.3-0.1-0.4-0.1c-0.1,0-0.2,0-0.3,0.1
			s-0.2,0.2-0.2,0.3h-0.2v-2.4h0.2c0.1,0.7,0.4,1.2,0.8,1.6c0.4,0.4,0.8,0.5,1.3,0.5c0.4,0,0.6-0.1,0.9-0.3s0.3-0.4,0.3-0.7
			c0-0.1,0-0.3-0.1-0.4s-0.2-0.3-0.4-0.4c-0.2-0.1-0.5-0.3-0.9-0.5c-0.6-0.3-1-0.5-1.3-0.7s-0.5-0.4-0.6-0.7
			c-0.1-0.2-0.2-0.5-0.2-0.8c0-0.5,0.2-1,0.6-1.3s0.9-0.5,1.4-0.5c0.2,0,0.4,0,0.6,0.1c0.1,0,0.3,0.1,0.5,0.2
			c0.2,0.1,0.4,0.1,0.5,0.1c0.1,0,0.1,0,0.2-0.1c0,0,0.1-0.2,0.1-0.4L181.2,110.5L181.2,110.5z"/>
	</g>
	<g>
		<rect y="99.2" class="st0" width="215.3" height="0.9"/>
	</g>
</g>
</svg>
