<?xml version="1.0" encoding="utf-8"?>
<!-- Generator: Adobe Illustrator 24.1.2, SVG Export Plug-In . SVG Version: 6.00 Build 0)  -->
<svg version="1.1" id="Layer_1" xmlns="http://www.w3.org/2000/svg" xmlns:xlink="http://www.w3.org/1999/xlink" x="0px" y="0px"
	 viewBox="0 0 40 40" style="enable-background:new 0 0 40 40;" xml:space="preserve">
<style type="text/css">
	.st0{fill:#3C4660;}
	.st1{fill:none;stroke:#FFFFFF;stroke-width:1.074;stroke-miterlimit:10;}
	.st2{fill:#3E4C68;}
	.st3{fill:none;stroke:#FFFFFF;stroke-width:0.537;stroke-miterlimit:10;}
</style>
<path class="st0" d="M38,20.3c0-10.1-8.2-18.4-18.4-18.4C9.5,1.9,1.3,10.2,1.3,20.3c0,10.1,8.2,18.4,18.4,18.4
	C29.8,38.7,38,30.4,38,20.3"/>
<path class="st1" d="M24.3,29.7h-9.4c-0.7,0-1.2-0.5-1.2-1.2V12.1c0-0.7,0.5-1.2,1.2-1.2h9.4c0.7,0,1.2,0.5,1.2,1.2v16.4
	C25.5,29.2,25,29.7,24.3,29.7z"/>
<line class="st1" x1="13.7" y1="14.1" x2="25.5" y2="14.1"/>
<line class="st1" x1="13.7" y1="24.9" x2="25.5" y2="24.9"/>
<path class="st2" d="M20.2,27c0-0.3-0.2-0.5-0.5-0.5c-0.3,0-0.5,0.2-0.5,0.5c0,0.3,0.2,0.5,0.5,0.5C19.9,27.5,20.2,27.3,20.2,27"/>
<path class="st3" d="M20.2,27c0-0.3-0.2-0.5-0.5-0.5c-0.3,0-0.5,0.2-0.5,0.5c0,0.3,0.2,0.5,0.5,0.5C19.9,27.5,20.2,27.3,20.2,27z"/>
</svg>
