<?xml version="1.0" encoding="utf-8"?>
<!-- Generator: Adobe Illustrator 24.1.2, SVG Export Plug-In . SVG Version: 6.00 Build 0)  -->
<svg version="1.1" id="Layer_1" xmlns="http://www.w3.org/2000/svg" xmlns:xlink="http://www.w3.org/1999/xlink" x="0px" y="0px"
	 viewBox="0 0 40 40" style="enable-background:new 0 0 40 40;" xml:space="preserve">
<style type="text/css">
	.st0{fill:#3C4660;}
	.st1{fill:none;stroke:#FFFFFF;stroke-width:1.074;stroke-miterlimit:10;}
	.st2{fill:#3E4C68;}
	.st3{fill:none;stroke:#FFFFFF;stroke-width:0.537;stroke-miterlimit:10;}
	.st4{fill:none;stroke:#FFFFFF;stroke-width:1.144;stroke-linecap:round;stroke-linejoin:round;stroke-miterlimit:10;}
	.st5{fill:#BF9985;}
	.st6{fill:none;stroke:#FFFFFF;stroke-width:1.083;stroke-miterlimit:10;}
	.st7{fill:none;stroke:#FFFFFF;stroke-width:0.542;stroke-miterlimit:10;}
</style>
<path class="st0" d="M38,20.3c0-10.1-8.2-18.4-18.4-18.4C9.5,1.9,1.3,10.2,1.3,20.3c0,10.1,8.2,18.4,18.4,18.4
	C29.8,38.7,38,30.4,38,20.3"/>
<path class="st1" d="M24.3,29.7h-9.4c-0.7,0-1.2-0.5-1.2-1.2V12.1c0-0.7,0.5-1.2,1.2-1.2h9.4c0.7,0,1.2,0.5,1.2,1.2v16.4
	C25.5,29.2,25,29.7,24.3,29.7z"/>
<line class="st1" x1="13.7" y1="14.1" x2="25.5" y2="14.1"/>
<line class="st1" x1="13.7" y1="24.9" x2="25.5" y2="24.9"/>
<path class="st2" d="M20.2,27c0-0.3-0.2-0.5-0.5-0.5c-0.3,0-0.5,0.2-0.5,0.5c0,0.3,0.2,0.5,0.5,0.5C19.9,27.5,20.2,27.3,20.2,27"/>
<path class="st3" d="M20.2,27c0-0.3-0.2-0.5-0.5-0.5c-0.3,0-0.5,0.2-0.5,0.5c0,0.3,0.2,0.5,0.5,0.5C19.9,27.5,20.2,27.3,20.2,27z"/>
<path class="st0" d="M346.2,1195.8c0-10.1-8.2-18.4-18.4-18.4c-10.1,0-18.4,8.2-18.4,18.4c0,10.1,8.2,18.4,18.4,18.4
	C338,1214.2,346.2,1206,346.2,1195.8"/>
<rect x="317.9" y="1188.1" class="st4" width="20" height="15.4"/>
<polyline class="st4" points="317.9,1188.1 328.2,1198.4 337.9,1188.1 "/>
<line class="st4" x1="317.9" y1="1203.5" x2="325.3" y2="1196.1"/>
<line class="st4" x1="337.9" y1="1203.5" x2="330.4" y2="1196.1"/>
<path class="st0" d="M38,20.3c0-10.1-8.2-18.4-18.4-18.4C9.5,1.9,1.3,10.2,1.3,20.3c0,10.1,8.2,18.4,18.4,18.4
	C29.8,38.7,38,30.4,38,20.3"/>
<rect x="9.6" y="12.6" class="st4" width="20" height="15.4"/>
<polyline class="st4" points="9.6,12.6 19.9,22.9 29.6,12.6 "/>
<line class="st4" x1="9.6" y1="28" x2="17.1" y2="20.6"/>
<line class="st4" x1="29.6" y1="28" x2="22.2" y2="20.6"/>
<path class="st5" d="M38.2,20.3c0-10.2-8.3-18.5-18.5-18.5S1.1,10.1,1.1,20.3c0,10.2,8.3,18.5,18.5,18.5S38.2,30.5,38.2,20.3"/>
<path class="st6" d="M24.4,29.8h-9.5c-0.7,0-1.2-0.5-1.2-1.2V12c0-0.7,0.5-1.2,1.2-1.2h9.5c0.7,0,1.2,0.5,1.2,1.2v16.6
	C25.6,29.2,25,29.8,24.4,29.8z"/>
<line class="st6" x1="13.7" y1="14.1" x2="25.6" y2="14.1"/>
<line class="st6" x1="13.7" y1="24.9" x2="25.6" y2="24.9"/>
<path class="st7" d="M20.2,27.1c0-0.3-0.2-0.5-0.5-0.5c-0.3,0-0.5,0.2-0.5,0.5c0,0.3,0.2,0.5,0.5,0.5C19.9,27.6,20.2,27.4,20.2,27.1
	z"/>
</svg>
