<?xml version="1.0" encoding="utf-8"?>
<!-- Generator: Adobe Illustrator 24.1.2, SVG Export Plug-In . SVG Version: 6.00 Build 0)  -->
<svg version="1.1" id="Layer_1" xmlns="http://www.w3.org/2000/svg" xmlns:xlink="http://www.w3.org/1999/xlink" x="0px" y="0px"
	 viewBox="0 0 73.3 73.3" style="enable-background:new 0 0 73.3 73.3;" xml:space="preserve">
<style type="text/css">
	.st0{fill:none;stroke:#283146;stroke-width:1.234;stroke-miterlimit:10;}
	.st1{fill:none;stroke:#283146;stroke-width:1.993;stroke-miterlimit:10;}
	.st2{fill:none;stroke:#283146;stroke-width:0.996;stroke-miterlimit:10;}
</style>
<g>
	<circle class="st0" cx="35.8" cy="36.9" r="34.5"/>
	<path class="st1" d="M44.6,54.3H27.1c-1.2,0-2.2-1-2.2-2.2V21.7c0-1.2,1-2.2,2.2-2.2h17.5c1.2,0,2.2,1,2.2,2.2v30.4
		C46.8,53.3,45.8,54.3,44.6,54.3z"/>
	<line class="st1" x1="24.9" y1="25.4" x2="46.8" y2="25.4"/>
	<line class="st1" x1="24.9" y1="45.4" x2="46.8" y2="45.4"/>
	<path class="st2" d="M36.8,49.4c0-0.6-0.4-1-1-1c-0.6,0-1,0.4-1,1c0,0.6,0.4,1,1,1C36.4,50.4,36.8,49.9,36.8,49.4z"/>
</g>
</svg>
