<?xml version="1.0" encoding="utf-8"?>
<!-- Generator: Adobe Illustrator 24.1.2, SVG Export Plug-In . SVG Version: 6.00 Build 0)  -->
<svg version="1.1" id="Layer_1" xmlns="http://www.w3.org/2000/svg" xmlns:xlink="http://www.w3.org/1999/xlink" x="0px" y="0px"
	 viewBox="0 0 71 70" style="enable-background:new 0 0 71 70;" xml:space="preserve">
<style type="text/css">
	.st0{fill:#BF9985;}
	.st1{fill:none;stroke:#FFFFFF;stroke-width:2.722;stroke-linecap:round;stroke-linejoin:round;stroke-miterlimit:10;}
	.st2{fill:#284359;}
	.st3{fill:none;stroke:#FFFFFF;stroke-width:3.933;stroke-miterlimit:10;}
</style>
<path class="st0" d="M68.3,35.1c0-18-14.6-32.7-32.7-32.7C17.6,2.4,3,17,3,35.1c0,18,14.6,32.7,32.7,32.7
	C53.7,67.7,68.3,53.1,68.3,35.1"/>
<polyline class="st1" points="22.5,36 30.7,44.1 48.8,26 "/>
<path class="st2" d="M68.3,35.1c0-18-14.6-32.7-32.7-32.7C17.6,2.4,3,17,3,35.1c0,18,14.6,32.7,32.7,32.7
	C53.7,67.7,68.3,53.1,68.3,35.1"/>
<polyline class="st3" points="22.5,36 30.7,44.1 48.8,26 "/>
</svg>
