<?xml version="1.0" encoding="utf-8"?>
<!-- Generator: Adobe Illustrator 24.1.2, SVG Export Plug-In . SVG Version: 6.00 Build 0)  -->
<svg version="1.1" id="Layer_1" xmlns="http://www.w3.org/2000/svg" xmlns:xlink="http://www.w3.org/1999/xlink" x="0px" y="0px"
	 viewBox="0 0 40 42" style="enable-background:new 0 0 40 42;" xml:space="preserve">
<style type="text/css">
	.st0{fill:#2A3249;}
</style>
<path class="st0" d="M38.2,20.2C37.9,10.9,30.3,3.5,21,3.5c-9.3,0-16.8,7.2-17.2,16.3c0,0.3,0,0.5,0,0.8c0,3.2,0.9,6.2,2.5,8.8
	l-3.1,9.2l9.5-3c2.5,1.4,5.3,2.1,8.3,2.1c9.5,0,17.2-7.6,17.2-17.1C38.2,20.5,38.2,20.3,38.2,20.2 M21,35c-2.9,0-5.7-0.9-8-2.4
	l-5.6,1.8L9.3,29c-1.7-2.4-2.8-5.3-2.8-8.4c0-0.5,0-0.9,0.1-1.4c0.7-7.3,6.9-13,14.4-13c7.6,0,13.8,5.8,14.4,13.2c0,0.4,0,0.7,0,1.1
	C35.4,28.5,28.9,35,21,35"/>
<path class="st0" d="M28.8,24.1c-0.4-0.2-2.5-1.2-2.9-1.4c-0.4-0.1-0.7-0.2-0.9,0.2c-0.3,0.4-1.1,1.4-1.3,1.6
	c-0.2,0.3-0.5,0.3-0.9,0.1c-0.4-0.2-1.8-0.7-3.4-2.1c-1.3-1.1-2.1-2.5-2.3-2.9c-0.2-0.4,0-0.6,0.2-0.9c0.2-0.2,0.4-0.5,0.6-0.7
	c0.1-0.1,0.1-0.1,0.2-0.2c0.1-0.2,0.2-0.3,0.3-0.5c0.1-0.3,0.1-0.5,0-0.7c-0.1-0.2-1-2.3-1.3-3.1c-0.4-0.8-0.7-0.7-0.9-0.7
	s-0.5,0-0.8,0c-0.3,0-0.7,0.1-1.1,0.5c-0.4,0.4-1.5,1.4-1.5,3.5c0,0.5,0.1,1,0.2,1.4c0.4,1.5,1.3,2.7,1.5,2.9
	c0.2,0.3,2.9,4.6,7.2,6.3c4.3,1.7,4.3,1.1,5.1,1c0.8-0.1,2.5-1,2.8-2c0.4-1,0.4-1.8,0.2-2C29.5,24.4,29.3,24.3,28.8,24.1"/>
</svg>
