<?xml version="1.0" encoding="utf-8"?>
<!-- Generator: Adobe Illustrator 23.1.1, SVG Export Plug-In . SVG Version: 6.00 Build 0)  -->
<svg version="1.1" id="Capa_1" xmlns="http://www.w3.org/2000/svg" xmlns:xlink="http://www.w3.org/1999/xlink" x="0px" y="0px"
	 viewBox="0 0 35.1 35" style="enable-background:new 0 0 35.1 35;" xml:space="preserve">
<style type="text/css">
	.st0{fill:#7C818F;}
</style>
<g>
	<g>
		<path class="st0" d="M35,16.6C34.8,7.4,27.2,0,17.8,0C8.6,0,1.1,7.2,0.7,16.3c0,0.2,0,0.5,0,0.8c0,3.2,0.9,6.2,2.5,8.8L0,35l9.5-3
			c2.5,1.4,5.3,2.1,8.3,2.1c9.5,0,17.2-7.6,17.2-17.1C35,16.9,35,16.8,35,16.6z M17.8,31.4c-2.9,0-5.7-0.9-8-2.4l-5.6,1.8l1.8-5.3
			c-1.7-2.4-2.8-5.3-2.8-8.4c0-0.5,0-0.9,0.1-1.4c0.7-7.3,6.9-13,14.4-13c7.6,0,13.8,5.8,14.4,13.2c0,0.4,0,0.7,0,1.1
			C32.3,25,25.8,31.4,17.8,31.4z"/>
		<path id="XMLID_25_" class="st0" d="M25.7,20.5c-0.4-0.2-2.5-1.2-2.9-1.4c-0.4-0.1-0.7-0.2-1,0.2c-0.3,0.4-1.1,1.4-1.3,1.6
			c-0.2,0.3-0.5,0.3-0.9,0.1c-0.4-0.2-1.8-0.6-3.4-2.1c-1.2-1.1-2.1-2.5-2.4-2.9c-0.2-0.4,0-0.6,0.2-0.9c0.2-0.2,0.4-0.5,0.6-0.7
			c0.1-0.1,0.1-0.1,0.1-0.2c0.1-0.1,0.2-0.3,0.3-0.5c0.1-0.3,0.1-0.5,0-0.7c-0.1-0.2-1-2.3-1.3-3.1c-0.4-0.8-0.7-0.7-1-0.7
			s-0.5,0-0.8,0s-0.7,0.1-1.1,0.5c-0.4,0.4-1.5,1.4-1.5,3.5c0,0.5,0.1,1,0.2,1.4c0.4,1.5,1.3,2.7,1.5,2.9c0.2,0.3,2.9,4.6,7.2,6.3
			c4.3,1.7,4.3,1.1,5.1,1s2.5-1,2.9-2c0.4-1,0.4-1.8,0.2-2C26.4,20.8,26.1,20.7,25.7,20.5z"/>
	</g>
</g>
</svg>
