<?xml version="1.0" encoding="utf-8"?>
<!-- Generator: Adobe Illustrator 23.1.1, SVG Export Plug-In . SVG Version: 6.00 Build 0)  -->
<svg version="1.1" id="Capa_1" xmlns="http://www.w3.org/2000/svg" xmlns:xlink="http://www.w3.org/1999/xlink" x="0px" y="0px"
	 viewBox="0 0 219.7 119.5" style="enable-background:new 0 0 219.7 119.5;" xml:space="preserve">
<style type="text/css">
	.st0{fill:#2A3249;}
</style>
<g>
	<g>
		<path class="st0" d="M7.9,79.1L8,82.8H7.7c-0.2-0.9-0.6-1.7-1.2-2.3c-0.6-0.6-1.3-0.9-2-0.9c-0.6,0-1,0.2-1.3,0.5
			c-0.3,0.3-0.5,0.6-0.5,1c0,0.2,0.1,0.5,0.2,0.7c0.2,0.3,0.4,0.5,0.8,0.8c0.3,0.2,0.9,0.5,1.8,1c1.3,0.6,2.2,1.3,2.7,1.8
			c0.5,0.6,0.7,1.2,0.7,2c0,0.9-0.4,1.7-1.1,2.4c-0.7,0.7-1.7,1-2.8,1c-0.4,0-0.7,0-1-0.1s-0.7-0.2-1.2-0.4
			c-0.3-0.1-0.5-0.2-0.7-0.2c-0.1,0-0.3,0.1-0.5,0.2c-0.2,0.1-0.3,0.3-0.4,0.5H0.9v-4.2h0.3c0.2,1.2,0.7,2.1,1.4,2.7
			s1.4,0.9,2.2,0.9c0.6,0,1.1-0.2,1.5-0.5c0.4-0.3,0.6-0.7,0.6-1.2c0-0.3-0.1-0.5-0.2-0.8c-0.1-0.2-0.4-0.5-0.6-0.7
			s-0.8-0.5-1.5-0.9c-1-0.5-1.8-0.9-2.2-1.3c-0.4-0.4-0.8-0.7-1-1.2c-0.2-0.4-0.4-0.9-0.4-1.4c0-0.9,0.3-1.7,1-2.3
			c0.7-0.6,1.5-0.9,2.5-0.9c0.4,0,0.7,0,1.1,0.1c0.3,0.1,0.6,0.2,0.9,0.4c0.4,0.2,0.6,0.3,0.8,0.3c0.1,0,0.3,0,0.3-0.1
			c0.1-0.1,0.2-0.3,0.2-0.6H7.9z"/>
		<path class="st0" d="M16.5,87.3h-4L12,88.4c-0.2,0.4-0.2,0.7-0.2,0.9c0,0.3,0.1,0.5,0.4,0.7c0.1,0.1,0.5,0.2,1.1,0.2v0.3H9.5v-0.3
			c0.4-0.1,0.7-0.2,1-0.5c0.3-0.3,0.6-0.8,1-1.7l4-9h0.2l4,9.2c0.4,0.9,0.7,1.4,1,1.6c0.2,0.2,0.5,0.3,0.8,0.3v0.3H16v-0.3h0.2
			c0.4,0,0.7-0.1,0.9-0.2c0.1-0.1,0.2-0.2,0.2-0.4c0-0.1,0-0.2,0-0.3c0,0-0.1-0.3-0.2-0.6L16.5,87.3z M16.2,86.7l-1.7-3.9l-1.7,3.9
			H16.2z"/>
		<path class="st0" d="M32.3,86.6l-0.4,3.9H22v-0.3h0.4c0.3,0,0.6-0.1,0.8-0.2c0.1-0.1,0.3-0.2,0.3-0.4c0.1-0.1,0.1-0.5,0.1-1v-7.4
			c0-0.6,0-0.9-0.1-1.1s-0.2-0.3-0.4-0.4c-0.2-0.1-0.4-0.2-0.7-0.2H22v-0.3h6v0.3h-0.5c-0.3,0-0.6,0.1-0.8,0.2
			c-0.1,0.1-0.3,0.2-0.3,0.4c-0.1,0.1-0.1,0.5-0.1,1v7.2c0,0.6,0,0.9,0.1,1.1c0.1,0.2,0.2,0.3,0.4,0.4c0.1,0,0.5,0.1,1,0.1h0.9
			c0.6,0,1.1-0.1,1.5-0.3c0.4-0.2,0.7-0.5,1-1c0.3-0.5,0.6-1.1,0.8-2H32.3z"/>
		<path class="st0" d="M43.5,79.3v0.3c-0.4,0.1-0.8,0.3-1.1,0.7c-0.2,0.3-0.6,0.9-1,1.9l-3.9,8.6h-0.3l-3.8-8.9
			c-0.5-1.1-0.8-1.7-0.9-1.9s-0.5-0.3-0.9-0.4v-0.3h5.4v0.3h-0.2c-0.5,0-0.8,0.1-1,0.2c-0.1,0.1-0.2,0.2-0.2,0.4
			c0,0.1,0,0.2,0.1,0.4c0,0.1,0.2,0.5,0.4,1.1l2.4,5.6l2.2-5c0.3-0.6,0.4-1,0.5-1.2c0.1-0.2,0.1-0.4,0.1-0.5c0-0.2,0-0.3-0.1-0.4
			c-0.1-0.1-0.2-0.2-0.4-0.3c-0.2-0.1-0.6-0.1-0.9-0.1v-0.3H43.5z"/>
		<path class="st0" d="M48.5,87.3h-4l-0.5,1.1c-0.2,0.4-0.2,0.7-0.2,0.9c0,0.3,0.1,0.5,0.4,0.7c0.1,0.1,0.5,0.2,1.1,0.2v0.3h-3.7
			v-0.3c0.4-0.1,0.7-0.2,1-0.5c0.3-0.3,0.6-0.8,1-1.7l4-9h0.2l4,9.2c0.4,0.9,0.7,1.4,1,1.6c0.2,0.2,0.5,0.3,0.8,0.3v0.3h-5.4v-0.3
			h0.2c0.4,0,0.7-0.1,0.9-0.2c0.1-0.1,0.2-0.2,0.2-0.4c0-0.1,0-0.2,0-0.3c0,0-0.1-0.3-0.2-0.6L48.5,87.3z M48.2,86.7l-1.7-3.9
			l-1.7,3.9H48.2z"/>
		<path class="st0" d="M53.9,90.5v-0.3h0.4c0.3,0,0.6-0.1,0.7-0.2c0.2-0.1,0.3-0.2,0.4-0.4c0-0.1,0.1-0.5,0.1-1v-7.4
			c0-0.6,0-0.9-0.1-1.1c-0.1-0.1-0.2-0.3-0.4-0.4c-0.2-0.1-0.4-0.2-0.7-0.2h-0.4v-0.3h5c1.3,0,2.4,0.2,3.2,0.5c1,0.4,1.8,1.1,2.3,2
			c0.5,0.9,0.8,1.9,0.8,3.1c0,0.8-0.1,1.5-0.4,2.2s-0.6,1.2-1,1.6c-0.4,0.4-0.9,0.8-1.4,1c-0.5,0.3-1.2,0.5-1.9,0.6
			c-0.3,0.1-0.9,0.1-1.6,0.1H53.9z M58.2,80v8.8c0,0.5,0,0.7,0.1,0.9c0,0.1,0.1,0.2,0.2,0.2c0.1,0.1,0.4,0.1,0.6,0.1
			c0.9,0,1.6-0.3,2.1-0.9c0.7-0.9,1-2.2,1-4c0-1.4-0.2-2.6-0.7-3.5c-0.4-0.7-0.8-1.1-1.4-1.4C59.8,80,59.1,79.9,58.2,80z"/>
		<path class="st0" d="M72.5,79.2c1.8-0.1,3.2,0.5,4.4,1.6c1.1,1.1,1.7,2.5,1.7,4.2c0,1.4-0.4,2.7-1.2,3.8c-1.1,1.4-2.7,2.2-4.7,2.2
			c-2,0-3.6-0.7-4.7-2.1c-0.9-1.1-1.3-2.4-1.3-3.8c0-1.7,0.6-3.1,1.7-4.2C69.4,79.6,70.8,79.1,72.5,79.2z M72.6,79.7
			c-1,0-1.8,0.5-2.3,1.6c-0.4,0.9-0.7,2.1-0.7,3.7c0,1.9,0.3,3.3,1,4.2c0.5,0.6,1.1,1,2,1c0.6,0,1-0.1,1.4-0.4
			c0.5-0.4,0.9-0.9,1.1-1.7s0.4-1.8,0.4-3c0-1.5-0.1-2.6-0.4-3.3c-0.3-0.7-0.6-1.3-1.1-1.6C73.6,79.8,73.1,79.7,72.6,79.7z"/>
		<path class="st0" d="M83.6,85.4v3.1c0,0.6,0,1,0.1,1.1c0.1,0.2,0.2,0.3,0.4,0.4s0.5,0.1,1.1,0.1v0.3h-5.7v-0.3
			c0.5,0,0.9,0,1.1-0.1c0.2-0.1,0.3-0.2,0.4-0.4c0.1-0.2,0.1-0.5,0.1-1.1v-7.3c0-0.6,0-1-0.1-1.1s-0.2-0.3-0.4-0.4
			c-0.2-0.1-0.5-0.1-1.1-0.1v-0.3h5.2c1.4,0,2.4,0.1,3,0.3s1.1,0.5,1.5,1c0.4,0.5,0.6,1.1,0.6,1.8c0,0.8-0.3,1.5-0.9,2.1
			c-0.4,0.3-0.9,0.6-1.6,0.8L90,89c0.4,0.5,0.6,0.8,0.8,0.9c0.2,0.2,0.5,0.3,0.8,0.3v0.3H88l-3.6-5.1H83.6z M83.6,79.9v4.9h0.5
			c0.8,0,1.3-0.1,1.7-0.2s0.7-0.4,0.9-0.8c0.2-0.4,0.3-0.8,0.3-1.4c0-0.9-0.2-1.5-0.6-1.9c-0.4-0.4-1-0.6-1.9-0.6H83.6z"/>
		<path class="st0" d="M100.1,85.4v3.1c0,0.6,0,1,0.1,1.1c0.1,0.2,0.2,0.3,0.4,0.4s0.5,0.1,1.1,0.1v0.3h-5.7v-0.3
			c0.5,0,0.9,0,1.1-0.1c0.2-0.1,0.3-0.2,0.4-0.4c0.1-0.2,0.1-0.5,0.1-1.1v-7.3c0-0.6,0-1-0.1-1.1s-0.2-0.3-0.4-0.4
			c-0.2-0.1-0.5-0.1-1.1-0.1v-0.3h5.2c1.4,0,2.4,0.1,3,0.3s1.1,0.5,1.5,1c0.4,0.5,0.6,1.1,0.6,1.8c0,0.8-0.3,1.5-0.9,2.1
			c-0.4,0.3-0.9,0.6-1.6,0.8l2.7,3.8c0.4,0.5,0.6,0.8,0.8,0.9c0.2,0.2,0.5,0.3,0.8,0.3v0.3h-3.5l-3.6-5.1H100.1z M100.1,79.9v4.9
			h0.5c0.8,0,1.3-0.1,1.7-0.2s0.7-0.4,0.9-0.8c0.2-0.4,0.3-0.8,0.3-1.4c0-0.9-0.2-1.5-0.6-1.9c-0.4-0.4-1-0.6-1.9-0.6H100.1z"/>
		<path class="st0" d="M108.2,79.3h5.8v0.3h-0.3c-0.4,0-0.7,0-0.9,0.1c-0.2,0.1-0.3,0.2-0.3,0.4c-0.1,0.2-0.1,0.6-0.1,1.2v5.5
			c0,1,0.1,1.7,0.2,2c0.2,0.3,0.4,0.6,0.7,0.8c0.3,0.2,0.8,0.3,1.3,0.3c0.6,0,1.1-0.1,1.6-0.4c0.4-0.3,0.7-0.6,1-1.1
			c0.2-0.5,0.3-1.3,0.3-2.5v-4.6c0-0.5-0.1-0.9-0.2-1.1c-0.1-0.2-0.2-0.4-0.4-0.4c-0.2-0.1-0.6-0.2-1.1-0.2v-0.3h3.9v0.3h-0.2
			c-0.3,0-0.6,0.1-0.8,0.2s-0.4,0.3-0.5,0.6c-0.1,0.2-0.1,0.5-0.1,1v4.3c0,1.3-0.1,2.3-0.3,2.9c-0.2,0.6-0.6,1.1-1.3,1.6
			c-0.7,0.5-1.6,0.7-2.8,0.7c-1,0-1.7-0.1-2.3-0.4c-0.7-0.4-1.2-0.8-1.5-1.4s-0.4-1.3-0.4-2.2v-5.5c0-0.6,0-1-0.1-1.2
			c-0.1-0.2-0.2-0.3-0.4-0.4c-0.2-0.1-0.5-0.1-1-0.1V79.3z"/>
		<path class="st0" d="M131.8,79.1v4h-0.3c-0.4-1.1-0.9-1.9-1.7-2.5c-0.7-0.6-1.5-0.8-2.4-0.8c-0.8,0-1.5,0.2-2.1,0.7
			c-0.6,0.5-1,1.1-1.2,2s-0.3,1.7-0.3,2.6c0,1.1,0.1,2,0.4,2.8c0.3,0.8,0.7,1.4,1.2,1.8c0.6,0.4,1.2,0.6,2,0.6c0.3,0,0.5,0,0.8-0.1
			c0.3-0.1,0.6-0.1,0.9-0.3v-2.3c0-0.4,0-0.7-0.1-0.9c-0.1-0.1-0.2-0.2-0.4-0.4c-0.2-0.1-0.4-0.2-0.7-0.2h-0.3v-0.3h5.5v0.3
			c-0.4,0-0.7,0.1-0.9,0.2c-0.2,0.1-0.3,0.2-0.4,0.4c0,0.1-0.1,0.4-0.1,0.8v2.3c-0.7,0.3-1.5,0.6-2.2,0.7c-0.8,0.2-1.6,0.2-2.4,0.2
			c-1.1,0-1.9-0.1-2.7-0.4c-0.7-0.3-1.3-0.7-1.9-1.1s-1-1-1.3-1.6c-0.4-0.8-0.6-1.6-0.6-2.6c0-1.7,0.6-3.1,1.8-4.3
			c1.2-1.2,2.7-1.7,4.5-1.7c0.6,0,1.1,0,1.5,0.1c0.2,0,0.6,0.2,1.2,0.4s0.9,0.3,1,0.3c0.2,0,0.3-0.1,0.4-0.2s0.3-0.3,0.4-0.6H131.8z
			"/>
		<path class="st0" d="M145,79.1v4h-0.3c-0.4-1.1-0.9-1.9-1.7-2.5c-0.7-0.6-1.5-0.8-2.4-0.8c-0.8,0-1.5,0.2-2.1,0.7
			c-0.6,0.5-1,1.1-1.2,2s-0.3,1.7-0.3,2.6c0,1.1,0.1,2,0.4,2.8c0.3,0.8,0.7,1.4,1.2,1.8c0.6,0.4,1.2,0.6,2,0.6c0.3,0,0.5,0,0.8-0.1
			c0.3-0.1,0.6-0.1,0.9-0.3v-2.3c0-0.4,0-0.7-0.1-0.9c-0.1-0.1-0.2-0.2-0.4-0.4c-0.2-0.1-0.4-0.2-0.7-0.2h-0.3v-0.3h5.5v0.3
			c-0.4,0-0.7,0.1-0.9,0.2c-0.2,0.1-0.3,0.2-0.4,0.4c0,0.1-0.1,0.4-0.1,0.8v2.3c-0.7,0.3-1.5,0.6-2.2,0.7s-1.6,0.2-2.4,0.2
			c-1.1,0-1.9-0.1-2.7-0.4c-0.7-0.3-1.3-0.7-1.9-1.1c-0.5-0.5-1-1-1.3-1.6c-0.4-0.8-0.6-1.6-0.6-2.6c0-1.7,0.6-3.1,1.8-4.3
			c1.2-1.2,2.7-1.7,4.5-1.7c0.6,0,1.1,0,1.5,0.1c0.2,0,0.6,0.2,1.2,0.4s0.9,0.3,1,0.3c0.2,0,0.3-0.1,0.4-0.2s0.3-0.3,0.4-0.6H145z"
			/>
		<path class="st0" d="M151.1,80v4.6h0.2c0.7,0,1.2-0.2,1.5-0.7c0.3-0.4,0.5-1.1,0.6-2h0.3v5.9h-0.3c-0.1-0.6-0.2-1.2-0.4-1.6
			s-0.5-0.7-0.7-0.8s-0.7-0.2-1.2-0.2v3.2c0,0.6,0,1,0.1,1.1s0.2,0.3,0.3,0.3c0.1,0.1,0.4,0.1,0.7,0.1h0.7c1,0,1.9-0.2,2.5-0.7
			c0.6-0.5,1.1-1.2,1.4-2.2h0.3l-0.5,3.6h-9.7v-0.3h0.4c0.3,0,0.6-0.1,0.8-0.2c0.1-0.1,0.3-0.2,0.3-0.4c0.1-0.1,0.1-0.5,0.1-1v-7.4
			c0-0.5,0-0.8,0-0.9c-0.1-0.2-0.2-0.3-0.3-0.4c-0.2-0.2-0.5-0.2-0.9-0.2h-0.4v-0.3h9.4v3.3h-0.3c-0.2-0.8-0.4-1.4-0.7-1.7
			s-0.7-0.6-1.2-0.8c-0.3-0.1-0.9-0.1-1.7-0.1H151.1z"/>
		<path class="st0" d="M162.3,85.4v3.1c0,0.6,0,1,0.1,1.1s0.2,0.3,0.4,0.4s0.5,0.1,1.1,0.1v0.3h-5.7v-0.3c0.5,0,0.9,0,1.1-0.1
			c0.2-0.1,0.3-0.2,0.4-0.4c0.1-0.2,0.1-0.5,0.1-1.1v-7.3c0-0.6,0-1-0.1-1.1c-0.1-0.2-0.2-0.3-0.4-0.4c-0.2-0.1-0.5-0.1-1.1-0.1
			v-0.3h5.2c1.4,0,2.4,0.1,3,0.3s1.1,0.5,1.5,1c0.4,0.5,0.6,1.1,0.6,1.8c0,0.8-0.3,1.5-0.9,2.1c-0.4,0.3-0.9,0.6-1.6,0.8l2.7,3.8
			c0.4,0.5,0.6,0.8,0.8,0.9c0.2,0.2,0.5,0.3,0.8,0.3v0.3h-3.5l-3.6-5.1H162.3z M162.3,79.9v4.9h0.5c0.8,0,1.3-0.1,1.7-0.2
			s0.7-0.4,0.9-0.8c0.2-0.4,0.3-0.8,0.3-1.4c0-0.9-0.2-1.5-0.6-1.9c-0.4-0.4-1-0.6-1.9-0.6H162.3z"/>
		<path class="st0" d="M176.2,90.2v0.3h-5.9v-0.3h0.4c0.3,0,0.6-0.1,0.8-0.2c0.1-0.1,0.3-0.2,0.3-0.4c0.1-0.1,0.1-0.5,0.1-1v-7.4
			c0-0.6,0-0.9-0.1-1.1s-0.2-0.3-0.4-0.4c-0.2-0.1-0.4-0.2-0.7-0.2h-0.4v-0.3h5.9v0.3h-0.4c-0.3,0-0.6,0.1-0.8,0.2
			c-0.1,0.1-0.3,0.2-0.3,0.4c-0.1,0.1-0.1,0.5-0.1,1v7.4c0,0.6,0,0.9,0.1,1.1c0.1,0.1,0.2,0.3,0.4,0.4s0.4,0.2,0.7,0.2H176.2z"/>
	</g>
	<g>
		<path class="st0" d="M103.1,0l0.3,13.8h-1.2c-0.6-3.5-2-6.2-4.3-8.3c-2.3-2.1-4.8-3.2-7.5-3.2c-2.1,0-3.7,0.6-4.9,1.7
			s-1.8,2.4-1.8,3.8c0,0.9,0.2,1.7,0.6,2.4c0.6,1,1.5,1.9,2.8,2.8c1,0.7,3.2,1.9,6.6,3.6c4.8,2.4,8.1,4.6,9.8,6.7
			c1.7,2.1,2.5,4.5,2.5,7.3c0,3.5-1.3,6.4-4,8.9c-2.7,2.5-6.1,3.7-10.3,3.7c-1.3,0-2.5-0.1-3.7-0.4c-1.2-0.3-2.6-0.8-4.4-1.5
			c-1-0.4-1.8-0.6-2.4-0.6c-0.5,0-1.1,0.2-1.7,0.6c-0.6,0.4-1.1,1-1.4,1.9H77V27.6h1.1c0.9,4.4,2.6,7.7,5.2,10s5.3,3.5,8.2,3.5
			c2.3,0,4.1-0.6,5.4-1.9c1.4-1.2,2-2.7,2-4.3c0-1-0.3-1.9-0.8-2.8c-0.5-0.9-1.3-1.8-2.4-2.6c-1.1-0.8-2.9-1.9-5.6-3.2
			c-3.8-1.8-6.5-3.4-8.1-4.7c-1.6-1.3-2.9-2.8-3.8-4.4c-0.9-1.6-1.3-3.4-1.3-5.3c0-3.3,1.2-6.1,3.6-8.4S86.1,0,89.8,0
			c1.3,0,2.6,0.2,3.9,0.5c1,0.2,2.1,0.7,3.5,1.4c1.4,0.7,2.3,1,2.9,1c0.5,0,0.9-0.2,1.2-0.5c0.3-0.3,0.6-1.1,0.9-2.3H103.1z"/>
	</g>
	<g>
		<path class="st0" d="M113.4,37.2v11.6c0,2.2,0.1,3.6,0.4,4.2c0.3,0.6,0.8,1,1.4,1.4c0.7,0.3,2,0.5,3.9,0.5V56H98v-1.1
			c1.9,0,3.2-0.2,3.9-0.5c0.7-0.4,1.2-0.8,1.4-1.4c0.3-0.6,0.4-2,0.4-4.2V21.9c0-2.2-0.1-3.6-0.4-4.2c-0.3-0.6-0.8-1-1.4-1.4
			c-0.7-0.3-2-0.5-3.9-0.5v-1.1h19.2c5,0,8.6,0.3,11,1c2.3,0.7,4.2,2,5.7,3.8c1.5,1.9,2.2,4,2.2,6.5c0,3-1.1,5.6-3.3,7.6
			c-1.4,1.3-3.4,2.2-5.9,2.8l9.9,14c1.3,1.8,2.2,2.9,2.8,3.4c0.8,0.6,1.8,1,2.9,1V56h-13l-13.3-18.8H113.4z M113.4,16.9V35h1.7
			c2.8,0,4.9-0.3,6.3-0.8c1.4-0.5,2.5-1.5,3.3-2.8c0.8-1.4,1.2-3.1,1.2-5.3c0-3.1-0.7-5.5-2.2-7s-3.8-2.3-7.1-2.3H113.4z"/>
	</g>
	<g>
		<path class="st0" d="M186.7,86.9h1.9v0.2c-0.2,0-0.4,0.1-0.5,0.2c-0.1,0.1-0.3,0.3-0.5,0.7c-0.2,0.4-0.5,0.8-0.8,1.2
			c0.3,0.3,0.6,0.5,0.8,0.6c0.1,0.1,0.3,0.1,0.4,0.1c0.2,0,0.4-0.2,0.6-0.5l0.2,0.1c-0.3,0.5-0.5,0.9-0.8,1.1
			c-0.2,0.2-0.5,0.2-0.8,0.2c-0.2,0-0.5-0.1-0.7-0.2c-0.2-0.1-0.5-0.3-0.8-0.6c-0.4,0.3-0.8,0.5-1.1,0.6s-0.7,0.2-1.1,0.2
			c-0.6,0-1.1-0.2-1.4-0.5c-0.3-0.3-0.5-0.7-0.5-1.1c0-0.5,0.2-0.9,0.5-1.2s0.8-0.6,1.5-0.9c-0.1-0.2-0.1-0.4-0.2-0.6
			c0-0.2-0.1-0.4-0.1-0.6c0-0.5,0.2-0.9,0.5-1.2c0.4-0.3,0.8-0.5,1.3-0.5c0.4,0,0.8,0.1,1,0.3c0.3,0.2,0.4,0.5,0.4,0.8
			c0,0.4-0.1,0.7-0.4,0.9s-0.7,0.5-1.3,0.7c0.4,0.6,0.9,1.3,1.5,2c0.5-0.5,0.7-1,0.7-1.3c0-0.1,0-0.2-0.1-0.3
			c-0.1-0.1-0.2-0.1-0.4-0.2V86.9z M183.7,87.4c-0.2,0.1-0.4,0.2-0.5,0.3c-0.1,0.2-0.2,0.4-0.2,0.6c0,0.3,0.1,0.6,0.3,0.9
			s0.4,0.5,0.6,0.7s0.5,0.2,0.7,0.2c0.1,0,0.3,0,0.4-0.1c0.1-0.1,0.3-0.1,0.5-0.2C184.7,89.1,184.1,88.3,183.7,87.4z M184.8,86.6
			c0.3-0.1,0.5-0.3,0.7-0.4s0.2-0.3,0.2-0.5c0-0.3-0.1-0.6-0.3-0.9c-0.1-0.2-0.3-0.2-0.4-0.2c-0.1,0-0.3,0.1-0.4,0.2
			c-0.1,0.1-0.2,0.3-0.2,0.5c0,0.2,0,0.3,0.1,0.5S184.6,86.2,184.8,86.6z"/>
		<path class="st0" d="M195,88.9h-2.2l-0.3,0.6c-0.1,0.2-0.1,0.4-0.1,0.5c0,0.2,0.1,0.3,0.2,0.4c0.1,0.1,0.3,0.1,0.6,0.1v0.2h-2.1
			v-0.2c0.2,0,0.4-0.1,0.6-0.3c0.1-0.2,0.3-0.5,0.5-1l2.3-5.1h0.1l2.3,5.2c0.2,0.5,0.4,0.8,0.5,0.9c0.1,0.1,0.3,0.2,0.4,0.2v0.2
			h-3.1v-0.2h0.1c0.2,0,0.4,0,0.5-0.1c0.1,0,0.1-0.1,0.1-0.2c0-0.1,0-0.1,0-0.2c0,0-0.1-0.1-0.1-0.4L195,88.9z M194.9,88.6l-0.9-2.2
			l-1,2.2H194.9z"/>
		<path class="st0" d="M202.5,84.2l0.1,2.1h-0.2c-0.1-0.5-0.3-1-0.7-1.3c-0.4-0.3-0.7-0.5-1.1-0.5c-0.3,0-0.6,0.1-0.8,0.3
			c-0.2,0.2-0.3,0.4-0.3,0.6c0,0.1,0,0.3,0.1,0.4c0.1,0.1,0.2,0.3,0.4,0.4c0.1,0.1,0.5,0.3,1,0.5c0.7,0.4,1.2,0.7,1.5,1
			c0.3,0.3,0.4,0.7,0.4,1.1c0,0.5-0.2,1-0.6,1.4c-0.4,0.4-0.9,0.6-1.6,0.6c-0.2,0-0.4,0-0.6-0.1s-0.4-0.1-0.7-0.2
			c-0.1-0.1-0.3-0.1-0.4-0.1c-0.1,0-0.2,0-0.3,0.1c-0.1,0.1-0.2,0.2-0.2,0.3h-0.2v-2.4h0.2c0.1,0.7,0.4,1.2,0.8,1.5s0.8,0.5,1.3,0.5
			c0.3,0,0.6-0.1,0.8-0.3c0.2-0.2,0.3-0.4,0.3-0.7c0-0.2,0-0.3-0.1-0.4c-0.1-0.1-0.2-0.3-0.4-0.4c-0.2-0.1-0.4-0.3-0.9-0.5
			c-0.6-0.3-1-0.5-1.2-0.7c-0.3-0.2-0.4-0.4-0.6-0.7c-0.1-0.2-0.2-0.5-0.2-0.8c0-0.5,0.2-0.9,0.6-1.3c0.4-0.4,0.8-0.5,1.4-0.5
			c0.2,0,0.4,0,0.6,0.1c0.1,0,0.3,0.1,0.5,0.2c0.2,0.1,0.4,0.2,0.4,0.2c0.1,0,0.1,0,0.2-0.1s0.1-0.2,0.1-0.4H202.5z"/>
		<path class="st0" d="M207,84.3c1,0,1.8,0.3,2.5,0.9c0.6,0.6,0.9,1.4,0.9,2.4c0,0.8-0.2,1.5-0.7,2.1c-0.6,0.8-1.5,1.2-2.6,1.2
			c-1.1,0-2-0.4-2.7-1.2c-0.5-0.6-0.7-1.3-0.7-2.2c0-0.9,0.3-1.7,1-2.4C205.3,84.5,206.1,84.2,207,84.3z M207.1,84.6
			c-0.6,0-1,0.3-1.3,0.9c-0.2,0.5-0.4,1.2-0.4,2.1c0,1.1,0.2,1.9,0.6,2.4c0.3,0.4,0.6,0.5,1.1,0.5c0.3,0,0.6-0.1,0.8-0.2
			c0.3-0.2,0.5-0.5,0.6-1s0.2-1,0.2-1.7c0-0.8-0.1-1.5-0.2-1.9c-0.2-0.4-0.4-0.7-0.6-0.9C207.7,84.7,207.4,84.6,207.1,84.6z"/>
		<path class="st0" d="M217.2,84.2v2.2H217c-0.1-0.6-0.4-1-0.8-1.3s-0.8-0.5-1.3-0.5c-0.4,0-0.8,0.1-1.1,0.3
			c-0.3,0.2-0.6,0.5-0.7,0.9c-0.2,0.5-0.3,1-0.3,1.6c0,0.6,0.1,1.1,0.2,1.6c0.1,0.5,0.4,0.8,0.7,1.1c0.3,0.2,0.7,0.4,1.2,0.4
			c0.4,0,0.8-0.1,1.1-0.3c0.3-0.2,0.7-0.5,1.1-0.9v0.5c-0.4,0.4-0.7,0.6-1.1,0.8c-0.4,0.2-0.8,0.3-1.4,0.3c-0.7,0-1.3-0.1-1.8-0.4
			c-0.5-0.3-0.9-0.7-1.2-1.2c-0.3-0.5-0.4-1-0.4-1.6c0-0.6,0.2-1.2,0.5-1.7s0.7-1,1.3-1.3c0.5-0.3,1.1-0.4,1.7-0.4
			c0.4,0,0.9,0.1,1.4,0.3c0.3,0.1,0.5,0.2,0.5,0.2c0.1,0,0.2,0,0.3-0.1s0.1-0.2,0.1-0.3H217.2z"/>
		<path class="st0" d="M218.9,89.3c0.2,0,0.4,0.1,0.6,0.2c0.2,0.2,0.2,0.3,0.2,0.6c0,0.2-0.1,0.4-0.2,0.5c-0.2,0.2-0.3,0.2-0.6,0.2
			c-0.2,0-0.4-0.1-0.6-0.2c-0.2-0.2-0.2-0.3-0.2-0.5c0-0.2,0.1-0.4,0.2-0.6C218.5,89.4,218.7,89.3,218.9,89.3z"/>
	</g>
	<g>
		<path class="st0" d="M45.9,117.5h-2.3l-0.3,0.6c-0.1,0.2-0.1,0.4-0.1,0.5c0,0.2,0.1,0.3,0.2,0.4c0.1,0.1,0.3,0.1,0.6,0.1v0.2h-2.2
			v-0.2c0.2,0,0.4-0.1,0.6-0.3c0.2-0.2,0.3-0.5,0.6-1l2.3-5.2h0.1l2.4,5.4c0.2,0.5,0.4,0.8,0.6,1c0.1,0.1,0.3,0.2,0.5,0.2v0.2h-3.2
			v-0.2h0.1c0.3,0,0.4,0,0.5-0.1c0.1-0.1,0.1-0.1,0.1-0.2c0-0.1,0-0.1,0-0.2c0,0-0.1-0.2-0.1-0.4L45.9,117.5z M45.7,117.1l-1-2.3
			l-1,2.3H45.7z"/>
		<path class="st0" d="M49.2,112.8h3.4v0.2h-0.2c-0.3,0-0.4,0-0.5,0.1s-0.2,0.1-0.2,0.2c0,0.1-0.1,0.3-0.1,0.7v3.2
			c0,0.6,0,1,0.1,1.2c0.1,0.2,0.2,0.3,0.4,0.5c0.2,0.1,0.5,0.2,0.8,0.2c0.4,0,0.7-0.1,0.9-0.2c0.2-0.2,0.4-0.4,0.6-0.7
			c0.1-0.3,0.2-0.8,0.2-1.5V114c0-0.3,0-0.5-0.1-0.6c-0.1-0.1-0.1-0.2-0.2-0.3c-0.1-0.1-0.3-0.1-0.6-0.1v-0.2h2.3v0.2h-0.1
			c-0.2,0-0.3,0-0.5,0.1s-0.2,0.2-0.3,0.3c0,0.1-0.1,0.3-0.1,0.6v2.5c0,0.8-0.1,1.3-0.2,1.7c-0.1,0.3-0.3,0.7-0.7,0.9
			c-0.4,0.3-0.9,0.4-1.6,0.4c-0.6,0-1-0.1-1.3-0.2c-0.4-0.2-0.7-0.5-0.9-0.8c-0.2-0.3-0.3-0.8-0.3-1.3V114c0-0.4,0-0.6-0.1-0.7
			s-0.1-0.2-0.2-0.2c-0.1-0.1-0.3-0.1-0.6-0.1V112.8z"/>
		<path class="st0" d="M56.2,119.4v-0.2h0.2c0.2,0,0.3,0,0.4-0.1s0.2-0.1,0.2-0.2c0-0.1,0-0.3,0-0.6v-4.3c0-0.3,0-0.5-0.1-0.6
			c0-0.1-0.1-0.2-0.2-0.2s-0.3-0.1-0.4-0.1h-0.2v-0.2h2.9c0.8,0,1.4,0.1,1.9,0.3c0.6,0.3,1,0.7,1.3,1.2c0.3,0.5,0.5,1.1,0.5,1.8
			c0,0.5-0.1,0.9-0.2,1.3c-0.1,0.4-0.3,0.7-0.6,1c-0.2,0.3-0.5,0.5-0.8,0.6c-0.3,0.2-0.7,0.3-1.1,0.4c-0.2,0-0.5,0.1-0.9,0.1H56.2z
			 M58.7,113.2v5.1c0,0.3,0,0.4,0,0.5s0.1,0.1,0.1,0.1c0.1,0,0.2,0.1,0.4,0.1c0.5,0,0.9-0.2,1.2-0.6c0.4-0.5,0.6-1.3,0.6-2.3
			c0-0.8-0.1-1.5-0.4-2c-0.2-0.4-0.5-0.7-0.8-0.8C59.6,113.2,59.2,113.2,58.7,113.2z"/>
		<path class="st0" d="M66.8,119.2v0.2h-3.4v-0.2h0.2c0.2,0,0.3,0,0.5-0.1c0.1,0,0.1-0.1,0.2-0.2c0-0.1,0.1-0.3,0.1-0.6v-4.3
			c0-0.3,0-0.5-0.1-0.6s-0.1-0.2-0.2-0.2c-0.1-0.1-0.3-0.1-0.4-0.1h-0.2v-0.2h3.4v0.2h-0.2c-0.2,0-0.3,0-0.5,0.1
			c-0.1,0-0.1,0.1-0.2,0.2c0,0.1-0.1,0.3-0.1,0.6v4.3c0,0.3,0,0.5,0.1,0.6c0,0.1,0.1,0.2,0.2,0.2c0.1,0.1,0.3,0.1,0.4,0.1H66.8z"/>
		<path class="st0" d="M73.3,112.8v1.8h-0.2c-0.1-0.4-0.2-0.7-0.3-0.9c-0.1-0.2-0.3-0.3-0.5-0.4c-0.1-0.1-0.3-0.1-0.6-0.1h-0.5v5.1
			c0,0.3,0,0.5,0.1,0.6s0.1,0.2,0.2,0.2c0.1,0.1,0.3,0.1,0.4,0.1h0.2v0.2h-3.4v-0.2h0.2c0.2,0,0.3,0,0.5-0.1c0.1,0,0.1-0.1,0.2-0.2
			c0-0.1,0.1-0.3,0.1-0.6v-5.1h-0.5c-0.4,0-0.8,0.1-1,0.3c-0.3,0.3-0.5,0.6-0.5,1.1h-0.2v-1.8H73.3z"/>
		<path class="st0" d="M77.3,112.7c1,0,1.9,0.3,2.5,0.9c0.7,0.6,1,1.5,1,2.4c0,0.8-0.2,1.6-0.7,2.2c-0.6,0.8-1.6,1.3-2.7,1.3
			c-1.2,0-2.1-0.4-2.7-1.2c-0.5-0.6-0.8-1.4-0.8-2.2c0-1,0.3-1.8,1-2.4C75.5,113,76.4,112.7,77.3,112.7z M77.4,113
			c-0.6,0-1.1,0.3-1.4,0.9c-0.3,0.5-0.4,1.2-0.4,2.2c0,1.1,0.2,1.9,0.6,2.5c0.3,0.4,0.7,0.6,1.2,0.6c0.3,0,0.6-0.1,0.8-0.2
			c0.3-0.2,0.5-0.5,0.7-1c0.2-0.5,0.2-1,0.2-1.8c0-0.9-0.1-1.5-0.2-1.9c-0.2-0.4-0.4-0.7-0.6-0.9C78,113.1,77.7,113,77.4,113z"/>
		<path class="st0" d="M83.8,116.4v1.8c0,0.4,0,0.6,0.1,0.7s0.1,0.2,0.2,0.2s0.3,0.1,0.6,0.1v0.2h-3.4v-0.2c0.3,0,0.5,0,0.6-0.1
			c0.1-0.1,0.2-0.1,0.2-0.2s0.1-0.3,0.1-0.7V114c0-0.4,0-0.6-0.1-0.7s-0.1-0.2-0.2-0.2c-0.1-0.1-0.3-0.1-0.6-0.1v-0.2h3
			c0.8,0,1.4,0.1,1.7,0.2c0.4,0.1,0.7,0.3,0.9,0.6s0.3,0.6,0.3,1c0,0.5-0.2,0.9-0.5,1.2c-0.2,0.2-0.5,0.4-0.9,0.5l1.6,2.2
			c0.2,0.3,0.4,0.5,0.4,0.5c0.1,0.1,0.3,0.2,0.5,0.2v0.2h-2.1l-2.1-3H83.8z M83.8,113.2v2.9h0.3c0.4,0,0.8,0,1-0.1
			c0.2-0.1,0.4-0.2,0.5-0.4c0.1-0.2,0.2-0.5,0.2-0.8c0-0.5-0.1-0.9-0.4-1.1c-0.2-0.2-0.6-0.4-1.1-0.4H83.8z"/>
		<path class="st0" d="M91,113.2v2.7h0.1c0.4,0,0.7-0.1,0.9-0.4c0.2-0.3,0.3-0.6,0.4-1.2h0.2v3.4h-0.2c0-0.4-0.1-0.7-0.2-0.9
			s-0.3-0.4-0.4-0.5c-0.2-0.1-0.4-0.1-0.7-0.1v1.8c0,0.4,0,0.6,0,0.7c0,0.1,0.1,0.1,0.2,0.2c0.1,0.1,0.2,0.1,0.4,0.1h0.4
			c0.6,0,1.1-0.1,1.5-0.4s0.6-0.7,0.8-1.3h0.2l-0.3,2.1h-5.7v-0.2h0.2c0.2,0,0.3,0,0.5-0.1c0.1,0,0.1-0.1,0.2-0.2
			c0-0.1,0.1-0.3,0.1-0.6v-4.3c0-0.3,0-0.5,0-0.5c0-0.1-0.1-0.2-0.2-0.3c-0.1-0.1-0.3-0.1-0.5-0.1h-0.2v-0.2H94v1.9h-0.2
			c-0.1-0.5-0.2-0.8-0.4-1c-0.2-0.2-0.4-0.4-0.7-0.5c-0.2-0.1-0.5-0.1-1-0.1H91z"/>
		<path class="st0" d="M99.6,112.7l0.1,2.2h-0.2c-0.1-0.5-0.3-1-0.7-1.3c-0.4-0.3-0.8-0.5-1.2-0.5c-0.3,0-0.6,0.1-0.8,0.3
			s-0.3,0.4-0.3,0.6c0,0.1,0,0.3,0.1,0.4c0.1,0.2,0.2,0.3,0.4,0.5c0.2,0.1,0.5,0.3,1,0.6c0.8,0.4,1.3,0.7,1.6,1.1
			c0.3,0.3,0.4,0.7,0.4,1.2c0,0.5-0.2,1-0.6,1.4c-0.4,0.4-1,0.6-1.6,0.6c-0.2,0-0.4,0-0.6-0.1s-0.4-0.1-0.7-0.2
			c-0.2-0.1-0.3-0.1-0.4-0.1c-0.1,0-0.2,0-0.3,0.1c-0.1,0.1-0.2,0.2-0.2,0.3h-0.2V117h0.2c0.1,0.7,0.4,1.2,0.8,1.6s0.8,0.5,1.3,0.5
			c0.4,0,0.6-0.1,0.9-0.3c0.2-0.2,0.3-0.4,0.3-0.7c0-0.2,0-0.3-0.1-0.4c-0.1-0.1-0.2-0.3-0.4-0.4s-0.5-0.3-0.9-0.5
			c-0.6-0.3-1-0.5-1.3-0.7c-0.3-0.2-0.5-0.4-0.6-0.7s-0.2-0.5-0.2-0.8c0-0.5,0.2-1,0.6-1.3c0.4-0.4,0.9-0.6,1.5-0.6
			c0.2,0,0.4,0,0.6,0.1c0.2,0,0.3,0.1,0.6,0.2c0.2,0.1,0.4,0.2,0.5,0.2c0.1,0,0.1,0,0.2-0.1s0.1-0.2,0.1-0.4H99.6z"/>
		<path class="st0" d="M109.6,112.8v0.2c-0.2,0-0.4,0.1-0.5,0.2c-0.2,0.1-0.4,0.5-0.8,1.1l-1.4,2.4v1.6c0,0.3,0,0.5,0.1,0.6
			c0,0.1,0.1,0.2,0.2,0.2c0.1,0.1,0.2,0.1,0.4,0.1h0.4v0.2h-3.7v-0.2h0.3c0.2,0,0.3,0,0.5-0.1c0.1,0,0.1-0.1,0.2-0.2
			c0-0.1,0.1-0.3,0.1-0.6v-1.3l-1.5-2.8c-0.3-0.6-0.5-0.9-0.6-1c-0.1-0.1-0.3-0.1-0.5-0.2v-0.2h3.1v0.2h-0.1c-0.2,0-0.3,0-0.4,0.1
			s-0.1,0.1-0.1,0.2c0,0.1,0.1,0.4,0.4,0.9l1.2,2.2l1.2-2c0.3-0.5,0.4-0.8,0.4-1c0-0.1,0-0.2-0.1-0.2c-0.1-0.1-0.3-0.1-0.6-0.1v-0.2
			H109.6z"/>
		<path class="st0" d="M118.4,112.7v2.3h-0.2c-0.1-0.6-0.4-1-0.8-1.4c-0.4-0.3-0.8-0.5-1.3-0.5c-0.4,0-0.8,0.1-1.1,0.4
			c-0.3,0.2-0.6,0.5-0.8,0.9c-0.2,0.5-0.3,1-0.3,1.6c0,0.6,0.1,1.1,0.2,1.6c0.1,0.5,0.4,0.8,0.7,1.1c0.3,0.2,0.7,0.4,1.2,0.4
			c0.4,0,0.8-0.1,1.1-0.3c0.3-0.2,0.7-0.5,1.1-0.9v0.6c-0.4,0.4-0.8,0.7-1.1,0.8c-0.4,0.2-0.9,0.3-1.4,0.3c-0.7,0-1.3-0.1-1.9-0.4
			s-1-0.7-1.3-1.2s-0.4-1.1-0.4-1.7c0-0.6,0.2-1.2,0.5-1.8c0.3-0.6,0.8-1,1.3-1.3c0.6-0.3,1.1-0.5,1.8-0.5c0.5,0,0.9,0.1,1.5,0.3
			c0.3,0.1,0.5,0.2,0.6,0.2c0.1,0,0.2,0,0.3-0.1c0.1-0.1,0.1-0.2,0.1-0.4H118.4z"/>
		<path class="st0" d="M122.8,112.7c1,0,1.9,0.3,2.5,0.9c0.7,0.6,1,1.5,1,2.4c0,0.8-0.2,1.6-0.7,2.2c-0.6,0.8-1.6,1.3-2.7,1.3
			c-1.2,0-2.1-0.4-2.7-1.2c-0.5-0.6-0.8-1.4-0.8-2.2c0-1,0.3-1.8,1-2.4S121.8,112.7,122.8,112.7z M122.9,113c-0.6,0-1.1,0.3-1.4,0.9
			c-0.3,0.5-0.4,1.2-0.4,2.2c0,1.1,0.2,1.9,0.6,2.5c0.3,0.4,0.7,0.6,1.2,0.6c0.3,0,0.6-0.1,0.8-0.2c0.3-0.2,0.5-0.5,0.7-1
			c0.2-0.5,0.2-1,0.2-1.8c0-0.9-0.1-1.5-0.2-1.9c-0.2-0.4-0.4-0.7-0.6-0.9C123.5,113.1,123.2,113,122.9,113z"/>
		<path class="st0" d="M129.1,112.8l3.2,4.1v-2.8c0-0.4-0.1-0.7-0.2-0.8c-0.2-0.2-0.4-0.3-0.8-0.3v-0.2h2.2v0.2
			c-0.3,0-0.5,0.1-0.6,0.1c-0.1,0.1-0.2,0.1-0.2,0.3c-0.1,0.1-0.1,0.3-0.1,0.7v5.5h-0.2l-4.4-5.5v4.2c0,0.4,0.1,0.6,0.3,0.8
			c0.2,0.1,0.4,0.2,0.6,0.2h0.2v0.2h-2.3v-0.2c0.4,0,0.6-0.1,0.8-0.2c0.1-0.1,0.2-0.4,0.2-0.7v-4.6l-0.1-0.2
			c-0.1-0.2-0.3-0.3-0.4-0.3c-0.1-0.1-0.3-0.1-0.5-0.1v-0.2H129.1z"/>
		<path class="st0" d="M138.5,112.7l0.1,2.2h-0.2c-0.1-0.5-0.3-1-0.7-1.3c-0.4-0.3-0.8-0.5-1.2-0.5c-0.3,0-0.6,0.1-0.8,0.3
			c-0.2,0.2-0.3,0.4-0.3,0.6c0,0.1,0,0.3,0.1,0.4c0.1,0.2,0.2,0.3,0.4,0.5c0.2,0.1,0.5,0.3,1,0.6c0.8,0.4,1.3,0.7,1.6,1.1
			c0.3,0.3,0.4,0.7,0.4,1.2c0,0.5-0.2,1-0.6,1.4c-0.4,0.4-1,0.6-1.6,0.6c-0.2,0-0.4,0-0.6-0.1s-0.4-0.1-0.7-0.2
			c-0.2-0.1-0.3-0.1-0.4-0.1c-0.1,0-0.2,0-0.3,0.1s-0.2,0.2-0.2,0.3h-0.2V117h0.2c0.1,0.7,0.4,1.2,0.8,1.6s0.8,0.5,1.3,0.5
			c0.4,0,0.6-0.1,0.9-0.3s0.3-0.4,0.3-0.7c0-0.2,0-0.3-0.1-0.4c-0.1-0.1-0.2-0.3-0.4-0.4s-0.5-0.3-0.9-0.5c-0.6-0.3-1-0.5-1.3-0.7
			c-0.3-0.2-0.5-0.4-0.6-0.7s-0.2-0.5-0.2-0.8c0-0.5,0.2-1,0.6-1.3c0.4-0.4,0.9-0.6,1.5-0.6c0.2,0,0.4,0,0.6,0.1
			c0.2,0,0.3,0.1,0.6,0.2c0.2,0.1,0.4,0.2,0.5,0.2c0.1,0,0.1,0,0.2-0.1s0.1-0.2,0.1-0.4H138.5z"/>
		<path class="st0" d="M139.6,112.8h3.4v0.2h-0.2c-0.3,0-0.4,0-0.5,0.1s-0.2,0.1-0.2,0.2c0,0.1-0.1,0.3-0.1,0.7v3.2
			c0,0.6,0,1,0.1,1.2c0.1,0.2,0.2,0.3,0.4,0.5c0.2,0.1,0.5,0.2,0.8,0.2c0.4,0,0.7-0.1,0.9-0.2c0.2-0.2,0.4-0.4,0.6-0.7
			c0.1-0.3,0.2-0.8,0.2-1.5V114c0-0.3,0-0.5-0.1-0.6c-0.1-0.1-0.1-0.2-0.2-0.3c-0.1-0.1-0.3-0.1-0.6-0.1v-0.2h2.3v0.2h-0.1
			c-0.2,0-0.3,0-0.5,0.1s-0.2,0.2-0.3,0.3c0,0.1-0.1,0.3-0.1,0.6v2.5c0,0.8-0.1,1.3-0.2,1.7c-0.1,0.3-0.3,0.7-0.7,0.9
			c-0.4,0.3-0.9,0.4-1.6,0.4c-0.6,0-1-0.1-1.3-0.2c-0.4-0.2-0.7-0.5-0.9-0.8s-0.3-0.8-0.3-1.3V114c0-0.4,0-0.6-0.1-0.7
			s-0.1-0.2-0.2-0.2c-0.1-0.1-0.3-0.1-0.6-0.1V112.8z"/>
		<path class="st0" d="M152.7,117.1l-0.2,2.3h-5.8v-0.2h0.2c0.2,0,0.3,0,0.5-0.1c0.1,0,0.1-0.1,0.2-0.2c0-0.1,0.1-0.3,0.1-0.6v-4.3
			c0-0.3,0-0.5-0.1-0.6c0-0.1-0.1-0.2-0.2-0.2c-0.1-0.1-0.3-0.1-0.4-0.1h-0.2v-0.2h3.5v0.2h-0.3c-0.2,0-0.3,0-0.5,0.1
			c-0.1,0-0.1,0.1-0.2,0.2c0,0.1-0.1,0.3-0.1,0.6v4.2c0,0.3,0,0.5,0.1,0.6c0,0.1,0.1,0.2,0.2,0.2c0.1,0,0.3,0,0.6,0h0.5
			c0.3,0,0.6-0.1,0.9-0.2c0.2-0.1,0.4-0.3,0.6-0.6c0.2-0.3,0.3-0.7,0.5-1.2H152.7z"/>
		<path class="st0" d="M158.4,112.8v1.8h-0.2c-0.1-0.4-0.2-0.7-0.3-0.9c-0.1-0.2-0.3-0.3-0.5-0.4c-0.1-0.1-0.3-0.1-0.6-0.1h-0.5v5.1
			c0,0.3,0,0.5,0.1,0.6s0.1,0.2,0.2,0.2c0.1,0.1,0.3,0.1,0.4,0.1h0.2v0.2h-3.4v-0.2h0.2c0.2,0,0.3,0,0.5-0.1c0.1,0,0.1-0.1,0.2-0.2
			c0-0.1,0.1-0.3,0.1-0.6v-5.1h-0.5c-0.4,0-0.8,0.1-1,0.3c-0.3,0.3-0.5,0.6-0.5,1.1h-0.2v-1.8H158.4z"/>
		<path class="st0" d="M162.4,112.7c1,0,1.9,0.3,2.5,0.9c0.7,0.6,1,1.5,1,2.4c0,0.8-0.2,1.6-0.7,2.2c-0.6,0.8-1.6,1.3-2.7,1.3
			c-1.2,0-2.1-0.4-2.7-1.2c-0.5-0.6-0.8-1.4-0.8-2.2c0-1,0.3-1.8,1-2.4S161.5,112.7,162.4,112.7z M162.5,113c-0.6,0-1.1,0.3-1.4,0.9
			c-0.3,0.5-0.4,1.2-0.4,2.2c0,1.1,0.2,1.9,0.6,2.5c0.3,0.4,0.7,0.6,1.2,0.6c0.3,0,0.6-0.1,0.8-0.2c0.3-0.2,0.5-0.5,0.7-1
			c0.2-0.5,0.2-1,0.2-1.8c0-0.9-0.1-1.5-0.2-1.9c-0.2-0.4-0.4-0.7-0.6-0.9C163.1,113.1,162.8,113,162.5,113z"/>
		<path class="st0" d="M168.9,116.4v1.8c0,0.4,0,0.6,0.1,0.7c0,0.1,0.1,0.2,0.2,0.2s0.3,0.1,0.6,0.1v0.2h-3.4v-0.2
			c0.3,0,0.5,0,0.6-0.1c0.1-0.1,0.2-0.1,0.2-0.2c0-0.1,0.1-0.3,0.1-0.7V114c0-0.4,0-0.6-0.1-0.7c0-0.1-0.1-0.2-0.2-0.2
			c-0.1-0.1-0.3-0.1-0.6-0.1v-0.2h3c0.8,0,1.4,0.1,1.7,0.2c0.4,0.1,0.7,0.3,0.9,0.6c0.2,0.3,0.3,0.6,0.3,1c0,0.5-0.2,0.9-0.5,1.2
			c-0.2,0.2-0.5,0.4-0.9,0.5l1.6,2.2c0.2,0.3,0.4,0.5,0.4,0.5c0.1,0.1,0.3,0.2,0.5,0.2v0.2h-2.1l-2.1-3H168.9z M168.9,113.2v2.9h0.3
			c0.4,0,0.8,0,1-0.1c0.2-0.1,0.4-0.2,0.5-0.4c0.1-0.2,0.2-0.5,0.2-0.8c0-0.5-0.1-0.9-0.4-1.1s-0.6-0.4-1.1-0.4H168.9z"/>
		<path class="st0" d="M176.2,113.2v2.7h0.1c0.4,0,0.7-0.1,0.9-0.4c0.2-0.3,0.3-0.6,0.4-1.2h0.2v3.4h-0.2c0-0.4-0.1-0.7-0.2-0.9
			c-0.1-0.2-0.3-0.4-0.4-0.5c-0.2-0.1-0.4-0.1-0.7-0.1v1.8c0,0.4,0,0.6,0,0.7c0,0.1,0.1,0.1,0.2,0.2c0.1,0.1,0.2,0.1,0.4,0.1h0.4
			c0.6,0,1.1-0.1,1.5-0.4s0.6-0.7,0.8-1.3h0.2l-0.3,2.1h-5.7v-0.2h0.2c0.2,0,0.3,0,0.5-0.1c0.1,0,0.1-0.1,0.2-0.2
			c0-0.1,0.1-0.3,0.1-0.6v-4.3c0-0.3,0-0.5,0-0.5c0-0.1-0.1-0.2-0.2-0.3c-0.1-0.1-0.3-0.1-0.5-0.1h-0.2v-0.2h5.5v1.9H179
			c-0.1-0.5-0.2-0.8-0.4-1c-0.2-0.2-0.4-0.4-0.7-0.5c-0.2-0.1-0.5-0.1-1-0.1H176.2z"/>
		<path class="st0" d="M184.7,112.7l0.1,2.2h-0.2c-0.1-0.5-0.3-1-0.7-1.3c-0.4-0.3-0.8-0.5-1.2-0.5c-0.3,0-0.6,0.1-0.8,0.3
			s-0.3,0.4-0.3,0.6c0,0.1,0,0.3,0.1,0.4c0.1,0.2,0.2,0.3,0.4,0.5c0.2,0.1,0.5,0.3,1,0.6c0.8,0.4,1.3,0.7,1.6,1.1
			c0.3,0.3,0.4,0.7,0.4,1.2c0,0.5-0.2,1-0.6,1.4s-1,0.6-1.6,0.6c-0.2,0-0.4,0-0.6-0.1s-0.4-0.1-0.7-0.2c-0.2-0.1-0.3-0.1-0.4-0.1
			c-0.1,0-0.2,0-0.3,0.1c-0.1,0.1-0.2,0.2-0.2,0.3h-0.2V117h0.2c0.1,0.7,0.4,1.2,0.8,1.6s0.8,0.5,1.3,0.5c0.4,0,0.6-0.1,0.9-0.3
			c0.2-0.2,0.3-0.4,0.3-0.7c0-0.2,0-0.3-0.1-0.4c-0.1-0.1-0.2-0.3-0.4-0.4c-0.2-0.1-0.5-0.3-0.9-0.5c-0.6-0.3-1-0.5-1.3-0.7
			c-0.3-0.2-0.5-0.4-0.6-0.7c-0.1-0.3-0.2-0.5-0.2-0.8c0-0.5,0.2-1,0.6-1.3c0.4-0.4,0.9-0.6,1.4-0.6c0.2,0,0.4,0,0.6,0.1
			c0.2,0,0.3,0.1,0.6,0.2c0.2,0.1,0.4,0.2,0.5,0.2c0.1,0,0.1,0,0.2-0.1c0-0.1,0.1-0.2,0.1-0.4H184.7z"/>
	</g>
	<g>
		<rect y="101.1" class="st0" width="219.5" height="1"/>
	</g>
</g>
</svg>
