<?xml version="1.0" encoding="utf-8"?>
<!-- Generator: Adobe Illustrator 23.1.1, SVG Export Plug-In . SVG Version: 6.00 Build 0)  -->
<svg version="1.1" id="Capa_1" xmlns="http://www.w3.org/2000/svg" xmlns:xlink="http://www.w3.org/1999/xlink" x="0px" y="0px"
	 viewBox="0 0 503.3 273.9" style="enable-background:new 0 0 503.3 273.9;" xml:space="preserve">
<style type="text/css">
	.st0{fill:#FFFFFF;}
</style>
<g>
	<g>
		<path class="st0" d="M18.2,181.2l0.2,8.6h-0.8c-0.4-2.1-1.3-3.9-2.7-5.2s-3-2-4.7-2c-1.3,0-2.3,0.3-3.1,1s-1.1,1.5-1.1,2.4
			c0,0.6,0.1,1.1,0.4,1.5c0.4,0.6,1,1.2,1.8,1.8c0.6,0.4,2,1.2,4.1,2.2c3,1.5,5,2.9,6.1,4.2c1,1.3,1.6,2.8,1.6,4.5
			c0,2.1-0.8,4-2.5,5.5c-1.7,1.5-3.8,2.3-6.4,2.3c-0.8,0-1.6-0.1-2.3-0.2s-1.6-0.5-2.7-0.9c-0.6-0.2-1.1-0.4-1.5-0.4
			c-0.3,0-0.7,0.1-1,0.4c-0.4,0.2-0.7,0.6-0.9,1.2H2v-9.7h0.7c0.6,2.7,1.6,4.8,3.2,6.2c1.6,1.4,3.3,2.1,5.1,2.1
			c1.4,0,2.5-0.4,3.4-1.2s1.3-1.7,1.3-2.7c0-0.6-0.2-1.2-0.5-1.8s-0.8-1.1-1.5-1.6s-1.8-1.2-3.5-2c-2.3-1.1-4-2.1-5-2.9
			s-1.8-1.7-2.4-2.7S2,189.7,2,188.5c0-2,0.8-3.8,2.3-5.2c1.5-1.4,3.4-2.2,5.7-2.2c0.8,0,1.6,0.1,2.4,0.3c0.6,0.1,1.3,0.4,2.2,0.8
			c0.8,0.4,1.5,0.6,1.8,0.6c0.3,0,0.6-0.1,0.8-0.3c0.2-0.2,0.4-0.7,0.5-1.5L18.2,181.2L18.2,181.2z"/>
		<path class="st0" d="M37.7,200.1h-9.1l-1.1,2.5c-0.3,0.8-0.5,1.5-0.5,2.1c0,0.7,0.3,1.2,0.9,1.6c0.3,0.2,1.2,0.4,2.5,0.5v0.7h-8.6
			v-0.7c0.9-0.1,1.7-0.5,2.3-1.1c0.6-0.6,1.3-1.9,2.2-3.9l9.2-20.5h0.4l9.3,21.1c0.9,2,1.6,3.3,2.2,3.8c0.4,0.4,1,0.6,1.8,0.7v0.7
			H36.7v-0.7h0.5c1,0,1.7-0.1,2.1-0.4c0.3-0.2,0.4-0.5,0.4-0.9c0-0.2,0-0.5-0.1-0.7c0-0.1-0.2-0.6-0.6-1.4L37.7,200.1z M37.1,198.7
			l-3.8-8.9l-3.9,8.9H37.1z"/>
		<path class="st0" d="M74.1,198.4l-1,9H50.3v-0.7h0.8c0.8,0,1.3-0.1,1.8-0.4c0.3-0.2,0.6-0.5,0.8-0.9c0.1-0.3,0.2-1.1,0.2-2.4
			v-16.9c0-1.3-0.1-2.1-0.2-2.5c-0.1-0.3-0.4-0.6-0.8-0.9c-0.4-0.2-1-0.4-1.7-0.4h-0.8v-0.7H64v0.7h-1.1c-0.8,0-1.3,0.1-1.8,0.4
			c-0.3,0.2-0.6,0.5-0.8,0.9c-0.1,0.3-0.2,1.1-0.2,2.4v16.4c0,1.3,0.1,2.1,0.2,2.5c0.2,0.4,0.4,0.6,0.9,0.8c0.3,0.1,1.1,0.2,2.3,0.2
			h2.1c1.4,0,2.5-0.2,3.4-0.7s1.7-1.2,2.4-2.3s1.3-2.6,1.9-4.6L74.1,198.4L74.1,198.4z"/>
		<path class="st0" d="M99.6,181.7v0.7c-0.9,0.1-1.8,0.6-2.5,1.5c-0.5,0.6-1.3,2.1-2.4,4.5l-8.9,19.6h-0.6l-8.8-20.4
			c-1.1-2.5-1.8-3.9-2.1-4.3s-1-0.7-2-0.8v-0.7h12.3v0.7h-0.4c-1.1,0-1.9,0.1-2.3,0.4c-0.3,0.2-0.4,0.5-0.4,0.8
			c0,0.2,0.1,0.5,0.2,0.8s0.4,1.1,1,2.5l5.5,12.8l5.1-11.4c0.6-1.4,1-2.3,1.1-2.8s0.2-0.9,0.2-1.2c0-0.4-0.1-0.7-0.3-1
			s-0.5-0.5-0.9-0.7c-0.5-0.2-1.3-0.3-2.2-0.3v-0.7L99.6,181.7L99.6,181.7z"/>
		<path class="st0" d="M111.1,200.1H102l-1.1,2.5c-0.4,0.8-0.5,1.5-0.5,2.1c0,0.7,0.3,1.2,0.9,1.6c0.3,0.2,1.2,0.4,2.5,0.5v0.7h-8.6
			v-0.7c0.9-0.1,1.7-0.5,2.3-1.1c0.6-0.6,1.3-1.9,2.2-3.9l9.2-20.5h0.4l9.3,21.1c0.9,2,1.6,3.3,2.2,3.8c0.4,0.4,1,0.6,1.8,0.7v0.7
			h-12.4v-0.7h0.5c1,0,1.7-0.1,2.1-0.4c0.3-0.2,0.4-0.5,0.4-0.9c0-0.2,0-0.5-0.1-0.7c0-0.1-0.2-0.6-0.6-1.4L111.1,200.1z
			 M110.5,198.7l-3.8-8.9l-3.9,8.9H110.5z"/>
		<path class="st0" d="M123.5,207.5v-0.7h0.9c0.8,0,1.3-0.1,1.7-0.4s0.7-0.5,0.9-1c0.1-0.3,0.2-1.1,0.2-2.4v-16.9
			c0-1.3-0.1-2.1-0.2-2.5c-0.1-0.3-0.4-0.6-0.8-0.9c-0.4-0.2-1-0.4-1.7-0.4h-0.9v-0.7H135c3.1,0,5.5,0.4,7.4,1.2
			c2.3,1,4,2.6,5.2,4.6s1.8,4.4,1.8,7c0,1.8-0.3,3.5-0.9,5c-0.6,1.5-1.3,2.8-2.3,3.8c-0.9,1-2,1.8-3.2,2.4c-1.2,0.6-2.7,1.1-4.4,1.4
			c-0.8,0.1-2,0.2-3.6,0.2L123.5,207.5L123.5,207.5z M133.3,183.2v20.1c0,1.1,0.1,1.7,0.1,2c0.1,0.2,0.3,0.4,0.5,0.5
			c0.3,0.2,0.8,0.3,1.5,0.3c2.1,0,3.7-0.7,4.8-2.2c1.5-2,2.3-5,2.3-9.1c0-3.3-0.5-5.9-1.5-7.9c-0.8-1.5-1.9-2.6-3.2-3.1
			C137,183.4,135.4,183.2,133.3,183.2z"/>
		<path class="st0" d="M166.1,181.4c4.1-0.1,7.4,1,10,3.6s3.8,5.7,3.8,9.5c0,3.3-1,6.1-2.9,8.6c-2.5,3.3-6.1,4.9-10.7,4.9
			c-4.6,0-8.2-1.6-10.7-4.7c-2-2.5-3-5.4-3-8.8c0-3.8,1.3-7,3.9-9.5C159.1,182.4,162.3,181.2,166.1,181.4z M166.3,182.6
			c-2.4,0-4.1,1.2-5.4,3.6c-1,2-1.5,4.8-1.5,8.5c0,4.4,0.8,7.6,2.3,9.7c1.1,1.5,2.6,2.2,4.5,2.2c1.3,0,2.4-0.3,3.3-1
			c1.1-0.8,2-2.1,2.6-3.9c0.6-1.8,0.9-4.1,0.9-7c0-3.4-0.3-6-1-7.6c-0.6-1.7-1.4-2.9-2.4-3.6C168.7,182.9,167.6,182.6,166.3,182.6z"
			/>
		<path class="st0" d="M191.6,195.7v7.2c0,1.4,0.1,2.3,0.3,2.6c0.2,0.4,0.5,0.6,0.9,0.9s1.2,0.3,2.4,0.3v0.7H182v-0.7
			c1.2,0,2-0.1,2.4-0.3c0.4-0.2,0.7-0.5,0.9-0.9c0.2-0.4,0.3-1.2,0.3-2.6v-16.7c0-1.4-0.1-2.3-0.3-2.6c-0.2-0.4-0.5-0.6-0.9-0.9
			s-1.2-0.3-2.4-0.3v-0.7h11.9c3.1,0,5.4,0.2,6.8,0.6s2.6,1.2,3.5,2.4s1.4,2.5,1.4,4.1c0,1.9-0.7,3.5-2.1,4.7
			c-0.9,0.8-2.1,1.4-3.7,1.8l6.2,8.7c0.8,1.1,1.4,1.8,1.7,2.1c0.5,0.4,1.1,0.6,1.8,0.6v0.7h-8.1l-8.3-11.7L191.6,195.7L191.6,195.7z
			 M191.6,183.1v11.3h1.1c1.8,0,3.1-0.2,3.9-0.5s1.6-0.9,2.1-1.8c0.5-0.8,0.8-1.9,0.8-3.3c0-2-0.5-3.4-1.4-4.3
			c-0.9-0.9-2.4-1.4-4.4-1.4H191.6z"/>
		<path class="st0" d="M229.3,195.7v7.2c0,1.4,0.1,2.3,0.3,2.6c0.2,0.4,0.5,0.6,0.9,0.9s1.2,0.3,2.4,0.3v0.7h-13.2v-0.7
			c1.2,0,2-0.1,2.4-0.3c0.4-0.2,0.7-0.5,0.9-0.9c0.2-0.4,0.3-1.2,0.3-2.6v-16.7c0-1.4-0.1-2.3-0.3-2.6c-0.2-0.4-0.5-0.6-0.9-0.9
			s-1.2-0.3-2.4-0.3v-0.7h12c3.1,0,5.4,0.2,6.8,0.6s2.6,1.2,3.5,2.4s1.4,2.5,1.4,4.1c0,1.9-0.7,3.5-2,4.7c-0.9,0.8-2.1,1.4-3.7,1.8
			l6.2,8.7c0.8,1.1,1.4,1.8,1.7,2.1c0.5,0.4,1.1,0.6,1.8,0.6v0.7h-8.1l-8.3-11.7L229.3,195.7L229.3,195.7z M229.3,183.1v11.3h1.1
			c1.8,0,3.1-0.2,3.9-0.5s1.6-0.9,2.1-1.8c0.5-0.8,0.8-1.9,0.8-3.3c0-2-0.5-3.4-1.4-4.3s-2.4-1.4-4.4-1.4H229.3z"/>
		<path class="st0" d="M248,181.7h13.3v0.7h-0.7c-1,0-1.7,0.1-2.1,0.3c-0.4,0.2-0.6,0.5-0.8,0.9c-0.2,0.4-0.2,1.3-0.2,2.8V199
			c0,2.3,0.2,3.8,0.5,4.6c0.4,0.8,0.9,1.4,1.7,1.9s1.8,0.7,3,0.7c1.4,0,2.6-0.3,3.6-0.9s1.7-1.5,2.2-2.6c0.5-1.1,0.7-3,0.7-5.8
			v-10.5c0-1.1-0.1-2-0.4-2.5c-0.2-0.5-0.5-0.8-0.9-1c-0.6-0.3-1.4-0.4-2.4-0.4v-0.7h8.9v0.7h-0.5c-0.7,0-1.3,0.1-1.8,0.4
			c-0.5,0.3-0.8,0.7-1,1.3c-0.2,0.4-0.2,1.1-0.2,2.2v9.8c0,3-0.2,5.2-0.6,6.5s-1.4,2.6-2.9,3.7c-1.5,1.1-3.6,1.7-6.3,1.7
			c-2.2,0-3.9-0.3-5.2-0.9c-1.7-0.8-2.8-1.9-3.5-3.1c-0.7-1.3-1-3-1-5.1v-12.6c0-1.5-0.1-2.4-0.2-2.8c-0.2-0.4-0.5-0.6-0.9-0.9
			s-1.1-0.3-2.2-0.3L248,181.7L248,181.7z"/>
		<path class="st0" d="M301.9,181.2v9.1h-0.7c-0.9-2.5-2.1-4.4-3.8-5.6s-3.5-1.9-5.6-1.9c-1.9,0-3.5,0.5-4.8,1.6s-2.2,2.6-2.7,4.5
			s-0.8,3.9-0.8,6c0,2.5,0.3,4.6,0.9,6.5s1.5,3.2,2.8,4.1c1.3,0.9,2.8,1.3,4.6,1.3c0.6,0,1.2-0.1,1.9-0.2c0.6-0.1,1.3-0.3,2-0.6
			v-5.4c0-1-0.1-1.7-0.2-2c-0.1-0.3-0.4-0.6-0.9-0.8c-0.4-0.2-1-0.4-1.6-0.4h-0.7v-0.7h12.5v0.7c-1,0.1-1.6,0.2-2,0.4
			c-0.4,0.2-0.7,0.5-0.9,1c-0.1,0.2-0.2,0.8-0.2,1.8v5.4c-1.6,0.7-3.4,1.3-5.1,1.7s-3.6,0.6-5.5,0.6c-2.4,0-4.5-0.3-6.1-1
			c-1.6-0.7-3-1.5-4.3-2.6s-2.2-2.3-2.9-3.6c-0.9-1.7-1.3-3.7-1.3-5.9c0-3.9,1.4-7.1,4.1-9.8c2.7-2.7,6.1-4,10.3-4
			c1.3,0,2.4,0.1,3.5,0.3c0.6,0.1,1.5,0.4,2.7,0.9c1.2,0.5,2,0.7,2.2,0.7c0.4,0,0.7-0.1,1-0.4c0.3-0.3,0.6-0.8,0.8-1.5L301.9,181.2
			L301.9,181.2z"/>
		<path class="st0" d="M332.1,181.2v9.1h-0.7c-0.9-2.5-2.1-4.4-3.8-5.6s-3.5-1.9-5.6-1.9c-1.9,0-3.5,0.5-4.8,1.6s-2.2,2.6-2.7,4.5
			s-0.8,3.9-0.8,6c0,2.5,0.3,4.6,0.9,6.5s1.5,3.2,2.8,4.1c1.3,0.9,2.8,1.3,4.6,1.3c0.6,0,1.2-0.1,1.9-0.2c0.6-0.1,1.3-0.3,2-0.6
			v-5.4c0-1-0.1-1.7-0.2-2c-0.1-0.3-0.4-0.6-0.9-0.8c-0.4-0.2-1-0.4-1.6-0.4h-0.7v-0.7h12.5v0.7c-1,0.1-1.6,0.2-2,0.4
			c-0.4,0.2-0.7,0.5-0.9,1c-0.1,0.2-0.2,0.8-0.2,1.8v5.4c-1.6,0.7-3.4,1.3-5.1,1.7s-3.6,0.6-5.5,0.6c-2.4,0-4.5-0.3-6.1-1
			c-1.6-0.7-3-1.5-4.3-2.6s-2.2-2.3-2.9-3.6c-0.9-1.7-1.3-3.7-1.3-5.9c0-3.9,1.4-7.1,4.1-9.8c2.7-2.7,6.1-4,10.3-4
			c1.3,0,2.4,0.1,3.5,0.3c0.6,0.1,1.5,0.4,2.7,0.9c1.2,0.5,2,0.7,2.2,0.7c0.4,0,0.7-0.1,1-0.4c0.3-0.3,0.6-0.8,0.8-1.5L332.1,181.2
			L332.1,181.2z"/>
		<path class="st0" d="M346.1,183.2v10.5h0.5c1.6,0,2.8-0.5,3.5-1.5c0.7-1,1.2-2.5,1.4-4.5h0.7v13.5h-0.7c-0.1-1.5-0.5-2.7-1-3.6
			s-1-1.6-1.7-1.9c-0.6-0.3-1.6-0.5-2.8-0.5v7.2c0,1.4,0.1,2.3,0.2,2.6s0.3,0.6,0.7,0.8s0.9,0.3,1.6,0.3h1.5c2.4,0,4.3-0.6,5.8-1.7
			s2.5-2.8,3.1-5.1h0.7l-1.2,8.2h-22.2v-0.7h0.9c0.8,0,1.4-0.1,1.8-0.4c0.3-0.2,0.6-0.5,0.8-0.9c0.1-0.3,0.2-1.1,0.2-2.4v-16.9
			c0-1.2,0-1.9-0.1-2.1c-0.1-0.4-0.4-0.8-0.7-1c-0.5-0.4-1.1-0.5-2-0.5h-0.9v-0.7h21.5v7.6h-0.7c-0.4-1.9-0.9-3.2-1.5-4
			c-0.7-0.8-1.6-1.4-2.8-1.8c-0.7-0.2-2-0.3-4-0.3L346.1,183.2L346.1,183.2z"/>
		<path class="st0" d="M371.8,195.7v7.2c0,1.4,0.1,2.3,0.3,2.6c0.2,0.4,0.5,0.6,0.9,0.9s1.2,0.3,2.4,0.3v0.7h-13.2v-0.7
			c1.2,0,2-0.1,2.4-0.3c0.4-0.2,0.7-0.5,0.9-0.9c0.2-0.4,0.3-1.2,0.3-2.6v-16.7c0-1.4-0.1-2.3-0.3-2.6c-0.2-0.4-0.5-0.6-0.9-0.9
			s-1.2-0.3-2.4-0.3v-0.7h12c3.1,0,5.4,0.2,6.8,0.6s2.6,1.2,3.5,2.4s1.4,2.5,1.4,4.1c0,1.9-0.7,3.5-2,4.7c-0.9,0.8-2.1,1.4-3.7,1.8
			l6.2,8.7c0.8,1.1,1.4,1.8,1.7,2.1c0.5,0.4,1.1,0.6,1.8,0.6v0.7h-8.1l-8.3-11.7L371.8,195.7L371.8,195.7z M371.8,183.1v11.3h1.1
			c1.8,0,3.1-0.2,3.9-0.5s1.6-0.9,2.1-1.8c0.5-0.8,0.8-1.9,0.8-3.3c0-2-0.5-3.4-1.4-4.3s-2.4-1.4-4.4-1.4H371.8z"/>
		<path class="st0" d="M403.7,206.8v0.7h-13.5v-0.7h0.9c0.8,0,1.4-0.1,1.8-0.4c0.3-0.2,0.6-0.5,0.8-0.9c0.1-0.3,0.2-1.1,0.2-2.4
			v-16.9c0-1.3-0.1-2.1-0.2-2.5c-0.1-0.3-0.4-0.6-0.8-0.9s-1-0.4-1.7-0.4h-0.9v-0.7h13.5v0.7h-0.9c-0.8,0-1.4,0.1-1.8,0.4
			c-0.3,0.2-0.6,0.5-0.8,0.9c-0.1,0.3-0.2,1.1-0.2,2.4v16.9c0,1.3,0.1,2.1,0.2,2.5c0.1,0.3,0.4,0.6,0.9,0.9c0.4,0.2,1,0.4,1.7,0.4
			H403.7z"/>
	</g>
	<g>
		<path class="st0" d="M236.2,0l0.8,31.6h-2.9c-1.4-7.9-4.7-14.3-10-19.1s-11-7.2-17.1-7.2c-4.8,0-8.5,1.3-11.3,3.8
			c-2.8,2.5-4.1,5.5-4.1,8.8c0,2.1,0.5,4,1.5,5.6c1.4,2.2,3.5,4.4,6.5,6.5c2.2,1.5,7.2,4.3,15.1,8.2c11.1,5.5,18.5,10.6,22.4,15.4
			c3.8,4.8,5.7,10.4,5.7,16.6c0,7.9-3.1,14.7-9.2,20.4s-14,8.5-23.5,8.5c-3,0-5.8-0.3-8.4-0.9c-2.6-0.6-6-1.8-10-3.4
			c-2.2-0.9-4.1-1.4-5.5-1.4c-1.2,0-2.5,0.5-3.8,1.4c-1.4,0.9-2.4,2.4-3.3,4.3h-2.6V63.3h2.6c2,10.1,6,17.7,11.8,23
			c5.8,5.3,12.1,7.9,18.9,7.9c5.2,0,9.4-1.4,12.5-4.3c3.1-2.8,4.6-6.1,4.6-9.9c0-2.2-0.6-4.4-1.8-6.5s-3-4.1-5.4-6
			s-6.7-4.3-12.9-7.4c-8.6-4.2-14.8-7.8-18.6-10.8c-3.8-3-6.7-6.3-8.7-10c-2-3.7-3-7.7-3-12.1c0-7.5,2.8-14,8.3-19.3
			c5.5-5.3,12.5-8,20.9-8c3.1,0,6,0.4,8.9,1.1c2.2,0.6,4.9,1.6,8,3.1s5.3,2.3,6.6,2.3c1.2,0,2.2-0.4,2.9-1.1c0.7-0.7,1.4-2.5,2-5.4
			L236.2,0L236.2,0z"/>
	</g>
	<g>
		<path class="st0" d="M259.9,85.1v26.5c0,5.1,0.3,8.3,0.9,9.7c0.6,1.3,1.7,2.4,3.3,3.2s4.5,1.2,8.9,1.2v2.6h-48.4v-2.6
			c4.4,0,7.3-0.4,8.9-1.2s2.6-1.9,3.3-3.2c0.6-1.3,0.9-4.5,0.9-9.6V50.3c0-5.1-0.3-8.3-0.9-9.7c-0.6-1.3-1.7-2.4-3.3-3.2
			s-4.5-1.2-8.9-1.2v-2.6h44c11.4,0,19.8,0.8,25.1,2.4s9.6,4.5,13,8.8s5,9.2,5,15c0,7-2.5,12.8-7.5,17.3c-3.2,2.9-7.7,5-13.5,6.5
			l22.8,32c3,4.1,5.1,6.7,6.4,7.8c1.9,1.4,4.1,2.2,6.6,2.4v2.6h-29.8l-30.5-43.1L259.9,85.1L259.9,85.1z M259.9,38.7v41.5h4
			c6.5,0,11.3-0.6,14.5-1.8c3.2-1.2,5.7-3.3,7.6-6.4c1.8-3.1,2.8-7.1,2.8-12.1c0-7.2-1.7-12.5-5.1-16s-8.8-5.2-16.3-5.2H259.9z"/>
	</g>
	<g>
		<path class="st0" d="M427.7,199.2h4.5v0.4c-0.5,0.1-0.9,0.2-1.2,0.5c-0.3,0.2-0.7,0.8-1.1,1.6s-1.1,1.7-1.9,2.8
			c0.7,0.7,1.3,1.1,1.8,1.4c0.3,0.2,0.6,0.3,0.9,0.3c0.5,0,1-0.4,1.4-1l0.4,0.2c-0.6,1.1-1.2,2-1.9,2.5c-0.5,0.4-1.1,0.5-1.7,0.5
			c-0.6,0-1.1-0.1-1.6-0.4s-1.1-0.7-1.8-1.4c-0.9,0.6-1.7,1-2.5,1.3c-0.8,0.3-1.6,0.4-2.5,0.4c-1.4,0-2.4-0.4-3.2-1.1
			c-0.8-0.7-1.2-1.6-1.2-2.6c0-1.1,0.4-2,1.1-2.8c0.8-0.8,1.9-1.5,3.3-2.1c-0.2-0.5-0.3-0.9-0.4-1.4s-0.1-0.9-0.1-1.3
			c0-1.1,0.4-2.1,1.2-2.9c0.8-0.8,1.8-1.1,3.1-1.1c1,0,1.8,0.2,2.4,0.8c0.6,0.5,0.9,1.1,0.9,1.8c0,0.8-0.3,1.5-0.9,2.1
			c-0.6,0.6-1.6,1.1-2.9,1.6c0.8,1.4,2,3,3.5,4.6c1-1.2,1.6-2.2,1.6-3c0-0.3-0.1-0.6-0.3-0.8s-0.5-0.3-0.9-0.4L427.7,199.2
			L427.7,199.2z M420.8,200.3c-0.6,0.2-1,0.5-1.2,0.8c-0.3,0.4-0.5,0.9-0.5,1.3c0,0.7,0.2,1.3,0.6,2s0.9,1.2,1.4,1.5
			c0.5,0.4,1.1,0.5,1.6,0.5c0.3,0,0.6-0.1,0.9-0.2c0.3-0.1,0.7-0.3,1.1-0.5C423.1,204.1,421.8,202.2,420.8,200.3z M423.4,198.5
			c0.8-0.3,1.2-0.6,1.5-0.9c0.3-0.3,0.4-0.7,0.4-1.1c0-0.8-0.2-1.5-0.6-2c-0.3-0.4-0.6-0.5-1-0.5c-0.3,0-0.6,0.1-0.9,0.4
			c-0.2,0.3-0.4,0.6-0.4,1.1c0,0.4,0.1,0.7,0.2,1.1S423,197.6,423.4,198.5z"/>
		<path class="st0" d="M446.9,203.7h-5.1l-0.6,1.4c-0.2,0.5-0.3,0.9-0.3,1.2c0,0.4,0.2,0.7,0.5,0.9c0.2,0.1,0.7,0.2,1.4,0.3v0.4
			h-4.8v-0.4c0.5-0.1,1-0.3,1.3-0.6c0.3-0.4,0.8-1.1,1.2-2.2l5.2-11.6h0.2l5.2,11.9c0.5,1.1,0.9,1.8,1.2,2.1c0.2,0.2,0.6,0.4,1,0.4
			v0.4h-7v-0.4h0.3c0.6,0,1-0.1,1.2-0.2c0.2-0.1,0.2-0.3,0.2-0.5c0-0.1,0-0.3-0.1-0.4c0-0.1-0.1-0.3-0.3-0.8L446.9,203.7z
			 M446.5,202.9l-2.2-5l-2.2,5H446.5z"/>
		<path class="st0" d="M463.9,193l0.1,4.9h-0.4c-0.2-1.2-0.7-2.2-1.5-2.9s-1.7-1.1-2.6-1.1c-0.7,0-1.3,0.2-1.7,0.6
			c-0.4,0.4-0.6,0.8-0.6,1.4c0,0.3,0.1,0.6,0.2,0.9c0.2,0.3,0.5,0.7,1,1c0.3,0.2,1.1,0.6,2.3,1.2c1.7,0.8,2.9,1.6,3.4,2.4
			s0.9,1.6,0.9,2.5c0,1.2-0.5,2.3-1.4,3.1s-2.1,1.3-3.6,1.3c-0.5,0-0.9,0-1.3-0.1c-0.4-0.1-0.9-0.3-1.5-0.5
			c-0.3-0.1-0.6-0.2-0.9-0.2c-0.2,0-0.4,0.1-0.6,0.2c-0.2,0.1-0.4,0.4-0.5,0.6h-0.4v-5.5h0.4c0.3,1.5,0.9,2.7,1.8,3.5
			s1.9,1.2,2.9,1.2c0.8,0,1.4-0.2,1.9-0.6s0.7-0.9,0.7-1.5c0-0.3-0.1-0.7-0.3-1c-0.2-0.3-0.5-0.6-0.8-0.9s-1-0.7-2-1.1
			c-1.3-0.6-2.3-1.2-2.9-1.7c-0.6-0.5-1-1-1.3-1.5c-0.3-0.6-0.5-1.2-0.5-1.9c0-1.2,0.4-2.1,1.3-3c0.9-0.8,1.9-1.2,3.2-1.2
			c0.5,0,0.9,0.1,1.4,0.2c0.3,0.1,0.8,0.2,1.2,0.5s0.8,0.4,1,0.4s0.3-0.1,0.4-0.2s0.2-0.4,0.3-0.8L463.9,193L463.9,193z"/>
		<path class="st0" d="M474.3,193.1c2.3-0.1,4.2,0.6,5.7,2s2.2,3.2,2.2,5.4c0,1.8-0.5,3.5-1.6,4.9c-1.4,1.9-3.5,2.8-6.1,2.8
			c-2.6,0-4.6-0.9-6.1-2.7c-1.1-1.4-1.7-3.1-1.7-5c0-2.2,0.7-4,2.2-5.4C470.3,193.7,472.2,193,474.3,193.1z M474.4,193.8
			c-1.3,0-2.3,0.7-3,2c-0.6,1.1-0.8,2.7-0.8,4.8c0,2.5,0.4,4.3,1.3,5.5c0.6,0.8,1.5,1.2,2.5,1.2c0.7,0,1.3-0.2,1.8-0.5
			c0.6-0.5,1.1-1.2,1.5-2.2s0.5-2.3,0.5-3.9c0-1.9-0.2-3.4-0.5-4.3c-0.4-1-0.8-1.6-1.4-2C475.8,194,475.2,193.8,474.4,193.8z"/>
		<path class="st0" d="M497.6,193v5h-0.4c-0.3-1.3-0.9-2.3-1.8-3c-0.9-0.7-1.8-1-2.9-1c-0.9,0-1.7,0.3-2.5,0.8s-1.3,1.2-1.7,2
			c-0.5,1.1-0.7,2.3-0.7,3.6c0,1.3,0.2,2.5,0.5,3.6c0.3,1.1,0.8,1.9,1.5,2.4c0.7,0.5,1.6,0.8,2.7,0.8c0.9,0,1.8-0.2,2.5-0.6
			c0.8-0.4,1.6-1.1,2.4-2.1v1.2c-0.8,0.9-1.7,1.5-2.5,1.9c-0.9,0.4-1.9,0.6-3.1,0.6c-1.5,0-2.9-0.3-4.1-0.9
			c-1.2-0.6-2.1-1.5-2.8-2.7c-0.7-1.2-1-2.4-1-3.7c0-1.4,0.4-2.7,1.1-4s1.7-2.2,2.9-2.9s2.5-1,3.9-1c1,0,2.1,0.2,3.2,0.7
			c0.7,0.3,1.1,0.4,1.2,0.4c0.2,0,0.4-0.1,0.6-0.2s0.3-0.4,0.3-0.8L497.6,193L497.6,193z"/>
		<path class="st0" d="M501.5,204.6c0.5,0,0.9,0.2,1.3,0.5c0.3,0.4,0.5,0.8,0.5,1.3c0,0.5-0.2,0.9-0.5,1.3c-0.3,0.4-0.8,0.5-1.3,0.5
			c-0.5,0-0.9-0.2-1.3-0.5s-0.5-0.8-0.5-1.3c0-0.5,0.2-0.9,0.5-1.3C500.6,204.7,501,204.6,501.5,204.6z"/>
	</g>
	<g>
		<path class="st0" d="M105.1,269.2h-5.3l-0.6,1.5c-0.2,0.5-0.3,0.9-0.3,1.2c0,0.4,0.2,0.7,0.5,0.9c0.2,0.1,0.7,0.2,1.5,0.3v0.4h-5
			v-0.4c0.5-0.1,1-0.3,1.3-0.7s0.8-1.1,1.3-2.3l5.4-12h0.2l5.4,12.3c0.5,1.2,0.9,1.9,1.3,2.2c0.2,0.2,0.6,0.4,1.1,0.4v0.4h-7.3v-0.4
			h0.3c0.6,0,1-0.1,1.2-0.2c0.2-0.1,0.2-0.3,0.2-0.5c0-0.1,0-0.3-0.1-0.4c0-0.1-0.1-0.3-0.3-0.8L105.1,269.2z M104.8,268.4l-2.2-5.2
			l-2.3,5.2H104.8z"/>
		<path class="st0" d="M112.6,258.5h7.8v0.4H120c-0.6,0-1,0.1-1.2,0.2s-0.4,0.3-0.5,0.5c-0.1,0.2-0.1,0.8-0.1,1.6v7.4
			c0,1.3,0.1,2.2,0.3,2.7s0.5,0.8,1,1.1c0.5,0.3,1.1,0.4,1.8,0.4c0.8,0,1.5-0.2,2.1-0.5s1-0.9,1.3-1.5s0.4-1.8,0.4-3.4v-6.1
			c0-0.7-0.1-1.2-0.2-1.4s-0.3-0.5-0.5-0.6c-0.3-0.2-0.8-0.2-1.4-0.2v-0.4h5.2v0.4h-0.3c-0.4,0-0.8,0.1-1.1,0.2
			c-0.3,0.2-0.5,0.4-0.6,0.8c-0.1,0.2-0.1,0.7-0.1,1.3v5.7c0,1.8-0.1,3-0.4,3.8c-0.2,0.8-0.8,1.5-1.7,2.2s-2.1,1-3.7,1
			c-1.3,0-2.3-0.2-3-0.5c-1-0.5-1.6-1.1-2.1-1.8c-0.4-0.7-0.6-1.7-0.6-3v-7.4c0-0.9-0.1-1.4-0.1-1.6c-0.1-0.2-0.3-0.4-0.5-0.5
			s-0.7-0.2-1.3-0.2L112.6,258.5L112.6,258.5z"/>
		<path class="st0" d="M128.8,273.5v-0.4h0.5c0.4,0,0.8-0.1,1-0.2c0.2-0.1,0.4-0.3,0.5-0.6c0.1-0.2,0.1-0.6,0.1-1.4v-9.9
			c0-0.8,0-1.2-0.1-1.4c-0.1-0.2-0.2-0.4-0.5-0.5c-0.2-0.1-0.6-0.2-1-0.2h-0.5v-0.4h6.7c1.8,0,3.2,0.2,4.3,0.7
			c1.3,0.6,2.4,1.5,3,2.7c0.7,1.2,1,2.6,1,4.1c0,1.1-0.2,2-0.5,2.9c-0.3,0.9-0.8,1.6-1.3,2.2s-1.2,1-1.9,1.4
			c-0.7,0.3-1.6,0.6-2.6,0.8c-0.5,0.1-1.2,0.1-2.1,0.1L128.8,273.5L128.8,273.5z M134.5,259.3V271c0,0.6,0,1,0.1,1.1
			s0.2,0.2,0.3,0.3c0.2,0.1,0.5,0.2,0.9,0.2c1.2,0,2.2-0.4,2.8-1.3c0.9-1.1,1.3-2.9,1.3-5.3c0-1.9-0.3-3.5-0.9-4.6
			c-0.5-0.9-1.1-1.5-1.9-1.8C136.6,259.4,135.7,259.3,134.5,259.3z"/>
		<path class="st0" d="M153.1,273.1v0.4h-7.9v-0.4h0.5c0.4,0,0.8-0.1,1.1-0.2c0.2-0.1,0.3-0.3,0.4-0.5c0.1-0.2,0.1-0.6,0.1-1.4v-9.9
			c0-0.8,0-1.2-0.1-1.4c-0.1-0.2-0.2-0.4-0.5-0.5c-0.2-0.1-0.6-0.2-1-0.2h-0.5v-0.4h7.9v0.4h-0.5c-0.4,0-0.8,0.1-1,0.2
			c-0.2,0.1-0.3,0.3-0.5,0.5c-0.1,0.2-0.1,0.6-0.1,1.4v9.9c0,0.8,0,1.2,0.1,1.4c0.1,0.2,0.2,0.4,0.5,0.5s0.6,0.2,1,0.2L153.1,273.1
			L153.1,273.1z"/>
		<path class="st0" d="M168,258.5v4.1h-0.4c-0.2-0.9-0.5-1.6-0.8-2c-0.3-0.4-0.7-0.7-1.2-1c-0.3-0.1-0.8-0.2-1.5-0.2H163v11.6
			c0,0.8,0,1.2,0.1,1.4c0.1,0.2,0.2,0.4,0.5,0.5s0.6,0.2,1,0.2h0.5v0.4h-7.9v-0.4h0.5c0.4,0,0.8-0.1,1.1-0.2
			c0.2-0.1,0.3-0.3,0.4-0.5c0.1-0.2,0.1-0.6,0.1-1.4v-11.6h-1.1c-1,0-1.8,0.2-2.2,0.6c-0.6,0.6-1.1,1.5-1.2,2.6h-0.4v-4.1L168,258.5
			L168,258.5z"/>
		<path class="st0" d="M177.2,258.3c2.4-0.1,4.3,0.6,5.8,2.1c1.5,1.5,2.2,3.3,2.2,5.6c0,1.9-0.6,3.6-1.7,5c-1.5,1.9-3.6,2.9-6.3,2.9
			c-2.7,0-4.8-0.9-6.3-2.8c-1.2-1.5-1.8-3.2-1.8-5.2c0-2.2,0.8-4.1,2.3-5.6C173.1,258.9,174.9,258.2,177.2,258.3z M177.3,259
			c-1.4,0-2.4,0.7-3.1,2.1c-0.6,1.2-0.9,2.8-0.9,5c0,2.6,0.4,4.5,1.4,5.7c0.6,0.9,1.5,1.3,2.6,1.3c0.8,0,1.4-0.2,1.9-0.5
			c0.6-0.5,1.2-1.2,1.5-2.3c0.4-1,0.5-2.4,0.5-4.1c0-2-0.2-3.5-0.5-4.5c-0.4-1-0.8-1.7-1.4-2.1S178,259,177.3,259z"/>
		<path class="st0" d="M192.1,266.7v4.2c0,0.8,0,1.3,0.1,1.5s0.3,0.4,0.5,0.5c0.2,0.1,0.7,0.2,1.4,0.2v0.4h-7.7v-0.4
			c0.7,0,1.2-0.1,1.4-0.2c0.2-0.1,0.4-0.3,0.5-0.5c0.1-0.2,0.1-0.7,0.1-1.5v-9.8c0-0.8,0-1.3-0.1-1.5s-0.3-0.4-0.5-0.5
			s-0.7-0.2-1.4-0.2v-0.4h7c1.8,0,3.1,0.1,4,0.4s1.5,0.7,2.1,1.4s0.8,1.5,0.8,2.4c0,1.1-0.4,2-1.2,2.8c-0.5,0.5-1.2,0.8-2.1,1
			l3.6,5.1c0.5,0.7,0.8,1.1,1,1.2c0.3,0.2,0.6,0.3,1,0.4v0.4h-4.7l-4.8-6.8L192.1,266.7L192.1,266.7z M192.1,259.3v6.6h0.6
			c1,0,1.8-0.1,2.3-0.3s0.9-0.5,1.2-1c0.3-0.5,0.4-1.1,0.4-1.9c0-1.1-0.3-2-0.8-2.5c-0.5-0.5-1.4-0.8-2.6-0.8H192.1z"/>
		<path class="st0" d="M208.6,259.3v6.1h0.3c1,0,1.6-0.3,2.1-0.9c0.4-0.6,0.7-1.5,0.8-2.7h0.4v7.9h-0.4c-0.1-0.9-0.3-1.6-0.6-2.1
			c-0.3-0.5-0.6-0.9-1-1.1s-0.9-0.3-1.6-0.3v4.2c0,0.8,0,1.3,0.1,1.5c0.1,0.2,0.2,0.3,0.4,0.5s0.5,0.2,0.9,0.2h0.9
			c1.4,0,2.5-0.3,3.4-1c0.9-0.7,1.5-1.6,1.8-3h0.4l-0.7,4.8h-13v-0.4h0.5c0.4,0,0.8-0.1,1-0.2c0.2-0.1,0.3-0.3,0.4-0.5
			c0.1-0.2,0.1-0.6,0.1-1.4v-9.9c0-0.7,0-1.1-0.1-1.2c-0.1-0.3-0.2-0.5-0.4-0.6c-0.3-0.2-0.7-0.3-1.1-0.3h-0.5v-0.4h12.6v4.4H215
			c-0.2-1.1-0.5-1.9-0.9-2.3s-0.9-0.8-1.6-1c-0.4-0.1-1.2-0.2-2.3-0.2L208.6,259.3L208.6,259.3z"/>
		<path class="st0" d="M228.2,258.1l0.1,5h-0.5c-0.2-1.3-0.7-2.3-1.6-3s-1.7-1.2-2.7-1.2c-0.8,0-1.4,0.2-1.8,0.6s-0.7,0.9-0.7,1.4
			c0,0.3,0.1,0.6,0.2,0.9c0.2,0.3,0.6,0.7,1,1c0.4,0.2,1.1,0.7,2.4,1.3c1.8,0.9,2.9,1.7,3.6,2.5c0.6,0.8,0.9,1.7,0.9,2.6
			c0,1.2-0.5,2.3-1.5,3.2s-2.2,1.4-3.7,1.4c-0.5,0-0.9,0-1.3-0.1s-1-0.3-1.6-0.5c-0.4-0.2-0.6-0.2-0.9-0.2c-0.2,0-0.4,0.1-0.6,0.2
			c-0.2,0.2-0.4,0.4-0.5,0.7h-0.4v-5.7h0.4c0.3,1.6,1,2.8,1.9,3.7s1.9,1.3,3,1.3c0.8,0,1.5-0.2,2-0.7c0.5-0.5,0.7-1,0.7-1.6
			c0-0.4-0.1-0.7-0.3-1s-0.5-0.7-0.9-1c-0.4-0.3-1.1-0.7-2-1.2c-1.4-0.7-2.4-1.2-3-1.7s-1.1-1-1.4-1.6s-0.5-1.2-0.5-1.9
			c0-1.2,0.4-2.2,1.3-3.1c0.9-0.8,2-1.3,3.3-1.3c0.5,0,1,0.1,1.4,0.2c0.4,0.1,0.8,0.2,1.3,0.5s0.9,0.4,1,0.4c0.2,0,0.3-0.1,0.5-0.2
			c0.1-0.1,0.2-0.4,0.3-0.8H228.2z"/>
		<path class="st0" d="M251.1,258.5v0.4c-0.5,0.1-0.9,0.2-1.1,0.4c-0.4,0.3-1,1.2-1.8,2.5l-3.3,5.4v3.6c0,0.8,0,1.3,0.1,1.5
			s0.2,0.3,0.5,0.5c0.2,0.1,0.6,0.2,1,0.2h0.8v0.4h-8.4v-0.4h0.8c0.4,0,0.8-0.1,1-0.2c0.2-0.1,0.3-0.3,0.5-0.5
			c0.1-0.2,0.1-0.6,0.1-1.4v-3l-3.5-6.4c-0.7-1.3-1.2-2-1.5-2.2c-0.3-0.2-0.7-0.3-1.1-0.3v-0.4h7.2v0.4h-0.3c-0.4,0-0.7,0.1-0.9,0.2
			s-0.3,0.3-0.3,0.4c0,0.3,0.3,0.9,0.9,2l2.7,5l2.7-4.5c0.7-1.1,1-1.8,1-2.2c0-0.2-0.1-0.4-0.3-0.5c-0.2-0.2-0.7-0.3-1.4-0.3v-0.4
			L251.1,258.5L251.1,258.5z"/>
		<path class="st0" d="M271.4,258.1v5.2h-0.4c-0.3-1.4-0.9-2.4-1.8-3.1s-1.9-1.1-3-1.1c-0.9,0-1.8,0.3-2.6,0.8s-1.4,1.2-1.7,2.1
			c-0.5,1.1-0.7,2.4-0.7,3.7c0,1.3,0.2,2.6,0.5,3.7s0.9,1.9,1.6,2.5c0.7,0.6,1.7,0.8,2.8,0.8c1,0,1.8-0.2,2.6-0.6s1.6-1.1,2.5-2.1
			v1.3c-0.8,0.9-1.7,1.5-2.6,1.9s-2,0.6-3.2,0.6c-1.6,0-3-0.3-4.3-1c-1.2-0.6-2.2-1.6-2.9-2.8c-0.7-1.2-1-2.5-1-3.8
			c0-1.4,0.4-2.8,1.1-4.1c0.8-1.3,1.8-2.3,3-3c1.3-0.7,2.6-1.1,4.1-1.1c1.1,0,2.2,0.2,3.3,0.7c0.7,0.3,1.1,0.4,1.3,0.4
			c0.2,0,0.4-0.1,0.6-0.3c0.2-0.2,0.3-0.5,0.3-0.8L271.4,258.1L271.4,258.1z"/>
		<path class="st0" d="M281.4,258.3c2.4-0.1,4.3,0.6,5.8,2.1c1.5,1.5,2.2,3.3,2.2,5.6c0,1.9-0.6,3.6-1.7,5c-1.5,1.9-3.6,2.9-6.3,2.9
			s-4.8-0.9-6.3-2.8c-1.2-1.5-1.8-3.2-1.8-5.2c0-2.2,0.8-4.1,2.3-5.6C277.3,258.9,279.1,258.2,281.4,258.3z M281.5,259
			c-1.4,0-2.4,0.7-3.1,2.1c-0.6,1.2-0.9,2.8-0.9,5c0,2.6,0.5,4.5,1.4,5.7c0.6,0.9,1.5,1.3,2.6,1.3c0.8,0,1.4-0.2,1.9-0.5
			c0.6-0.5,1.2-1.2,1.5-2.3c0.4-1,0.5-2.4,0.5-4.1c0-2-0.2-3.5-0.5-4.5s-0.8-1.7-1.4-2.1S282.2,259,281.5,259z"/>
		<path class="st0" d="M295.9,258.5l7.4,9.3v-6.5c0-0.9-0.1-1.5-0.4-1.8c-0.4-0.4-1-0.6-1.8-0.6v-0.4h5v0.4
			c-0.6,0.1-1.1,0.2-1.3,0.3s-0.4,0.3-0.5,0.6s-0.2,0.8-0.2,1.5v12.5h-0.4l-10.2-12.5v9.5c0,0.9,0.2,1.5,0.6,1.8
			c0.4,0.3,0.9,0.5,1.4,0.5h0.4v0.4h-5.3v-0.4c0.8,0,1.4-0.2,1.7-0.5c0.3-0.3,0.5-0.9,0.5-1.7v-10.6l-0.3-0.4
			c-0.3-0.4-0.6-0.7-0.8-0.8c-0.2-0.1-0.6-0.2-1-0.2v-0.4H295.9z"/>
		<path class="st0" d="M317.3,258.1l0.1,5h-0.5c-0.2-1.3-0.7-2.3-1.6-3s-1.8-1.2-2.7-1.2c-0.8,0-1.4,0.2-1.8,0.6
			c-0.4,0.4-0.7,0.9-0.7,1.4c0,0.3,0.1,0.6,0.2,0.9c0.2,0.3,0.6,0.7,1,1c0.4,0.2,1.1,0.7,2.4,1.3c1.8,0.9,2.9,1.7,3.6,2.5
			c0.6,0.8,0.9,1.7,0.9,2.6c0,1.2-0.5,2.3-1.5,3.2s-2.2,1.4-3.7,1.4c-0.5,0-0.9,0-1.3-0.1s-1-0.3-1.6-0.5c-0.4-0.2-0.6-0.2-0.9-0.2
			c-0.2,0-0.4,0.1-0.6,0.2c-0.2,0.2-0.4,0.4-0.5,0.7h-0.4v-5.7h0.4c0.3,1.6,1,2.8,1.9,3.7s1.9,1.3,3,1.3c0.8,0,1.5-0.2,2-0.7
			c0.5-0.5,0.7-1,0.7-1.6c0-0.4-0.1-0.7-0.3-1s-0.5-0.7-0.9-1c-0.4-0.3-1.1-0.7-2-1.2c-1.4-0.7-2.4-1.2-3-1.7
			c-0.6-0.5-1.1-1-1.4-1.6s-0.5-1.2-0.5-1.9c0-1.2,0.4-2.2,1.3-3.1s2-1.3,3.3-1.3c0.5,0,1,0.1,1.4,0.2c0.4,0.1,0.8,0.2,1.3,0.5
			s0.9,0.4,1,0.4c0.2,0,0.3-0.1,0.5-0.2c0.1-0.1,0.2-0.4,0.3-0.8H317.3z"/>
		<path class="st0" d="M319.8,258.5h7.8v0.4h-0.4c-0.6,0-1,0.1-1.2,0.2s-0.4,0.3-0.5,0.5c-0.1,0.2-0.1,0.8-0.1,1.6v7.4
			c0,1.3,0.1,2.2,0.3,2.7c0.2,0.4,0.5,0.8,1,1.1c0.5,0.3,1,0.4,1.8,0.4c0.8,0,1.5-0.2,2.1-0.5s1-0.9,1.3-1.5
			c0.3-0.6,0.4-1.8,0.4-3.4v-6.1c0-0.7-0.1-1.2-0.2-1.4c-0.1-0.3-0.3-0.5-0.5-0.6c-0.3-0.2-0.8-0.2-1.4-0.2v-0.4h5.2v0.4h-0.3
			c-0.4,0-0.8,0.1-1,0.2c-0.3,0.2-0.5,0.4-0.6,0.8c-0.1,0.2-0.1,0.7-0.1,1.3v5.7c0,1.8-0.1,3-0.4,3.8s-0.8,1.5-1.7,2.2
			c-0.9,0.7-2.1,1-3.7,1c-1.3,0-2.3-0.2-3-0.5c-1-0.5-1.6-1.1-2-1.8s-0.6-1.7-0.6-3v-7.4c0-0.9,0-1.4-0.1-1.6s-0.3-0.4-0.5-0.5
			s-0.7-0.2-1.3-0.2L319.8,258.5L319.8,258.5z"/>
		<path class="st0" d="M349.9,268.2l-0.6,5.3H336v-0.4h0.5c0.4,0,0.8-0.1,1-0.2c0.2-0.1,0.3-0.3,0.4-0.5c0.1-0.2,0.1-0.6,0.1-1.4
			v-9.9c0-0.8,0-1.2-0.1-1.4s-0.2-0.4-0.5-0.5c-0.2-0.1-0.6-0.2-1-0.2H336v-0.4h8v0.4h-0.6c-0.4,0-0.8,0.1-1,0.2
			c-0.2,0.1-0.3,0.3-0.5,0.5c-0.1,0.2-0.1,0.6-0.1,1.4v9.6c0,0.8,0,1.3,0.1,1.5s0.3,0.4,0.5,0.5c0.2,0.1,0.6,0.1,1.3,0.1h1.2
			c0.8,0,1.5-0.1,2-0.4s1-0.7,1.4-1.3s0.8-1.5,1.1-2.7L349.9,268.2L349.9,268.2z"/>
		<path class="st0" d="M363,258.5v4.1h-0.4c-0.2-0.9-0.5-1.6-0.8-2c-0.3-0.4-0.7-0.7-1.2-1c-0.3-0.1-0.8-0.2-1.5-0.2H358v11.6
			c0,0.8,0,1.2,0.1,1.4c0.1,0.2,0.2,0.4,0.5,0.5s0.6,0.2,1,0.2h0.5v0.4h-7.9v-0.4h0.5c0.4,0,0.8-0.1,1-0.2c0.2-0.1,0.3-0.3,0.5-0.5
			c0.1-0.2,0.1-0.6,0.1-1.4v-11.6h-1.1c-1,0-1.8,0.2-2.2,0.6c-0.6,0.6-1,1.5-1.2,2.6h-0.4v-4.1L363,258.5L363,258.5z"/>
		<path class="st0" d="M372.1,258.3c2.4-0.1,4.3,0.6,5.8,2.1c1.5,1.5,2.2,3.3,2.2,5.6c0,1.9-0.6,3.6-1.7,5c-1.5,1.9-3.6,2.9-6.3,2.9
			s-4.8-0.9-6.3-2.8c-1.2-1.5-1.8-3.2-1.8-5.2c0-2.2,0.8-4.1,2.3-5.6C368.1,258.9,369.9,258.2,372.1,258.3z M372.3,259
			c-1.4,0-2.4,0.7-3.1,2.1c-0.6,1.2-0.9,2.8-0.9,5c0,2.6,0.5,4.5,1.4,5.7c0.6,0.9,1.5,1.3,2.6,1.3c0.8,0,1.4-0.2,1.9-0.5
			c0.6-0.5,1.2-1.2,1.5-2.3c0.4-1,0.5-2.4,0.5-4.1c0-2-0.2-3.5-0.5-4.5s-0.8-1.7-1.4-2.1S373,259,372.3,259z"/>
		<path class="st0" d="M387.1,266.7v4.2c0,0.8,0,1.3,0.1,1.5s0.3,0.4,0.5,0.5c0.2,0.1,0.7,0.2,1.4,0.2v0.4h-7.7v-0.4
			c0.7,0,1.2-0.1,1.4-0.2c0.2-0.1,0.4-0.3,0.5-0.5c0.1-0.2,0.1-0.7,0.1-1.5v-9.8c0-0.8,0-1.3-0.1-1.5s-0.3-0.4-0.5-0.5
			c-0.2-0.1-0.7-0.2-1.4-0.2v-0.4h7c1.8,0,3.1,0.1,4,0.4s1.5,0.7,2.1,1.4s0.8,1.5,0.8,2.4c0,1.1-0.4,2-1.2,2.8
			c-0.5,0.5-1.2,0.8-2.1,1l3.6,5.1c0.5,0.7,0.8,1.1,1,1.2c0.3,0.2,0.6,0.3,1,0.4v0.4h-4.7l-4.8-6.8L387.1,266.7L387.1,266.7z
			 M387.1,259.3v6.6h0.6c1,0,1.8-0.1,2.3-0.3s0.9-0.5,1.2-1s0.4-1.1,0.4-1.9c0-1.1-0.3-2-0.8-2.5c-0.5-0.5-1.4-0.8-2.6-0.8H387.1z"
			/>
		<path class="st0" d="M403.6,259.3v6.1h0.3c1,0,1.6-0.3,2.1-0.9c0.4-0.6,0.7-1.5,0.8-2.7h0.4v7.9h-0.4c-0.1-0.9-0.3-1.6-0.6-2.1
			s-0.6-0.9-1-1.1c-0.4-0.2-0.9-0.3-1.6-0.3v4.2c0,0.8,0,1.3,0.1,1.5s0.2,0.3,0.4,0.5c0.2,0.1,0.5,0.2,0.9,0.2h0.9
			c1.4,0,2.5-0.3,3.4-1c0.9-0.7,1.5-1.6,1.8-3h0.4l-0.7,4.8h-13v-0.4h0.5c0.4,0,0.8-0.1,1-0.2c0.2-0.1,0.3-0.3,0.4-0.5
			c0.1-0.2,0.1-0.6,0.1-1.4v-9.9c0-0.7,0-1.1,0-1.2c-0.1-0.3-0.2-0.5-0.4-0.6c-0.3-0.2-0.7-0.3-1.1-0.3h-0.5v-0.4h12.6v4.4H410
			c-0.2-1.1-0.5-1.9-0.9-2.3s-0.9-0.8-1.6-1c-0.4-0.1-1.2-0.2-2.3-0.2L403.6,259.3L403.6,259.3z"/>
		<path class="st0" d="M423.2,258.1l0.1,5h-0.5c-0.2-1.3-0.7-2.3-1.6-3s-1.8-1.2-2.7-1.2c-0.8,0-1.4,0.2-1.8,0.6
			c-0.4,0.4-0.7,0.9-0.7,1.4c0,0.3,0.1,0.6,0.2,0.9c0.2,0.3,0.6,0.7,1,1c0.4,0.2,1.1,0.7,2.4,1.3c1.8,0.9,2.9,1.7,3.6,2.5
			c0.6,0.8,0.9,1.7,0.9,2.6c0,1.2-0.5,2.3-1.5,3.2s-2.2,1.4-3.7,1.4c-0.5,0-0.9,0-1.3-0.1s-1-0.3-1.6-0.5c-0.4-0.2-0.6-0.2-0.9-0.2
			c-0.2,0-0.4,0.1-0.6,0.2c-0.2,0.2-0.4,0.4-0.5,0.7h-0.4v-5.7h0.4c0.3,1.6,1,2.8,1.9,3.7s1.9,1.3,3,1.3c0.8,0,1.5-0.2,2-0.7
			c0.5-0.5,0.7-1,0.7-1.6c0-0.4-0.1-0.7-0.3-1s-0.5-0.7-0.9-1c-0.4-0.3-1.1-0.7-2-1.2c-1.4-0.7-2.4-1.2-3-1.7
			c-0.6-0.5-1.1-1-1.4-1.6s-0.5-1.2-0.5-1.9c0-1.2,0.4-2.2,1.3-3.1s2-1.3,3.3-1.3c0.5,0,1,0.1,1.4,0.2c0.4,0.1,0.8,0.2,1.3,0.5
			s0.9,0.4,1,0.4c0.2,0,0.3-0.1,0.5-0.2c0.1-0.1,0.2-0.4,0.3-0.8H423.2z"/>
	</g>
	<g>
		<rect y="231.7" class="st0" width="502.9" height="2.2"/>
	</g>
</g>
</svg>
