<?xml version="1.0" encoding="utf-8"?>
<!-- Generator: Adobe Illustrator 23.1.1, SVG Export Plug-In . SVG Version: 6.00 Build 0)  -->
<svg version="1.1" id="Capa_1" xmlns="http://www.w3.org/2000/svg" xmlns:xlink="http://www.w3.org/1999/xlink" x="0px" y="0px"
	 viewBox="0 0 130 130" style="enable-background:new 0 0 130 130;" xml:space="preserve">
<style type="text/css">
	.st0{fill:#3C4660;}
	.st1{fill:#D7B68C;}
</style>
<circle class="st0" cx="65" cy="65" r="65"/>
<g>
	<path class="st1" d="M49.7,84.9c0.5,0.9,0.9,1.6,1.3,2.3c0.2,0.2,0.6,0.4,0.9,0.4c3.3,0,6.7,0,10,0c2.8,0,4.4,1.6,4.4,4.4
		c0,3.3,0,6.5,0,9.8c0,2.6-1.7,4.3-4.3,4.3c-11.2,0-22.4,0-33.7,0c-2.7,0-4.3-1.6-4.3-4.3c0-3.3,0-6.6,0-9.9c0-2.6,1.7-4.3,4.3-4.3
		c3.4,0,6.7,0,10.1,0c0.5,0,0.8-0.1,1.1-0.6c0.6-1.2,1.3-2.3,2-3.6c-0.3-0.1-0.5-0.2-0.7-0.3c-10.5-4.2-17.3-14.6-16.7-25.9
		c0.4-7.7,3.6-14,9.5-19c0.6-0.5,1-1.1,1.1-1.9c0.6-5.4,3.6-9.2,8.7-11c5.4-1.9,10.8-1.8,16,0.8c4.2,2.2,6.4,5.9,6.9,10.6
		c0,0.4,0.3,0.9,0.5,1.1C77,45.9,79.8,59.6,73.7,71c-0.1,0.2-0.2,0.3-0.3,0.7c0.2,0.2,0.5,0.4,0.8,0.6c7.2,7.2,14.4,14.4,21.7,21.6
		c2.7,2.7,3,6.7,0.7,9.5c-2.7,3.2-7.3,3.4-10.3,0.4c-2.7-2.7-5.4-5.4-8.1-8.1c-4.6-4.6-9.2-9.2-13.8-13.8c-0.2-0.2-0.3-0.4-0.5-0.6
		C59.3,83.8,54.8,85,49.7,84.9z M63.7,45.6c0.2,0.3,0.6,0.6,0.9,1c3.6,4.3,5,9.2,4.2,14.8c-1.6,10.6-11.6,17.5-22.1,15.3
		c-10-2.1-16.5-12.2-14.2-22.1c0.8-3.2,2.2-6.1,4.4-8.5c0.2-0.2,0.4-0.6,0.3-0.8c-0.8-1.5-1.6-3-2.3-4.5c-5.4,4.3-9.4,12.9-7.7,22
		c1.6,8.5,8.6,16.7,15.8,18.2c0.3-0.5,0.5-0.9,0.8-1.4c0.3-0.6,0.7-1.2,1.5-1.2c0.8,0,1.2,0.5,1.5,1.1c0.4,0.7,0.8,1.3,1.1,2
		c0.2,0.5,0.6,0.7,1.1,0.7c1.8-0.1,3.5,0,5.3-0.3c9.6-1.7,16.2-7.2,19-16.5c2.8-9.3,0.4-17.5-6.5-24.3c-0.2-0.2-0.4-0.3-0.5-0.5
		C65.3,42.3,64.5,43.8,63.7,45.6z M45.2,82.3c-0.2,0.3-0.3,0.5-0.5,0.8c-1.2,2-2.3,4-3.4,6c-0.4,0.8-1,1.1-1.9,1.1
		c-3.7,0-7.4,0-11,0c-1.2,0-1.7,0.5-1.7,1.7c0,3.2,0,6.5,0,9.7c0,1.3,0.4,1.8,1.8,1.8c11.1,0,22.3,0,33.4,0c1.4,0,1.8-0.4,1.8-1.8
		c0-3.2,0-6.4,0-9.6c0-1.4-0.4-1.8-1.8-1.8c-3.7,0-7.4,0-11,0c-0.8,0-1.3-0.3-1.7-1c-1.1-2-2.3-4.1-3.5-6.1
		C45.5,82.9,45.4,82.6,45.2,82.3z M66,80c0.1,0.1,0.3,0.3,0.5,0.5c7.1,7.1,14.2,14.2,21.3,21.3c0.2,0.2,0.4,0.4,0.5,0.5
		c2.4,2.1,6.1,0.9,6.9-2.2c0.4-1.8-0.2-3.2-1.4-4.4c-7.1-7.1-14.2-14.2-21.4-21.3c-0.2-0.2-0.4-0.3-0.4-0.4C70,76.1,68.1,78,66,80z
		 M58.1,36.6c-0.2,0.1-0.3,0.2-0.5,0.3c-2.2,1.6-4.6,2.7-7.3,2.9c-1.7,0.1-3.4,0.1-5.1,0.1c-2,0.1-3.8,1.5-3.9,3.5
		c-0.1,1.5-0.1,3.1,0.1,4.6c0.6,4.4,4.6,7.7,9.1,7.7c4.5,0,8.5-3.3,9-7.7c0.3-2.2,0.1-4.5,0.2-6.7C59.8,39.6,59.2,38.1,58.1,36.6z
		 M38.7,42.6c0.2-0.4,0.3-0.7,0.4-1c1-2.5,3.3-4.2,6-4.3c1.1,0,2.3,0,3.4,0c2.8,0,5.3-0.8,7.5-2.5c0.6-0.4,1.1-0.8,1.7-1.2
		c0.6-0.4,1.3-0.4,1.8,0.2c1.3,1.8,2.6,3.6,2.9,5.8c0.1,0.8,0.1,1.6,0.2,2.6c0.2-0.4,0.3-0.7,0.4-0.9c2.3-5.4-0.3-11.4-6-13.6
		c-4.1-1.6-8.3-1.5-12.4-0.1c-2.7,0.9-4.8,2.6-6,5.2C36.8,36.1,36.9,39.3,38.7,42.6z M37.7,67.7c6.3,9,19.7,8.7,25.6-0.1
		c-0.5-0.5-1-0.9-1.5-1.4c-1.9-1.6-4.2-2-6.5-2.3c-0.4-0.1-0.9,0-1.2,0.2c-2.1,1-4.3,1.2-6.5,0.3c-1.1-0.5-2.1-0.5-3.2-0.3
		C41.8,64.5,39.4,65.5,37.7,67.7z M45.2,61.2c0-1,0-2.1,0-3.2c0-0.5-0.1-0.8-0.6-1.1c-2.7-1.5-4.5-3.8-5.4-6.7
		c-0.2-0.7-0.4-1.4-0.5-2.1c-3.7,3.6-5.5,11.1-2.5,16.9c1.4-0.9,2.7-1.9,4.2-2.5C41.8,61.9,43.5,61.6,45.2,61.2z M64.7,65.3
		c3.3-6.2,1.1-14.1-2.4-17.1c-0.7,4-2.5,6.6-6.1,8.8c-0.2,0.1-0.4,0.4-0.4,0.6c0,1.2,0,2.4,0,3.7C59.2,61.7,62.3,62.7,64.7,65.3z
		 M47.8,58.3c0,0.9,0,1.9,0,2.9c0,0.2,0.2,0.5,0.4,0.6c1.5,0.6,2.9,0.6,4.4,0c0.2-0.1,0.4-0.3,0.4-0.5c0-1,0-2.1,0-3
		C51.3,58.3,49.6,58.3,47.8,58.3z"/>
	<path class="st1" d="M88.8,44.3c-2.3,1.9-4.5,3.8-6.7,5.6c-0.6,0.5-1.2,0.8-1.9,0.3c-0.7-0.5-0.6-1.1-0.4-1.8
		c0.7-2.4,1.4-4.9,2.1-7.3c0.2-0.6,0.1-1-0.4-1.4c-1.7-1.7-3.4-3.4-5.1-5.1c-0.5-0.5-0.9-1-0.6-1.7c0.3-0.7,0.9-0.9,1.6-0.9
		c2,0,4,0,6,0c0.5,0,0.8-0.2,1-0.6c1-2.1,2-4.1,3-6.1c0.3-0.6,0.7-1.1,1.4-1.1c0.8,0,1.2,0.5,1.5,1.1c1,2,2,4,3,6.1
		c0.2,0.5,0.5,0.7,1.1,0.7c2,0,4.1,0,6.1,0c0.7,0,1.2,0.2,1.5,0.8c0.3,0.7,0,1.2-0.4,1.6c-1.8,1.8-3.6,3.6-5.4,5.4
		c-0.3,0.3-0.4,0.6-0.3,1.1c0.8,2.5,1.4,5.1,2.2,7.6c0.2,0.7,0.2,1.3-0.5,1.7c-0.7,0.4-1.2,0.2-1.8-0.3c-2-1.7-4-3.4-6-5
		C89.3,44.8,89.1,44.6,88.8,44.3z M94.2,45.4c-0.5-1.7-0.9-3.3-1.4-4.8c-0.2-0.8-0.1-1.3,0.5-1.9c1-0.9,1.9-1.9,2.8-2.8
		c0.4-0.4,0.8-0.8,1.3-1.3c-1.4,0-2.6-0.1-3.8,0c-1.3,0.1-2.1-0.4-2.6-1.6c-0.7-1.6-1.5-3-2.3-4.7c-0.2,0.4-0.3,0.6-0.5,0.8
		c-0.7,1.4-1.4,2.7-2,4.1c-0.4,0.9-1,1.4-2,1.3c-0.6-0.1-1.2,0-1.8,0c-0.7,0-1.4,0-2.4,0c1.4,1.4,2.5,2.6,3.8,3.7
		c0.9,0.8,1.2,1.6,0.7,2.8c-0.5,1.3-0.8,2.7-1.2,4.1c0.1,0,0.2,0,0.2,0c1.4-1.1,2.7-2.2,4.1-3.4c0.9-0.8,1.4-0.8,2.3,0
		C91.3,43,92.7,44.1,94.2,45.4z"/>
	<path class="st1" d="M92.7,70.8c-2,1.6-3.9,3.2-5.8,4.8c-0.4,0.3-0.8,0.6-1.1,1c-0.5,0.5-1.1,0.6-1.7,0.2c-0.6-0.4-0.7-1-0.5-1.6
		c0.7-2.5,1.4-5,2.2-7.5c0.2-0.6,0.1-0.9-0.3-1.4c-1.8-1.7-3.5-3.5-5.2-5.2c-0.5-0.5-0.9-1-0.6-1.7c0.3-0.7,0.9-0.8,1.6-0.8
		c2,0,3.9,0,5.9,0c0.6,0,0.9-0.2,1.2-0.7c1-2,2-4,3-6c0.3-0.6,0.7-1.1,1.4-1.1c0.7,0,1.1,0.5,1.4,1.1c1,2.1,2.1,4.1,3.1,6.2
		c0.2,0.4,0.5,0.6,1,0.6c2,0,4.1,0,6.1,0c0.7,0,1.3,0.1,1.6,0.8c0.3,0.7,0,1.2-0.5,1.7c-1.8,1.8-3.6,3.6-5.4,5.4
		c-0.3,0.3-0.4,0.6-0.3,1.1c0.7,2.5,1.4,5,2.2,7.4c0.2,0.8,0.3,1.4-0.5,1.9c-0.7,0.5-1.3,0.1-1.9-0.4c-2-1.7-4-3.4-6-5
		C93.2,71.2,93,71,92.7,70.8z M98,71.7c0,0,0.1-0.1,0.1-0.1c-0.4-1.3-0.7-2.7-1.2-4c-0.4-1.2-0.2-2,0.7-2.8c1.3-1.1,2.4-2.4,3.8-3.7
		c-1.6,0-2.9,0-4.3,0c-1,0-1.5-0.4-1.9-1.2c-0.7-1.5-1.5-3-2.2-4.4c-0.1-0.2-0.2-0.3-0.4-0.6c-0.9,1.8-1.7,3.4-2.5,5
		c-0.4,0.8-0.9,1.2-1.9,1.2c-1.4-0.1-2.7,0-4.3,0c1.5,1.5,2.7,2.8,4,4c0.6,0.6,0.8,1.2,0.5,2c-0.5,1.5-0.9,3-1.4,4.7
		c1.5-1.3,2.8-2.4,4.2-3.5c1.1-1,1.5-1,2.6,0C95.4,69.5,96.7,70.6,98,71.7z"/>
	<path class="st0" d="M63.7,45.6c0.8-1.7,1.6-3.3,2.4-5c0.1,0.1,0.4,0.3,0.5,0.5c6.9,6.8,9.3,15,6.5,24.3c-2.8,9.3-9.4,14.8-19,16.5
		c-1.7,0.3-3.5,0.2-5.3,0.3c-0.5,0-0.9-0.2-1.1-0.7c-0.3-0.7-0.8-1.3-1.1-2c-0.3-0.6-0.7-1.2-1.5-1.1c-0.8,0-1.1,0.6-1.5,1.2
		c-0.3,0.5-0.5,0.9-0.8,1.4c-7.2-1.5-14.3-9.7-15.8-18.2c-1.7-9.1,2.4-17.7,7.7-22c0.8,1.5,1.6,2.9,2.3,4.5c0.1,0.2-0.1,0.6-0.3,0.8
		c-2.2,2.5-3.7,5.3-4.4,8.5c-2.3,9.9,4.2,20.1,14.2,22.1c10.4,2.1,20.5-4.8,22.1-15.3c0.9-5.5-0.6-10.5-4.2-14.8
		C64.2,46.2,63.9,45.8,63.7,45.6z"/>
	<path class="st0" d="M45.2,82.3c0.2,0.3,0.3,0.5,0.5,0.8c1.2,2,2.3,4,3.5,6.1c0.4,0.7,0.9,1,1.7,1c3.7,0,7.4,0,11,0
		c1.3,0,1.8,0.4,1.8,1.8c0,3.2,0,6.4,0,9.6c0,1.3-0.4,1.8-1.8,1.8c-11.1,0-22.3,0-33.4,0c-1.4,0-1.8-0.4-1.8-1.8c0-3.2,0-6.5,0-9.7
		c0-1.2,0.5-1.7,1.7-1.7c3.7,0,7.4,0,11,0c0.9,0,1.4-0.3,1.9-1.1c1.1-2,2.3-4,3.4-6C44.9,82.9,45,82.6,45.2,82.3z M61,98.1
		c-10.6,0-21.1,0-31.6,0c0,0.9,0,1.7,0,2.5c10.6,0,21.1,0,31.6,0C61,99.8,61,99,61,98.1z M58.4,92.9c-8.8,0-17.6,0-26.3,0
		c0,0.9,0,1.7,0,2.5c8.8,0,17.5,0,26.3,0C58.4,94.5,58.4,93.7,58.4,92.9z"/>
	<path class="st0" d="M66,80c2-2,4-4,6-6c0.1,0.1,0.3,0.2,0.4,0.4c7.1,7.1,14.2,14.2,21.4,21.3c1.2,1.2,1.8,2.7,1.4,4.4
		c-0.8,3.1-4.5,4.2-6.9,2.2c-0.2-0.2-0.4-0.3-0.5-0.5c-7.1-7.1-14.2-14.2-21.3-21.3C66.3,80.3,66.1,80.1,66,80z"/>
	<path class="st0" d="M58.1,36.6c1.1,1.4,1.7,3,1.7,4.7c-0.1,2.3,0.1,4.5-0.2,6.7c-0.5,4.4-4.5,7.7-9,7.7c-4.5,0-8.5-3.3-9.1-7.7
		c-0.2-1.5-0.2-3.1-0.1-4.6c0.1-2,1.9-3.5,3.9-3.5c1.7,0,3.4,0,5.1-0.1c2.7-0.2,5.1-1.3,7.3-2.9C57.7,36.9,57.9,36.8,58.1,36.6z"/>
	<path class="st0" d="M38.7,42.6c-1.8-3.3-1.9-6.5-0.3-9.7c1.3-2.6,3.4-4.3,6-5.2c4.1-1.3,8.4-1.4,12.4,0.1c5.7,2.2,8.3,8.2,6,13.6
		c-0.1,0.3-0.2,0.5-0.4,0.9c-0.1-1-0.1-1.8-0.2-2.6c-0.3-2.3-1.6-4.1-2.9-5.8c-0.5-0.6-1.1-0.6-1.8-0.2c-0.6,0.4-1.1,0.8-1.7,1.2
		c-2.2,1.7-4.7,2.5-7.5,2.5c-1.1,0-2.3,0-3.4,0c-2.7,0.1-5.1,1.8-6,4.3C38.9,41.9,38.8,42.2,38.7,42.6z"/>
	<path class="st0" d="M37.7,67.7c1.8-2.2,4.1-3.2,6.8-3.6c1.1-0.2,2.1-0.2,3.2,0.3c2.2,0.9,4.3,0.7,6.5-0.3c0.4-0.2,0.8-0.3,1.2-0.2
		c2.3,0.3,4.6,0.7,6.5,2.3c0.5,0.4,1,0.9,1.5,1.4C57.3,76.3,44,76.6,37.7,67.7z"/>
	<path class="st0" d="M45.2,61.2c-1.7,0.5-3.4,0.7-4.9,1.4c-1.5,0.6-2.8,1.7-4.2,2.5c-3-5.8-1.2-13.3,2.5-16.9
		c0.2,0.7,0.3,1.4,0.5,2.1c1,2.9,2.8,5.2,5.4,6.7c0.5,0.3,0.6,0.6,0.6,1.1C45.2,59,45.2,60.1,45.2,61.2z"/>
	<path class="st0" d="M64.7,65.3c-2.4-2.6-5.5-3.6-8.9-3.9c0-1.3,0-2.5,0-3.7c0-0.2,0.2-0.5,0.4-0.6c3.6-2.2,5.4-4.8,6.1-8.8
		C65.8,51.2,68,59,64.7,65.3z"/>
	<path class="st0" d="M47.8,58.3c1.8,0,3.5,0,5.3,0c0,0.9,0,2,0,3c0,0.2-0.2,0.4-0.4,0.5c-1.5,0.6-2.9,0.6-4.4,0
		c-0.2-0.1-0.4-0.4-0.4-0.6C47.8,60.3,47.8,59.3,47.8,58.3z"/>
	<path class="st0" d="M94.2,45.4c-1.6-1.3-2.9-2.4-4.3-3.6c-0.9-0.8-1.4-0.8-2.3,0c-1.4,1.1-2.7,2.2-4.1,3.4c0,0-0.1,0-0.2,0
		c0.4-1.4,0.7-2.8,1.2-4.1c0.4-1.2,0.2-2-0.7-2.8c-1.2-1.1-2.4-2.3-3.8-3.7c0.9,0,1.7,0,2.4,0c0.6,0,1.2-0.1,1.8,0
		c1,0.1,1.6-0.4,2-1.3c0.6-1.4,1.4-2.8,2-4.1c0.1-0.2,0.3-0.5,0.5-0.8c0.8,1.6,1.6,3.1,2.3,4.7c0.5,1.2,1.3,1.7,2.6,1.6
		c1.2-0.1,2.4,0,3.8,0c-0.5,0.5-0.9,0.9-1.3,1.3c-0.9,0.9-1.9,1.9-2.8,2.8c-0.6,0.5-0.7,1.1-0.5,1.9C93.3,42.2,93.7,43.7,94.2,45.4z
		"/>
	<path class="st0" d="M98,71.7c-1.3-1.1-2.6-2.2-3.9-3.3c-1.2-1-1.5-1-2.6,0c-1.3,1.1-2.7,2.2-4.2,3.5c0.5-1.7,0.9-3.2,1.4-4.7
		c0.3-0.8,0.1-1.4-0.5-2c-1.3-1.3-2.6-2.6-4-4c1.6,0,2.9,0,4.3,0c0.9,0,1.5-0.3,1.9-1.2c0.8-1.7,1.6-3.3,2.5-5
		c0.2,0.2,0.3,0.4,0.4,0.6c0.7,1.5,1.5,2.9,2.2,4.4c0.4,0.9,1,1.3,1.9,1.2c1.3-0.1,2.7,0,4.3,0c-1.4,1.4-2.5,2.6-3.8,3.7
		c-0.9,0.8-1.2,1.6-0.7,2.8c0.5,1.3,0.8,2.7,1.2,4C98.1,71.6,98,71.7,98,71.7z"/>
	<path class="st1" d="M61,98.1c0,0.9,0,1.7,0,2.5c-10.5,0-21,0-31.6,0c0-0.8,0-1.7,0-2.5C39.9,98.1,50.4,98.1,61,98.1z"/>
	<path class="st1" d="M58.4,92.9c0,0.9,0,1.7,0,2.5c-8.8,0-17.5,0-26.3,0c0-0.9,0-1.7,0-2.5C40.8,92.9,49.5,92.9,58.4,92.9z"/>
</g>
</svg>
