<?xml version="1.0" encoding="utf-8"?>
<!-- Generator: Adobe Illustrator 23.1.1, SVG Export Plug-In . SVG Version: 6.00 Build 0)  -->
<svg version="1.1" id="Capa_1" xmlns="http://www.w3.org/2000/svg" xmlns:xlink="http://www.w3.org/1999/xlink" x="0px" y="0px"
	 viewBox="0 0 130 130" style="enable-background:new 0 0 130 130;" xml:space="preserve">
<style type="text/css">
	.st0{fill:#3C4660;}
	.st1{fill:#D7B68C;}
</style>
<g>
	<circle class="st0" cx="65" cy="65" r="65"/>
	<g>
		<path class="st1" d="M63.1,41.5c0.7,0,1.4,0,2.1,0c1.2,0.1,2.2,0.9,2.3,2.1c0.1,1,0.1,2.1,0,3.1c-0.1,1.2-1.1,2-2.3,2.1
			c-0.7,0-1.4,0-2.1,0c-0.2,0.6-0.4,1.2-0.5,1.8c0,0.2,0.1,0.5,0.3,0.6c0.5,0.3,1,0.6,1.5,0.9c1,0.7,1.4,1.9,0.8,3
			c-0.4,0.8-0.9,1.6-1.4,2.4c-0.7,1.1-1.9,1.4-3.1,0.8c-0.6-0.3-1.2-0.7-2.1-1.2c-0.2,0.3-0.4,0.6-0.6,0.8c-0.2,0.3-0.5,0.5-0.8,0.8
			c0.3,0.5,0.7,1.1,1,1.7c0.7,1.4,0.4,2.6-0.9,3.4c-0.7,0.4-1.4,0.8-2.1,1.2c-1.3,0.7-2.6,0.3-3.4-0.9c-0.1-0.2-0.2-0.3-0.3-0.5
			c-0.7-1.2-0.7-1.2-2.1-0.9c-0.6,0.1-0.8,0.4-0.7,1c0.3,3.3-1.2,3.9-3.8,3.8c-0.5,0-1,0-1.4-0.1c-1.2-0.2-2-1-2.1-2.2
			c0-0.5-0.1-1,0-1.4c0.1-0.6-0.2-0.9-0.8-1c-1.4-0.3-1.4-0.3-2,0.9c-1.2,2-2.2,2.3-4.2,1.1c-0.5-0.3-1-0.6-1.5-0.9
			c-1.3-0.8-1.7-2.1-0.9-3.4c0.3-0.6,0.6-1.1,1-1.7c-0.5-0.5-1.1-0.9-1.7-1.5c-0.4,0.2-0.9,0.5-1.5,0.8c-1.4,0.8-2.7,0.4-3.5-1
			c-0.4-0.6-0.8-1.3-1.1-1.9c-0.7-1.4-0.4-2.6,0.9-3.4c0,0,0.1,0,0.1,0c1.7-1.1,1.7-1.1,1-3.1c-0.6,0-1.3,0-1.9,0
			c-1.5,0-2.5-0.9-2.6-2.4c-0.1-0.9-0.1-1.8,0-2.6c0.1-1.4,1-2.3,2.4-2.3c0.7,0,1.4,0,2,0c0.2-0.7,0.4-1.4,0.6-2.1
			c-0.6-0.4-1.2-0.7-1.8-1c-1.2-0.8-1.6-2-0.9-3.3c0.4-0.7,0.8-1.4,1.2-2.1c0.8-1.3,2.1-1.6,3.4-0.9c0.6,0.3,1.1,0.6,1.8,1
			c0.5-0.5,0.9-1.1,1.4-1.7c-0.2-0.4-0.6-0.9-0.9-1.5c-0.8-1.4-0.4-2.7,1-3.5c0.6-0.4,1.2-0.7,1.8-1.1c1.4-0.8,2.7-0.5,3.5,0.9
			c0.3,0.5,0.6,1.1,1,1.7c0.7-0.2,1.4-0.4,2.1-0.6c0-0.6,0-1.3,0-1.9c0-1.6,0.9-2.5,2.5-2.6c0.7,0,1.5,0,2.2,0c1.6,0,2.6,1,2.6,2.6
			c0,0.6,0,1.2,0,1.9c0.7,0.2,1.4,0.4,2.1,0.6c0.3-0.6,0.6-1.1,0.9-1.6c0.8-1.4,2.1-1.8,3.5-1c0.6,0.4,1.3,0.7,1.9,1.1
			c1.4,0.8,1.7,2.1,0.9,3.6c-0.3,0.5-0.6,1.1-0.9,1.6c0.5,0.5,1,1,1.6,1.5c0.5-0.3,1.1-0.6,1.7-1c1.3-0.7,2.6-0.3,3.4,0.9
			c0.4,0.7,0.8,1.4,1.2,2.1c0.7,1.3,0.4,2.6-0.9,3.4c-0.1,0.1-0.2,0.1-0.2,0.1C62.2,39.5,62.2,39.5,63.1,41.5z M63.5,47
			c0.4,0,0.8,0,1.2,0c0.7,0,1.1-0.3,1-1c0-0.7,0-1.3,0-1.9c0-0.6-0.3-0.9-0.9-0.9c-0.8,0-1.6,0-2.4,0c-0.7,0-1-0.3-1.2-1
			c-0.2-0.9-0.4-1.8-0.7-2.7c-0.3-0.7-0.1-1.2,0.6-1.5c0.7-0.3,1.3-0.8,1.9-1.1c0.7-0.3,0.7-0.8,0.4-1.4c-0.3-0.5-0.6-1.1-0.9-1.6
			c-0.3-0.6-0.7-0.7-1.3-0.3c-0.6,0.4-1.3,0.8-2,1.2c-0.5,0.3-1,0.3-1.4-0.2c-0.7-0.7-1.4-1.4-2.2-2.1c-0.4-0.4-0.5-0.8-0.2-1.4
			c0.4-0.7,0.8-1.4,1.2-2c0.4-0.6,0.3-1-0.3-1.3c-0.6-0.3-1.1-0.6-1.7-1c-0.5-0.3-0.9-0.2-1.3,0.3c-0.4,0.7-0.8,1.4-1.2,2.1
			c-0.3,0.5-0.7,0.7-1.3,0.5c-0.9-0.3-1.9-0.6-2.8-0.8c-0.7-0.2-1-0.5-1-1.2c0-0.8,0-1.6,0-2.4c0-0.6-0.3-0.9-0.9-0.9
			c-0.7,0-1.4,0-2,0c-0.7,0-0.9,0.3-0.9,0.9c0,0.8,0,1.5,0,2.3c0,0.7-0.3,1-0.9,1.2c-1,0.2-1.9,0.5-2.8,0.8c-0.6,0.2-1,0-1.3-0.5
			c-0.4-0.7-0.8-1.4-1.2-2.1c-0.3-0.5-0.6-0.7-1.2-0.4c-0.6,0.3-1.2,0.7-1.8,1c-0.6,0.3-0.7,0.7-0.3,1.3c0.4,0.7,0.8,1.4,1.2,2
			c0.3,0.5,0.2,0.9-0.2,1.4c-0.7,0.7-1.5,1.4-2.2,2.1c-0.4,0.5-0.9,0.5-1.4,0.2c-0.7-0.4-1.3-0.7-2-1.2c-0.6-0.4-1-0.2-1.4,0.4
			c-0.3,0.5-0.6,1-0.9,1.5c-0.4,0.6-0.3,1,0.4,1.4c0.7,0.4,1.4,0.8,2.1,1.2c0.5,0.3,0.7,0.6,0.5,1.2c-0.3,1-0.6,2-0.8,3
			c-0.1,0.6-0.5,0.9-1.1,0.9c-0.8,0-1.6,0-2.4,0c-0.7,0-1,0.3-1,1c0,0.7,0,1.3,0,1.9c0,0.7,0.3,0.9,0.9,0.9c0.7,0,1.5,0,2.2,0
			c0.8,0,1.1,0.3,1.3,1c0.2,0.9,0.4,1.8,0.7,2.7c0.2,0.7,0.1,1.1-0.6,1.5c-0.7,0.4-1.3,0.8-2,1.1c-0.6,0.3-0.7,0.7-0.3,1.3
			c0.3,0.6,0.7,1.1,1,1.7c0.3,0.6,0.7,0.7,1.3,0.3c0.7-0.4,1.4-0.8,2.1-1.2c0.5-0.3,0.9-0.2,1.3,0.2c0.7,0.7,1.5,1.5,2.2,2.2
			c0.4,0.4,0.5,0.8,0.2,1.4c-0.4,0.7-0.9,1.5-1.3,2.2c-0.3,0.5-0.2,0.8,0.3,1.1c0.6,0.4,1.3,0.7,1.9,1.1c0.5,0.3,0.9,0.2,1.1-0.3
			c0.4-0.7,0.8-1.4,1.2-2.1c0.3-0.5,0.7-0.7,1.3-0.5c0.9,0.3,1.9,0.5,2.9,0.8c0.7,0.2,1,0.5,0.9,1.2c0,0.8,0,1.5,0,2.3
			c0,0.6,0.3,0.9,0.9,0.9c0.7,0,1.4,0,2,0c0.6,0,0.9-0.3,0.9-0.9c0-0.8,0-1.6,0-2.4c0-0.7,0.3-1,1-1.2c0.9-0.2,1.9-0.4,2.8-0.7
			c0.7-0.2,1.1-0.1,1.4,0.5c0.4,0.7,0.8,1.3,1.1,2c0.3,0.7,0.8,0.7,1.4,0.4c0.5-0.3,1.1-0.6,1.6-0.9c0.6-0.3,0.7-0.7,0.4-1.3
			c-0.4-0.7-0.8-1.4-1.2-2c-0.3-0.5-0.3-1,0.2-1.4c0.7-0.7,1.5-1.4,2.2-2.2c0.4-0.4,0.8-0.5,1.4-0.2c0.7,0.4,1.4,0.8,2.1,1.2
			c0.5,0.3,0.9,0.2,1.2-0.3c0.3-0.6,0.7-1.2,1-1.8c0.3-0.6,0.2-0.9-0.4-1.2c-0.7-0.4-1.4-0.8-2.1-1.2c-0.5-0.3-0.7-0.7-0.5-1.3
			c0.3-0.7,0.5-1.5,0.6-2.2c0.4-1.6,0.4-1.6,2-1.6C63.3,47,63.4,47,63.5,47z"/>
		<path class="st1" d="M76,107.2c-9.1,0-18.3,0-27.4,0c-1.9,0-3.2-0.9-3.6-2.5c-0.6-2,0.9-4.1,3-4.2c0.2,0,0.4,0,0.6,0
			c18.3,0,36.6,0,54.9,0c1.8,0,3.1,0.9,3.6,2.4c0.6,2.1-0.8,4.1-3,4.3c-0.3,0-0.6,0-0.9,0C94.1,107.2,85.1,107.2,76,107.2z
			 M76,105.4c9,0,18.1,0,27.1,0c0.3,0,0.7,0,1,0c0.8-0.1,1.3-0.7,1.3-1.5c0-1.1-0.7-1.6-2.2-1.6c-18.1,0-36.2,0-54.3,0
			c-0.3,0-0.6,0-0.9,0.1c-0.8,0.1-1.3,0.8-1.3,1.5c0,0.8,0.5,1.4,1.3,1.5c0.3,0.1,0.7,0,1,0C58,105.4,67,105.4,76,105.4z"/>
		<path class="st1" d="M90.9,81.8c0-4.8,0-9.6,0-14.4c0-2,0.8-2.8,2.8-2.8c1.8,0,3.5,0,5.2,0c2.1,0,2.9,0.8,2.9,2.9
			c0,8.7,0,17.4,0,26.1c0,0.9,0,1.9,0,2.8c0,1.7-0.9,2.6-2.5,2.6c-2,0-3.9,0-5.9,0c-1.7,0-2.5-0.9-2.5-2.6
			C90.9,91.6,90.9,86.7,90.9,81.8z M100.1,81.8c0-4.8,0-9.5,0-14.3c0-1.1-0.1-1.2-1.1-1.2c-1.8,0-3.6,0-5.3,0c-0.7,0-1,0.3-1,1
			c0,9.7,0,19.3,0,29c0,0.8,0.3,1,1,1c1.8,0,3.5,0,5.2,0c1.2,0,1.2,0,1.2-1.2C100.1,91.3,100.1,86.6,100.1,81.8z"/>
		<path class="st1" d="M75.2,83.8c0,4.2,0,8.3,0,12.5c0,1.9-0.8,2.8-2.8,2.8c-1.8,0-3.7,0-5.5,0c-1.8,0-2.7-0.9-2.7-2.7
			c0-8.4,0-16.8,0-25.2c0-1.8,0.9-2.7,2.8-2.7c1.8,0,3.7,0,5.5,0c1.9,0,2.7,0.9,2.7,2.8C75.2,75.4,75.2,79.6,75.2,83.8z M73.4,83.8
			c0-4.1,0-8.2,0-12.3c0-1.2,0-1.2-1.3-1.2c-1.8,0-3.6,0-5.3,0c-0.7,0-0.9,0.3-0.9,0.9c0,8.4,0,16.8,0,25.3c0,0.7,0.2,1,0.9,0.9
			c1.8,0,3.6,0,5.3,0c1.1,0,1.2-0.1,1.2-1.2C73.4,92,73.4,87.9,73.4,83.8z"/>
		<path class="st1" d="M96,55.5c-0.7,0-1.1,0-1.6,0c-0.6,0-1.1-0.3-1.1-0.9c0-0.6,0.5-0.9,1.1-0.9c1.2,0,2.3,0,3.5,0
			c0.6,0,1,0.3,1,1c0,1.2,0,2.4,0,3.6c0,0.6-0.3,0.9-0.9,0.9c-0.6,0-0.9-0.4-0.9-0.9c0-0.4,0-0.8,0-1.2c-0.1-0.1-0.2-0.1-0.2-0.2
			c-0.2,0.3-0.4,0.5-0.6,0.8c-4.3,4.6-8.6,9.2-12.8,13.8c-0.9,0.9-1.1,0.9-2.1,0.2c-4.6-3.6-9.2-7.2-13.8-10.8
			c-0.2-0.2-0.4-0.3-0.7-0.5c-1,1-2,1.9-2.9,2.8c-3.9,3.8-7.7,7.5-11.6,11.3c-0.2,0.2-0.4,0.5-0.6,0.6c-0.4,0.1-0.9,0.1-1.1-0.1
			c-0.2-0.2-0.1-0.7-0.1-1.1c0-0.2,0.3-0.4,0.5-0.6c4.9-4.8,9.8-9.6,14.8-14.4c0.8-0.8,1-0.8,1.9-0.1c4.6,3.6,9.2,7.2,13.8,10.8
			c0.2,0.2,0.5,0.3,0.7,0.5C86.8,65.3,91.3,60.5,96,55.5z"/>
		<path class="st1" d="M77.5,88.2c0-2.8,0-5.5,0-8.3c0-1.8,0.9-2.7,2.7-2.7c1.9,0,3.8,0,5.7,0c1.8,0,2.7,0.9,2.7,2.7
			c0,5.5,0,10.9,0,16.4c0,1.8-0.9,2.7-2.7,2.7c-1.9,0-3.8,0-5.7,0c-1.8,0-2.6-0.9-2.6-2.7C77.5,93.6,77.5,90.9,77.5,88.2z
			 M86.8,88.2c0-2.8,0-5.5,0-8.3c0-0.7-0.2-1-0.9-1c-1.9,0-3.8,0-5.7,0c-0.7,0-0.9,0.3-0.9,0.9c0,5.5,0,11,0,16.5
			c0,0.7,0.3,0.9,1,0.9c1.8,0,3.6,0,5.4,0c1,0,1.1-0.1,1.1-1.1C86.8,93.5,86.8,90.9,86.8,88.2z"/>
		<path class="st1" d="M61.8,90.4c0,2,0,4,0,6c0,1.8-0.9,2.7-2.6,2.7c-1.9,0-3.8,0-5.7,0c-1.7,0-2.6-0.9-2.6-2.6c0-4.1,0-8.1,0-12.2
			c0-1.8,0.9-2.6,2.7-2.6c1.9,0,3.8,0,5.7,0c1.8,0,2.6,0.9,2.6,2.7C61.9,86.3,61.8,88.3,61.8,90.4z M52.7,90.3c0,2,0,4.1,0,6.1
			c0,0.6,0.2,0.9,0.9,0.9c1.9,0,3.8,0,5.7,0c0.7,0,0.9-0.3,0.9-1c0-4,0-8,0-12c0-0.7-0.2-1-0.9-1c-1.8,0-3.7,0.1-5.5,0
			c-0.8,0-1.1,0.3-1.1,1.1C52.7,86.4,52.7,88.4,52.7,90.3z"/>
		<path class="st0" d="M63.5,47c-0.1,0-0.2,0-0.3,0c-1.6,0-1.6,0-2,1.6c-0.2,0.7-0.4,1.5-0.6,2.2c-0.2,0.6,0,1,0.5,1.3
			c0.7,0.4,1.4,0.8,2.1,1.2c0.6,0.3,0.7,0.7,0.4,1.2c-0.4,0.6-0.7,1.2-1,1.8c-0.3,0.5-0.7,0.6-1.2,0.3c-0.7-0.4-1.4-0.8-2.1-1.2
			c-0.5-0.3-0.9-0.2-1.4,0.2c-0.7,0.7-1.4,1.5-2.2,2.2c-0.5,0.4-0.5,0.9-0.2,1.4c0.4,0.7,0.8,1.4,1.2,2c0.3,0.6,0.2,1-0.4,1.3
			c-0.5,0.3-1.1,0.6-1.6,0.9c-0.6,0.4-1,0.3-1.4-0.4c-0.4-0.7-0.8-1.3-1.1-2c-0.3-0.6-0.8-0.7-1.4-0.5c-0.9,0.3-1.8,0.5-2.8,0.7
			c-0.7,0.2-1,0.5-1,1.2c0,0.8,0,1.6,0,2.4c0,0.6-0.3,0.9-0.9,0.9c-0.7,0-1.4,0-2,0c-0.7,0-0.9-0.3-0.9-0.9c0-0.8,0-1.5,0-2.3
			c0-0.7-0.3-1-0.9-1.2c-1-0.2-1.9-0.5-2.9-0.8c-0.6-0.2-1,0-1.3,0.5c-0.4,0.7-0.8,1.4-1.2,2.1c-0.3,0.5-0.6,0.6-1.1,0.3
			c-0.6-0.4-1.3-0.7-1.9-1.1c-0.4-0.3-0.5-0.6-0.3-1.1c0.4-0.7,0.8-1.5,1.3-2.2c0.3-0.5,0.2-0.9-0.2-1.4c-0.8-0.7-1.5-1.5-2.2-2.2
			c-0.4-0.4-0.8-0.5-1.3-0.2c-0.7,0.4-1.4,0.8-2.1,1.2c-0.6,0.3-0.9,0.2-1.3-0.3c-0.3-0.6-0.6-1.1-1-1.7c-0.3-0.5-0.2-0.9,0.3-1.3
			c0.7-0.4,1.3-0.8,2-1.1c0.6-0.3,0.8-0.8,0.6-1.5c-0.3-0.9-0.5-1.8-0.7-2.7c-0.2-0.7-0.5-1.1-1.3-1c-0.7,0-1.5,0-2.2,0
			c-0.6,0-1-0.3-0.9-0.9c0-0.7,0-1.3,0-1.9c0-0.7,0.3-1,1-1c0.8,0,1.6,0,2.4,0c0.6,0,0.9-0.3,1.1-0.9c0.3-1,0.5-2,0.8-3
			c0.2-0.6,0-0.9-0.5-1.2c-0.7-0.4-1.4-0.8-2.1-1.2c-0.7-0.3-0.7-0.8-0.4-1.4c0.3-0.5,0.6-1,0.9-1.5c0.3-0.6,0.7-0.8,1.4-0.4
			c0.6,0.4,1.3,0.8,2,1.2c0.6,0.3,1,0.3,1.4-0.2c0.7-0.7,1.4-1.4,2.2-2.1c0.4-0.4,0.5-0.8,0.2-1.4c-0.4-0.7-0.8-1.4-1.2-2
			c-0.4-0.6-0.3-1,0.3-1.3c0.6-0.3,1.2-0.7,1.8-1c0.5-0.3,0.9-0.1,1.2,0.4c0.4,0.7,0.8,1.4,1.2,2.1c0.3,0.5,0.7,0.7,1.3,0.5
			c0.9-0.3,1.9-0.6,2.8-0.8c0.6-0.2,1-0.5,0.9-1.2c0-0.8,0-1.5,0-2.3c0-0.6,0.2-1,0.9-0.9c0.7,0,1.4,0,2,0c0.6,0,0.9,0.3,0.9,0.9
			c0,0.8,0,1.6,0,2.4c0,0.7,0.3,1,1,1.2c1,0.2,1.9,0.5,2.8,0.8c0.6,0.2,1,0,1.3-0.5c0.4-0.7,0.8-1.4,1.2-2.1
			c0.3-0.6,0.7-0.7,1.3-0.3c0.6,0.3,1.1,0.7,1.7,1c0.6,0.3,0.7,0.8,0.3,1.3c-0.4,0.7-0.8,1.4-1.2,2c-0.3,0.5-0.2,0.9,0.2,1.4
			c0.7,0.7,1.5,1.4,2.2,2.1c0.4,0.5,0.9,0.5,1.4,0.2c0.7-0.4,1.3-0.8,2-1.2c0.6-0.4,1-0.3,1.3,0.3c0.3,0.5,0.6,1.1,0.9,1.6
			c0.4,0.6,0.3,1-0.4,1.4c-0.7,0.3-1.3,0.7-1.9,1.1c-0.7,0.4-0.8,0.8-0.6,1.5c0.3,0.9,0.5,1.8,0.7,2.7c0.2,0.7,0.5,1,1.2,1
			c0.8,0,1.6,0,2.4,0c0.6,0,0.9,0.3,0.9,0.9c0,0.7,0,1.3,0,1.9c0,0.7-0.3,1-1,1C64.3,47,63.9,47,63.5,47z M36.6,45.1
			c0,4.7,3.8,8.5,8.5,8.5c4.6,0,8.5-3.8,8.5-8.5c0-4.6-3.8-8.5-8.5-8.5C40.5,36.6,36.7,40.4,36.6,45.1z"/>
		<path class="st0" d="M76,105.4c-9,0-18,0-27,0c-0.3,0-0.7,0-1,0c-0.8-0.1-1.3-0.7-1.3-1.5c0-0.8,0.5-1.4,1.3-1.5
			c0.3-0.1,0.6-0.1,0.9-0.1c18.1,0,36.2,0,54.3,0c1.5,0,2.2,0.5,2.2,1.6c0,0.8-0.5,1.4-1.3,1.5c-0.3,0-0.7,0-1,0
			C94.1,105.4,85,105.4,76,105.4z"/>
		<path class="st0" d="M100.1,81.8c0,4.8,0,9.5,0,14.3c0,1.2,0,1.2-1.2,1.2c-1.8,0-3.5,0-5.2,0c-0.7,0-1-0.2-1-1c0-9.7,0-19.3,0-29
			c0-0.7,0.3-1,1-1c1.8,0,3.6,0,5.3,0c1.1,0,1.1,0.1,1.1,1.2C100.1,72.3,100.1,77.1,100.1,81.8z"/>
		<path class="st0" d="M73.4,83.8c0,4.1,0,8.2,0,12.3c0,1.1-0.1,1.2-1.2,1.2c-1.8,0-3.6,0-5.3,0c-0.7,0-0.9-0.3-0.9-0.9
			c0-8.4,0-16.8,0-25.3c0-0.6,0.2-0.9,0.9-0.9c1.8,0,3.6,0,5.3,0c1.2,0,1.3,0,1.3,1.2C73.4,75.5,73.4,79.6,73.4,83.8z"/>
		<path class="st0" d="M86.8,88.2c0,2.6,0,5.3,0,7.9c0,1-0.1,1.1-1.1,1.1c-1.8,0-3.6,0-5.4,0c-0.7,0-1-0.2-1-0.9c0-5.5,0-11,0-16.5
			c0-0.6,0.2-0.9,0.9-0.9c1.9,0,3.8,0,5.7,0c0.7,0,0.9,0.3,0.9,1C86.7,82.7,86.8,85.5,86.8,88.2z"/>
		<path class="st0" d="M52.7,90.3c0-1.9,0-3.9,0-5.8c0-0.8,0.2-1.1,1.1-1.1c1.8,0.1,3.7,0,5.5,0c0.7,0,0.9,0.3,0.9,1c0,4,0,8,0,12
			c0,0.7-0.2,1-0.9,1c-1.9,0-3.8,0-5.7,0c-0.7,0-0.9-0.3-0.9-0.9C52.7,94.3,52.7,92.3,52.7,90.3z"/>
		<path class="st1" d="M36.6,45.1c0-4.7,3.9-8.5,8.5-8.5c4.7,0,8.5,3.9,8.5,8.5c0,4.7-3.9,8.5-8.5,8.5
			C40.4,53.6,36.6,49.7,36.6,45.1z M45.2,38.4c-3.7,0-6.7,2.9-6.8,6.7s2.9,6.7,6.6,6.8c3.8,0,6.8-2.9,6.8-6.7
			C51.9,41.4,48.9,38.4,45.2,38.4z"/>
	</g>
</g>
</svg>
