<?xml version="1.0" encoding="utf-8"?>
<!-- Generator: Adobe Illustrator 23.1.1, SVG Export Plug-In . SVG Version: 6.00 Build 0)  -->
<svg version="1.1" id="Capa_1" xmlns="http://www.w3.org/2000/svg" xmlns:xlink="http://www.w3.org/1999/xlink" x="0px" y="0px"
	 viewBox="0 0 130 130" style="enable-background:new 0 0 130 130;" xml:space="preserve">
<style type="text/css">
	.st0{fill:#3C4660;}
	.st1{fill:#D7B68C;}
</style>
<circle class="st0" cx="65" cy="65" r="65"/>
<g>
	<path class="st1" d="M65.3,70.4c-1,0-1.9,0-2.9,0c-1.2,0-1.7-0.4-1.7-1.6c0-1.1,0-2.2,0-3.3c0-0.5-0.1-0.7-0.6-0.9
		c-1.3-0.4-2.5-1-3.8-1.5c-0.3-0.1-0.7-0.1-0.9,0.1c-0.9,0.5-1.7,1.1-2.5,1.6c-0.7,0.5-1.3,0.4-1.9-0.2c-1.4-1.4-2.8-2.8-4.2-4.2
		c-0.6-0.6-0.7-1.2-0.2-1.9c0.6-0.8,1.1-1.6,1.6-2.5c0.1-0.2,0.2-0.6,0.1-0.9c-0.4-1-0.8-2-1.3-3c-0.1-0.3-0.5-0.6-0.8-0.7
		c-0.9-0.2-1.8-0.4-2.7-0.5c-0.9-0.2-1.3-0.6-1.3-1.5c0-2,0-3.9,0-5.8c0-0.8,0.4-1.3,1.2-1.5c1-0.2,1.9-0.4,2.9-0.6
		c0.3-0.1,0.6-0.3,0.7-0.6c0.5-1,0.9-2.1,1.3-3.1c0.1-0.3,0.1-0.6-0.1-0.8c-0.5-0.8-1.1-1.6-1.6-2.5c-0.5-0.8-0.5-1.3,0.2-1.9
		c1.4-1.4,2.8-2.8,4.1-4.1c0.7-0.7,1.2-0.7,1.9-0.2c0.8,0.5,1.6,1.1,2.4,1.6c0.3,0.2,0.7,0.2,1,0.1c1-0.4,2-0.8,3-1.3
		c0.3-0.1,0.5-0.4,0.6-0.7c0.2-0.9,0.4-1.8,0.5-2.7c0.2-1.1,0.6-1.4,1.7-1.4c1.9,0,3.7,0,5.6,0c1,0,1.4,0.3,1.6,1.4
		c0.2,0.9,0.3,1.8,0.5,2.8c0.1,0.3,0.3,0.5,0.6,0.7c1,0.5,2.1,0.9,3.2,1.3c0.2,0.1,0.6,0.1,0.8-0.1c0.8-0.5,1.6-1.1,2.5-1.7
		c0.7-0.5,1.3-0.4,1.9,0.2c1.4,1.4,2.8,2.8,4.2,4.2c0.6,0.6,0.7,1.2,0.2,1.9c-0.6,0.8-1.1,1.6-1.6,2.5c-0.1,0.2-0.2,0.6-0.1,0.9
		C82,39,82.4,40,82.9,41c0.1,0.2,0.4,0.5,0.6,0.6c1,0.2,1.9,0.4,2.9,0.6c0.9,0.2,1.2,0.6,1.2,1.5c0,2,0,3.9,0,5.8
		c0,0.9-0.4,1.3-1.2,1.5c-0.9,0.2-1.9,0.3-2.8,0.6c-0.3,0.1-0.6,0.3-0.7,0.6c-0.5,1-0.9,2.1-1.3,3.1c-0.1,0.3-0.1,0.6,0.1,0.8
		c0.5,0.8,1.1,1.6,1.6,2.5c0.5,0.8,0.5,1.3-0.2,1.9c-1.4,1.4-2.8,2.8-4.1,4.1c-0.7,0.7-1.2,0.7-1.9,0.2c-0.8-0.5-1.6-1.1-2.5-1.7
		C74.4,63,74,63,73.8,63.1c-1.2,0.4-2.3,0.9-3.5,1.4c-0.2,0.1-0.5,0.4-0.5,0.7c-0.1,1.2,0,2.5,0,3.7c0,1.1-0.5,1.5-1.5,1.5
		C67.3,70.4,66.3,70.4,65.3,70.4z M52.4,62.1c0.7-0.5,1.4-0.9,2-1.4c0.9-0.8,1.8-0.8,2.8-0.1c1.1,0.6,2.3,1,3.6,1.6
		c0-1.7,0-3.1,0-4.5c0-0.6-0.2-0.9-0.7-1.1c-4.1-2-6.8-6.3-6.6-10.7c0.2-4.8,3.2-8.9,7.6-10.4c1.6-0.6,2.3-0.1,2.3,1.6
		c0,2.6,0,5.2,0,7.8c0,0.7,0.2,1.3,0.8,1.8c0.6,0.4,1.3,0.5,2,0.2c0.8-0.4,1.1-1,1.1-1.9c0-2.6,0-5.3,0-7.9c0-1.4,0.8-2,2.2-1.4
		c0.2,0.1,0.4,0.2,0.6,0.3c4.1,2.1,6.4,5.5,6.5,10.1s-2,8.1-6,10.4c-0.2,0.1-0.6,0.4-0.6,0.6c-0.1,1.6,0,3.3,0,5.1
		c1.2-0.6,2.3-1.1,3.4-1.6c0.8-0.4,1.4-0.4,2.1,0.1c0.8,0.6,1.6,1.1,2.3,1.6c1-1,2-2,3-3c-0.5-0.8-1.1-1.7-1.7-2.5
		c-0.4-0.6-0.4-1.1-0.1-1.7c0.7-1.5,1.3-3,1.9-4.5c0.3-0.7,0.6-1.1,1.3-1.2c1-0.2,2-0.4,3-0.6c0-1.4,0-2.8,0-4.1c-1-0.2-2-0.4-3-0.6
		c-0.7-0.1-1.1-0.6-1.4-1.3c-0.5-1.5-1.1-2.9-1.8-4.3c-0.3-0.7-0.4-1.3,0.1-1.9c0.6-0.8,1.1-1.7,1.6-2.4c-1-1-2-2-2.9-3
		c-0.8,0.6-1.7,1.1-2.5,1.7c-0.6,0.4-1.1,0.4-1.7,0.1c-1.5-0.7-3-1.3-4.5-1.9c-0.7-0.3-1.1-0.6-1.2-1.3c-0.2-1-0.4-2-0.6-3.1
		c-1.4,0-2.8,0-4.1,0c-0.2,1.1-0.4,2.1-0.6,3.1c-0.1,0.7-0.6,1.1-1.2,1.3c-1.5,0.6-3,1.2-4.4,1.8c-0.7,0.3-1.2,0.4-1.8-0.1
		c-0.9-0.6-1.7-1.2-2.5-1.7c-1,1-2,2-3,3c0.5,0.8,1,1.6,1.6,2.4c0.5,0.7,0.5,1.3,0.1,2c-0.7,1.4-1.3,2.8-1.7,4.2
		c-0.3,0.9-0.7,1.3-1.6,1.4c-0.9,0.1-1.9,0.4-2.8,0.5c0,1.4,0,2.8,0,4.1c1,0.2,2,0.4,3,0.6c0.8,0.1,1.1,0.5,1.4,1.3
		c0.6,1.5,1.2,3,1.8,4.4c0.3,0.7,0.4,1.2-0.1,1.8c-0.6,0.9-1.2,1.7-1.7,2.5C50.4,60.2,51.4,61.1,52.4,62.1z M60.8,38.5
		c-0.2,0.1-0.3,0.1-0.4,0.1c-0.2,0.1-0.3,0.2-0.5,0.3c-2.9,2.2-4.3,5-3.7,8.6c0.5,3.5,2.5,5.8,5.8,7.1c1.2,0.5,1.4,0.7,1.4,2
		c0,3.4,0,6.8,0,10.2c0,0.3,0,0.6,0,1c1.4,0,2.6,0,3.9,0c0-0.3,0-0.6,0-0.9c0-3.4,0-6.9,0-10.3c0-1.1,0.4-1.7,1.4-2.1
		c6.2-2.7,7.2-11.2,1.8-15.2c-0.2-0.1-0.3-0.2-0.6-0.4c0,2.2,0,4.3,0,6.4c0,2.5-2,4.4-4.4,4.4c-2.5,0-4.5-1.8-4.6-4.3
		c-0.1-1.6,0-3.2,0-4.8C60.8,39.9,60.8,39.2,60.8,38.5z"/>
	<path class="st1" d="M74.9,83.2c0.3-2.3,0.5-4.6,0.8-6.8c0.2-1.5,0.9-2.7,2.2-3.6c4.4-3.3,8.9-6.7,13.3-9.9
		c0.5-0.3,1.2-0.3,1.9-0.4c0.3,0,0.5,0.1,0.8,0.2c0.5-2.2,0.9-4.3,1.4-6.4c0.6-2.9,1.2-5.8,1.8-8.7c0.4-1.8,2.2-3,4-2.8
		c2,0.3,3.4,1.9,3.3,3.8c-0.4,8-0.8,16.1-1.3,24.1c-0.1,1.1-0.1,2.2-0.2,3.3c-0.1,2.1-1.1,3.6-2.9,4.6c-2.7,1.5-5.5,2.9-8.2,4.4
		c-0.4,0.2-0.7,0.6-0.8,1c-0.5,1.7-1,3.5-1.5,5.2c-0.1,0.4,0,0.6,0.3,0.8c0.3,0.1,0.5,0.3,0.8,0.5c1,0.7,1.4,1.8,0.8,2.9
		c-1.8,3.2-3.6,6.3-5.5,9.5c-0.7,1.1-1.9,1.4-3.1,0.8c-5.3-3-10.5-6-15.7-9.1c-1.2-0.7-1.5-1.9-0.8-3.2c1.8-3.1,3.5-6.2,5.3-9.2
		C72.4,83,73.2,82.8,74.9,83.2z M87.2,90.4c0.5-1.8,1-3.6,1.5-5.4c0.3-1,0.9-1.7,1.8-2.2c2.3-1.2,4.6-2.5,6.9-3.7
		c3-1.6,3.1-1.7,3.2-5.2c0.3-5.8,0.6-11.5,0.9-17.3c0.1-2.7,0.3-5.3,0.4-8c0-0.5-0.1-1-0.6-1.2c-0.7-0.4-1.5,0-1.7,0.9
		c-1.1,5-2.1,10-3.2,15c-0.1,0.7-0.1,1.2,0.2,1.8c0.9,1.6,0.6,4.4-1.4,5.6c-2,1.3-3.9,2.9-5.8,4.3c-0.9,0.7-1.7,0.7-2.2,0
		c-0.5-0.7-0.3-1.4,0.6-2c1.9-1.4,3.8-2.9,5.8-4.3c1.2-0.9,1.1-2.8-0.3-3.5c-0.4-0.2-0.8-0.2-1.2,0.1c-4.2,3.2-8.4,6.3-12.6,9.5
		c-0.8,0.6-1.2,1.3-1.3,2.3c-0.3,2.3-0.5,4.7-0.8,7c-0.1,0.5,0.1,0.8,0.5,1c2.9,1.7,5.8,3.3,8.7,5C86.7,90.1,86.9,90.2,87.2,90.4z
		 M68.7,94.5c5.1,3,10.2,5.9,15.2,8.8c1.7-3,3.4-5.9,5.1-8.8c-5.1-2.9-10.1-5.9-15.2-8.8C72.1,88.6,70.4,91.5,68.7,94.5z"/>
	<path class="st1" d="M36.1,62.6c0.3-0.1,0.6-0.1,0.8-0.2c0.8-0.1,1.5,0,2.2,0.5c4.3,3.3,8.6,6.5,12.9,9.7c1.5,1.1,2.3,2.6,2.4,4.4
		c0.2,2,0.5,4.1,0.7,6.1c2-0.4,2.5-0.2,3.6,1.7c1.6,2.8,3.2,5.5,4.8,8.2c1,1.7,0.7,2.8-1,3.7c-5,2.9-10,5.8-15,8.7
		c-1.6,0.9-2.7,0.6-3.6-1c-1.7-2.9-3.4-5.8-5-8.7c-0.9-1.6-0.6-2.7,1-3.6c0.6-0.3,0.8-0.7,0.6-1.4c-0.5-1.6-0.9-3.3-1.4-4.9
		c-0.1-0.4-0.5-0.9-0.9-1.1c-2.6-1.5-5.3-2.8-7.9-4.2c-2-1.1-3.1-2.7-3.2-5c-0.3-6.7-0.7-13.5-1.1-20.2c-0.1-2.3-0.2-4.6-0.4-7
		c-0.1-2,1.3-3.5,3.3-3.8c1.8-0.2,3.6,1.1,4,2.9c1,4.9,2,9.7,3.1,14.5C36,62.3,36.1,62.4,36.1,62.6z M42.8,90.4
		c0.4-0.2,0.6-0.3,0.9-0.5c2.8-1.6,5.5-3.2,8.3-4.8c0.6-0.3,0.7-0.7,0.6-1.3c-0.3-2.1-0.6-4.3-0.7-6.4c-0.1-1.2-0.6-2.1-1.6-2.8
		c-4.1-3-8.2-6.1-12.2-9.1c-0.8-0.6-1.3-0.5-1.9,0.1c-0.9,0.8-0.8,2.5,0.2,3.1c2,1.3,3.9,2.8,5.8,4.3c0.3,0.2,0.6,0.6,0.8,0.9
		c0.2,0.5,0,1.1-0.5,1.4c-0.6,0.4-1.1,0.3-1.6-0.1c-2-1.5-4-3-6-4.5c-2-1.5-2.5-3.8-1.3-6c0.2-0.3,0.2-0.7,0.2-1
		c-1.1-5.1-2.1-10.2-3.2-15.3c-0.2-0.9-0.6-1.3-1.3-1.2c-0.7,0.1-1.1,0.6-1,1.5c0.2,3.3,0.3,6.5,0.5,9.8c0.3,5.7,0.6,11.3,0.9,17
		c0.1,1.4,0.7,2.3,2,3c2.7,1.4,5.3,2.8,7.9,4.2c1.1,0.6,1.8,1.4,2.1,2.6C41.9,86.9,42.3,88.6,42.8,90.4z M46,103.3
		c5.1-3,10.1-5.9,15.2-8.8c-1.7-3-3.4-5.9-5.1-8.8c-5.1,3-10.2,5.9-15.2,8.8C42.6,97.4,44.3,100.3,46,103.3z"/>
	<path class="st0" d="M52.4,62.1c-1-1-2-2-2.9-2.9c0.6-0.8,1.1-1.7,1.7-2.5c0.4-0.6,0.4-1.1,0.1-1.8c-0.7-1.4-1.3-2.9-1.8-4.4
		c-0.3-0.7-0.6-1.1-1.4-1.3c-1-0.2-2-0.4-3-0.6c0-1.4,0-2.7,0-4.1c1-0.2,1.9-0.4,2.8-0.5c0.9-0.1,1.3-0.6,1.6-1.4
		c0.5-1.4,1.1-2.8,1.7-4.2c0.4-0.7,0.4-1.3-0.1-2c-0.6-0.8-1.1-1.6-1.6-2.4c1-1,2-2,3-3c0.8,0.5,1.6,1.1,2.5,1.7
		c0.6,0.4,1.1,0.4,1.8,0.1c1.4-0.7,2.9-1.3,4.4-1.8c0.7-0.3,1.1-0.6,1.2-1.3c0.2-1,0.4-2,0.6-3.1c1.4,0,2.7,0,4.1,0
		c0.2,1,0.4,2,0.6,3.1c0.1,0.7,0.5,1.1,1.2,1.3c1.5,0.6,3,1.2,4.5,1.9c0.6,0.3,1.2,0.3,1.7-0.1c0.9-0.6,1.7-1.2,2.5-1.7
		c1,1,1.9,2,2.9,3c-0.5,0.7-1,1.6-1.6,2.4c-0.5,0.6-0.4,1.2-0.1,1.9c0.7,1.4,1.3,2.9,1.8,4.3c0.3,0.7,0.6,1.1,1.4,1.3
		c1,0.2,2,0.4,3,0.6c0,1.4,0,2.7,0,4.1c-1,0.2-2,0.4-3,0.6c-0.7,0.1-1.1,0.5-1.3,1.2c-0.6,1.5-1.2,3-1.9,4.5
		c-0.3,0.6-0.3,1.2,0.1,1.7c0.6,0.9,1.2,1.7,1.7,2.5c-1,1-1.9,1.9-3,3c-0.7-0.5-1.5-1-2.3-1.6c-0.7-0.5-1.3-0.5-2.1-0.1
		c-1,0.6-2.1,1.1-3.4,1.6c0-1.8,0-3.5,0-5.1c0-0.2,0.4-0.4,0.6-0.6c4-2.3,6.1-5.8,6-10.4s-2.4-8-6.5-10.1c-0.2-0.1-0.4-0.2-0.6-0.3
		c-1.3-0.6-2.1,0-2.2,1.4c0,2.6,0,5.3,0,7.9c0,0.9-0.4,1.5-1.1,1.9c-0.7,0.3-1.4,0.2-2-0.2c-0.6-0.4-0.8-1-0.8-1.8
		c0-2.6,0-5.2,0-7.8c0-1.7-0.7-2.2-2.3-1.6c-4.4,1.6-7.3,5.6-7.6,10.4c-0.2,4.4,2.4,8.7,6.6,10.7c0.5,0.3,0.8,0.5,0.7,1.1
		c-0.1,1.4,0,2.8,0,4.5c-1.3-0.6-2.5-1-3.6-1.6c-1-0.6-1.9-0.7-2.8,0.1C53.8,61.3,53,61.7,52.4,62.1z"/>
	<path class="st0" d="M60.8,38.5c0,0.7,0,1.4,0,2c0,1.6,0,3.2,0,4.8c0.1,2.5,2.1,4.3,4.6,4.3c2.4,0,4.4-2,4.4-4.4c0-2.1,0-4.2,0-6.4
		c0.3,0.2,0.4,0.2,0.6,0.4c5.4,4.1,4.4,12.5-1.8,15.2c-1,0.4-1.4,1-1.4,2.1c0.1,3.4,0,6.9,0,10.3c0,0.3,0,0.6,0,0.9
		c-1.3,0-2.5,0-3.9,0c0-0.3,0-0.7,0-1c0-3.4,0-6.8,0-10.2c0-1.3-0.2-1.5-1.4-2c-3.2-1.3-5.3-3.6-5.8-7.1c-0.5-3.6,0.8-6.5,3.7-8.6
		c0.2-0.1,0.3-0.2,0.5-0.3C60.5,38.6,60.5,38.6,60.8,38.5z"/>
	<path class="st0" d="M68.7,94.5c1.7-3,3.4-5.9,5.1-8.8c5.1,3,10.2,5.9,15.2,8.8c-1.7,3-3.4,5.9-5.1,8.8
		C78.9,100.4,73.8,97.5,68.7,94.5z M75.6,89.9c0-0.7-0.7-1.4-1.4-1.4c-0.7,0-1.2,0.6-1.2,1.3c0,0.7,0.6,1.3,1.3,1.3
		C75,91.2,75.6,90.6,75.6,89.9z"/>
	<path class="st0" d="M46,103.3c-1.7-3-3.4-5.9-5.1-8.8c5.1-2.9,10.1-5.8,15.2-8.8c1.7,3,3.4,5.9,5.1,8.8
		C56.2,97.5,51.2,100.4,46,103.3z M55.7,91.2c0.7,0,1.3-0.6,1.4-1.3c0-0.7-0.5-1.3-1.2-1.3c-0.7,0-1.4,0.6-1.4,1.3
		C54.4,90.6,54.9,91.2,55.7,91.2z"/>
	<path class="st1" d="M75.6,89.9c0,0.7-0.6,1.3-1.3,1.3c-0.7,0-1.3-0.6-1.3-1.3s0.5-1.3,1.2-1.3C74.9,88.5,75.6,89.2,75.6,89.9z"/>
	<path class="st1" d="M55.7,91.2c-0.7,0-1.3-0.6-1.3-1.3c0-0.7,0.7-1.4,1.4-1.3c0.7,0,1.2,0.6,1.2,1.3C57,90.6,56.4,91.2,55.7,91.2z
		"/>
</g>
</svg>
