<?xml version="1.0" encoding="utf-8"?>
<!-- Generator: Adobe Illustrator 23.1.1, SVG Export Plug-In . SVG Version: 6.00 Build 0)  -->
<svg version="1.1" id="Capa_1" xmlns="http://www.w3.org/2000/svg" xmlns:xlink="http://www.w3.org/1999/xlink" x="0px" y="0px"
	 viewBox="0 0 130 130" style="enable-background:new 0 0 130 130;" xml:space="preserve">
<style type="text/css">
	.st0{fill:#3C4660;}
	.st1{fill:#D7B68C;}
</style>
<g>
	<circle class="st0" cx="65" cy="65" r="65"/>
	<g>
		<path class="st1" d="M53.3,89c-1.1,0-2.1,0-3.2,0c-3,0-5.9,0-8.9,0c-2.6,0-4.4-1.8-4.4-4.4c0-2.4,0-4.9,0-7.3c0-0.3,0-0.6,0-0.9
			c-0.4,0-0.7,0-1,0c-2.9,0-5.8,0-8.7,0c-2.5,0-4.3-1.8-4.3-4.3c0-13.1,0-26.2,0-39.2c0-2.5,1.8-4.3,4.3-4.3c20.6,0,41.2,0,61.9,0
			c2.4,0,4.2,1.8,4.3,4.2c0,2.5,0,4.9,0,7.4c0,0.3,0,0.6,0,1c1.2,0,2.3,0,3.5,0c2.1,0,4.2,0,6.2,0c2.5,0,4.4,1.8,4.4,4.3
			c0,13.1,0,26.2,0,39.2c0,2.5-1.8,4.3-4.4,4.3c-9.8,0-19.7,0-29.5,0c-0.5,0-1.1,0.2-1.5,0.4c-6.1,3.9-12.2,7.8-18.3,11.7
			c-0.4,0.3-1.1,0.5-1.6,0.4c-0.8-0.2-1.1-1-0.9-1.9c0.8-3.4,1.5-6.7,2.3-10.1C53.3,89.4,53.3,89.2,53.3,89z M54.4,97.2
			c0.5-0.3,0.9-0.5,1.2-0.8c5.1-3.2,10.1-6.5,15.2-9.7c0.5-0.3,1.2-0.5,1.9-0.5c9.9,0,19.9,0,29.8,0c1.5,0,1.9-0.4,1.9-1.9
			c0-12.8,0-25.6,0-38.4c0-1.5-0.4-1.9-1.9-1.9c-20.3,0-40.6,0-60.9,0c-1.5,0-1.9,0.4-1.9,1.9c0,12.8,0,25.6,0,38.4
			c0,1.5,0.4,1.9,1.9,1.9c4.4,0,8.7,0,13.1,0c1.6,0,2.1,0.7,1.7,2.2C55.8,91.2,55.1,94.1,54.4,97.2z M36.8,73.5c0-0.5,0-0.9,0-1.2
			c0-8.8,0-17.5,0-26.3c0-3.2,1.6-4.9,4.9-4.9c15.8,0,31.7,0,47.5,0c0.4,0,0.7,0,1.1,0c0-2.9,0-5.6,0-8.4c0-1-0.6-1.5-1.7-1.5
			c-20.4,0-40.9,0-61.3,0c-1.3,0-1.7,0.5-1.7,1.8c0,12.9,0,25.7,0,38.6c0,1.4,0.5,1.8,1.9,1.8c1,0,2.1,0,3.1,0
			C32.6,73.5,34.7,73.5,36.8,73.5z"/>
		<path class="st0" d="M54.4,97.2c0.7-3.1,1.4-6,2.1-8.9c0.4-1.5-0.2-2.2-1.7-2.2c-4.4,0-8.7,0-13.1,0c-1.5,0-1.9-0.4-1.9-1.9
			c0-12.8,0-25.6,0-38.4c0-1.5,0.4-1.9,1.9-1.9c20.3,0,40.6,0,60.9,0c1.5,0,1.9,0.4,1.9,1.9c0,12.8,0,25.6,0,38.4
			c0,1.5-0.4,1.9-1.9,1.9c-9.9,0-19.9,0-29.8,0c-0.6,0-1.3,0.2-1.9,0.5c-5.1,3.2-10.1,6.5-15.2,9.7C55.2,96.7,54.9,96.9,54.4,97.2z
			 M71.9,56.6c6.5,0,13,0,19.4,0c1.1,0,1.8-0.5,1.8-1.4c0-0.9-0.6-1.4-1.8-1.4c-0.1,0-0.2,0-0.3,0c-12.7,0-25.4,0-38.1,0
			c-0.3,0-0.7-0.1-1,0.1c-0.4,0.3-1,0.7-1.1,1.1c-0.1,0.4,0.3,1.1,0.6,1.4c0.3,0.3,0.8,0.3,1.2,0.3C59.2,56.6,65.6,56.6,71.9,56.6z
			 M72,66.5c6.4,0,12.7,0,19.1,0c0.3,0,0.6,0,0.9,0c0.8-0.2,1.2-0.6,1.2-1.4c0-0.8-0.5-1.2-1.2-1.4c-0.3-0.1-0.5,0-0.8,0
			c-12.7,0-25.4,0-38.2,0c-0.3,0-0.5,0-0.8,0c-0.8,0.1-1.2,0.6-1.3,1.4c0,0.7,0.5,1.3,1.3,1.4c0.3,0,0.5,0,0.8,0
			C59.3,66.5,65.7,66.5,72,66.5z M72,76.3c6.3,0,12.7,0,19,0c0.3,0,0.5,0,0.8,0c0.8-0.1,1.3-0.7,1.3-1.4c0-0.7-0.5-1.3-1.3-1.4
			c-0.2,0-0.5,0-0.7,0c-12.7,0-25.5,0-38.2,0c-0.3,0-0.5,0-0.8,0c-0.8,0.2-1.2,0.6-1.2,1.4c0,0.7,0.5,1.2,1.2,1.4
			c0.3,0.1,0.6,0,0.9,0C59.3,76.3,65.7,76.3,72,76.3z"/>
		<path class="st0" d="M36.8,73.5c-2.2,0-4.2,0-6.3,0c-1,0-2.1,0-3.1,0c-1.4,0-1.9-0.5-1.9-1.8c0-12.9,0-25.7,0-38.6
			c0-1.3,0.5-1.8,1.7-1.8c20.4,0,40.9,0,61.3,0c1.1,0,1.7,0.5,1.7,1.5c0,2.8,0,5.5,0,8.4c-0.4,0-0.8,0-1.1,0c-15.8,0-31.7,0-47.5,0
			c-3.2,0-4.9,1.6-4.9,4.9c0,8.8,0,17.5,0,26.3C36.8,72.7,36.8,73,36.8,73.5z"/>
		<path class="st1" d="M71.9,56.6c-6.4,0-12.7,0-19.1,0c-0.4,0-1,0-1.2-0.3c-0.4-0.3-0.7-1-0.6-1.4c0.1-0.4,0.6-0.8,1.1-1.1
			c0.2-0.2,0.6-0.1,1-0.1c12.7,0,25.4,0,38.1,0c0.1,0,0.2,0,0.3,0c1.2,0,1.8,0.5,1.8,1.4c0,0.9-0.7,1.4-1.8,1.4
			C84.9,56.6,78.4,56.6,71.9,56.6z"/>
		<path class="st1" d="M72,66.5c-6.3,0-12.7,0-19,0c-0.3,0-0.5,0-0.8,0c-0.8-0.1-1.3-0.7-1.3-1.4c0.1-0.8,0.5-1.2,1.3-1.4
			c0.3,0,0.5,0,0.8,0c12.7,0,25.4,0,38.2,0c0.3,0,0.5,0,0.8,0c0.8,0.1,1.2,0.6,1.2,1.4c0,0.8-0.5,1.3-1.2,1.4c-0.3,0.1-0.6,0-0.9,0
			C84.7,66.5,78.3,66.5,72,66.5z"/>
		<path class="st1" d="M72,76.3c-6.4,0-12.7,0-19.1,0c-0.3,0-0.6,0-0.9,0c-0.7-0.2-1.2-0.6-1.2-1.4c0-0.8,0.4-1.3,1.2-1.4
			c0.3-0.1,0.5,0,0.8,0c12.7,0,25.5,0,38.2,0c0.2,0,0.5,0,0.7,0c0.8,0.1,1.3,0.7,1.3,1.4c0,0.7-0.6,1.3-1.3,1.4c-0.3,0-0.5,0-0.8,0
			C84.7,76.3,78.4,76.3,72,76.3z"/>
	</g>
</g>
</svg>
