<?xml version="1.0" encoding="utf-8"?>
<!-- Generator: Adobe Illustrator 23.1.1, SVG Export Plug-In . SVG Version: 6.00 Build 0)  -->
<svg version="1.1" id="Capa_1" xmlns="http://www.w3.org/2000/svg" xmlns:xlink="http://www.w3.org/1999/xlink" x="0px" y="0px"
	 viewBox="0 0 130 130" style="enable-background:new 0 0 130 130;" xml:space="preserve">
<style type="text/css">
	.st0{fill:#3C4660;}
	.st1{fill:#D7B68C;}
</style>
<g>
	<circle class="st0" cx="65" cy="65" r="65"/>
	<g>
		<path class="st1" d="M73,102.5c-4.8,0-9.4,0-14.2,0c-0.3,1.5-0.6,2.9-0.9,4.4c-0.4,2.1-1.6,3.1-3.7,3.1c-1.9,0-3.7,0-5.6,0
			c-2.1,0-3.3-1-3.7-3.1c-0.5-2.8-1.1-5.6-1.6-8.4c-0.1-0.4-0.3-0.8-0.6-1C33,91.9,28.7,83.2,29.1,72c0-0.2,0-0.3,0-0.4
			c-0.6-0.4-0.8,0-1,0.4c-1.4,2.2-3.3,3.9-5.9,4.5c-0.6,0.1-1.2,0.2-1.8,0.2c-0.8,0-1.4-0.6-1.4-1.3c0-0.8,0.5-1.4,1.4-1.5
			c2.2-0.2,3.9-1.2,5.2-3c-0.3-0.1-0.5-0.2-0.8-0.3c-1-0.4-2-0.7-2.9-1.2c-1.9-1.1-2.4-2.8-1.4-4.6c1-2.1,3-2.9,4.9-2.2
			c2.3,1,3.3,2.9,3.7,5.2c0,0.2,0.1,0.4,0.1,0.6c0,0,0,0,0.2,0.2c0.1-0.3,0.2-0.5,0.3-0.8c1.4-7.9,5.6-13.9,12.5-18.1
			c0.9-0.5,1.5-0.5,2,0.1c0.6,0.7,0.4,1.6-0.6,2.2c-2.2,1.4-4.3,3-6,4.9c-4.2,4.8-5.8,10.5-5.7,16.8c0.1,9.5,4.2,16.8,12.6,21.5
			c0.9,0.5,1.5,1.2,1.7,2.3c0.5,2.9,1.1,5.8,1.6,8.6c0.2,0.8,0.5,1.1,1.3,1.1c1.7-0.1,3.4-0.1,5.1,0c0.9,0,1.2-0.3,1.3-1.1
			c0.2-1.4,0.5-2.8,0.8-4.1c0.3-1.9,1-2.5,2.9-2.3c4.6,0.4,9.3,0.4,13.9-0.3c1.4-0.2,2.3,0.5,2.6,2c0.3,1.6,0.6,3.3,0.9,4.9
			c0.1,0.7,0.4,1,1.1,0.9c1.8,0,3.5-0.1,5.3,0c0.9,0,1.1-0.3,1.3-1.1c0.6-3.2,1.2-6.3,1.8-9.4c0.2-0.9,0.6-1.5,1.4-1.9
			c4.6-2.4,8.4-5.6,11-10.1c0.6-1,1.5-1.5,2.6-1.9c1.8-0.6,3.5-1.1,5.3-1.7c1.6-0.5,2.1-1.2,2.1-2.9c0-1.9,0-3.7,0-5.6
			c0-1.3-0.6-2.1-1.8-2.5c-1.1-0.4-2.2-0.7-3.2-1c-1.7-0.5-2.7-1.5-3.2-3.2c-0.9-2.7-2.2-5.1-4.1-7.3c-0.2,0.4-0.3,0.7-0.4,0.9
			c-1.4,3-2.9,4.6-7.3,4.4c-6.2-0.2-10.3-4.5-10.4-10.8c0-1.5,0.2-3,0.3-4.6c-0.6-0.2-1.3-0.3-2-0.5c-0.2,0-0.5,0.1-0.6,0.3
			c-1.4,2-3.1,3.6-5.3,5.1c0.8,0.2,1.4,0.4,2,0.6c1.1,0.4,1.5,1,1.2,1.9c-0.3,0.8-1,1-2,0.7c-3.8-1.2-7.7-1.8-11.8-1.7
			c-3.4,0.1-6.7,0.6-10,1.6c-0.3,0.1-0.6,0.2-1,0.2c-0.7,0-1.2-0.4-1.3-1c-0.2-0.8,0.2-1.3,0.9-1.6c0.8-0.3,1.5-0.5,2.4-0.8
			c-2.4-1.6-4.3-3.5-5.7-5.8C37.8,36.5,45.1,21.3,58.4,20c7.9-0.8,13.8,2.5,17.9,9.2c0.1,0.2,0.3,0.5,0.4,0.7
			c0.3,0.8,0.1,1.5-0.6,1.8c-0.7,0.3-1.3,0.1-1.8-0.6c-0.9-1.2-1.6-2.6-2.6-3.6c-4.5-4.9-11.6-6.3-17.7-3.6c-6.1,2.7-9.8,9-9.2,15.6
			c0.6,6.1,3.8,10.4,9.4,12.9c0.5,0.2,1.1,0.3,1.6,0.2c3.1-0.4,6.2-0.4,9.2,0c0.5,0.1,1.1,0,1.6-0.2c5.6-2.6,8.7-7,9.4-13.1
			c0-0.2,0-0.3,0-0.5c0.2-0.9,0.7-1.3,1.5-1.3c0.8,0.1,1.3,0.6,1.2,1.5c-0.3,1.9-0.8,3.8-1.2,5.7c-0.1,0.3-0.2,0.6-0.4,1
			c1.3,0.2,2.3,0.9,3.7,0.2c3.5-1.7,7.1-3.2,10.9-4c0.2-0.1,0.5-0.1,0.7-0.1c3.1-0.4,4.4,0.6,4.9,3.7c0.5,3.2,0.2,6.4-0.4,9.6
			c-0.1,0.3,0.1,0.8,0.3,1.1c2.4,2.7,4.3,5.7,5.4,9.1c0.2,0.8,0.7,1.2,1.5,1.4c1.1,0.3,2.3,0.7,3.4,1.1c2.2,0.8,3.5,2.6,3.5,4.9
			c0,2,0,4.1,0,6.1c0,2.3-1.3,4.1-3.5,4.9c-1.9,0.6-3.8,1.2-5.7,1.9c-0.5,0.2-1,0.5-1.2,0.9c-2.7,4.5-6.6,7.9-11.1,10.4
			c-0.6,0.3-0.8,0.7-0.9,1.3c-0.5,3-1.1,5.9-1.7,8.9c-0.4,2-1.6,2.9-3.6,3c-1.9,0-3.8,0-5.8,0c-1.9,0-3.1-1-3.5-2.8
			C73.6,105.6,73.3,104,73,102.5z M94.9,48.3c-0.1-0.6-0.1-1.6-0.3-2.7c-0.2-1.4-0.4-1.5-1.8-1.2c-3.9,0.8-7.6,2.4-11.2,4
			c-0.4,0.2-0.8,0.8-0.9,1.2c-0.2,1.4-0.4,2.8-0.4,4.2c0.1,4.6,3.6,7.8,8.2,7.6c2.1-0.1,3.6-0.9,4.4-3
			C94.3,55.4,94.8,52.2,94.9,48.3z M26.4,68.4c-0.2-1.5-0.7-2.5-1.8-3.1c-0.7-0.4-1.2,0-1.7,0.7c-0.4,0.7,0,1.1,0.5,1.3
			C24.3,67.7,25.3,68,26.4,68.4z"/>
		<path class="st1" d="M60.1,29.4c0.3-0.3,0.6-0.9,0.9-0.9c0.3,0,0.6,0.5,1,0.8c-0.1,0.1-0.1,0.1-0.2,0.2c0.9,0.2,1.9,0.4,2.8,0.8
			c0.4,0.1,0.8,0.6,0.9,0.9c0.1,0.4-0.2,1-0.4,1.3c-0.2,0.2-0.8,0.1-1.1,0c-0.7-0.2-1.4-0.5-2.2-0.7c0,1.7,0,3.1,0,4.5
			c0,0.2,0.2,0.4,0.4,0.5c0.2,0.2,0.5,0.2,0.8,0.4c2.3,1,3.3,2.7,3.1,5c-0.2,2.4-1.4,3.7-3.9,4.4c-0.1,0-0.2,0-0.3,0.1
			c0.1,0.1,0.1,0.1,0.2,0.2c-0.4,0.4-0.7,0.8-1,1.1c-0.3-0.3-0.6-0.7-0.9-1c0.1-0.1,0.1-0.1,0.2-0.2c-0.6-0.1-1.3-0.1-1.8-0.4
			c-0.9-0.4-1.7-0.8-2.5-1.4c-0.3-0.2-0.6-0.7-0.5-1.1c0.1-0.5,0.3-1,0.7-1.2c0.2-0.2,0.8,0.1,1.1,0.3c0.9,0.7,1.8,1.3,3,1.4
			c0-1.8,0-3.5,0-5.2c0-0.2-0.3-0.4-0.5-0.5c-0.5-0.3-1.1-0.5-1.6-0.7c-1.6-0.8-2.4-2.2-2.3-4c0.1-1.9,1.1-3.1,2.9-3.7
			c0.5-0.2,1-0.3,1.5-0.4C60.2,29.6,60.1,29.5,60.1,29.4z M61.6,44.1c1.4-0.2,2-1,2.1-2.2c0-1.3-0.8-2.3-2.1-2.5
			C61.6,40.9,61.6,42.5,61.6,44.1z M60.4,36c0-1.4,0-2.8,0-4.1c-1.4,0.2-2.2,0.8-2.2,1.8C58.2,34.9,58.9,35.6,60.4,36z"/>
		<path class="st1" d="M91.8,73.3c-2.3-0.1-4.1-1.8-4.3-4.1c-0.1-0.9,0.4-1.5,1.1-1.6c0.8-0.1,1.4,0.3,1.6,1.2
			c0.2,1.1,0.8,1.7,1.7,1.7c0.9,0,1.5-0.6,1.7-1.7c0.2-0.9,0.7-1.4,1.5-1.3c0.7,0.1,1.2,0.7,1.2,1.6C96.2,71.5,94.1,73.3,91.8,73.3z
			"/>
	</g>
</g>
</svg>
