<?xml version="1.0" encoding="utf-8"?>
<!-- Generator: Adobe Illustrator 23.1.1, SVG Export Plug-In . SVG Version: 6.00 Build 0)  -->
<svg version="1.1" id="Capa_1" xmlns="http://www.w3.org/2000/svg" xmlns:xlink="http://www.w3.org/1999/xlink" x="0px" y="0px"
	 viewBox="0 0 130 130" style="enable-background:new 0 0 130 130;" xml:space="preserve">
<style type="text/css">
	.st0{fill:#3C4660;}
	.st1{fill:#D7B68C;}
</style>
<g>
	<circle class="st0" cx="65" cy="65" r="65"/>
	<g>
		<path class="st1" d="M28.8,62.4c0-12.6,0-25.3,0-37.9c0-1.7,0.4-2.1,2.1-2.1c16.9,0,33.8,0,50.7,0c1.4,0,2.3,0.4,3.3,1.4
			c3.5,3.8,7.1,7.5,10.6,11.2c0.3,0.3,0.5,0.8,0.5,1.3c0,19.8,0,39.6,0,59.4c0,0.7,0.2,1.2,0.7,1.7c1.1,1.1,2.2,2.2,3.3,3.3
			c1.7,1.7,1.7,4.2,0.1,5.8c-1.6,1.6-4.1,1.6-5.8-0.1c-1.1-1.1-2.2-2.2-3.3-3.3c-0.4-0.5-0.9-0.6-1.5-0.6c-19.5,0-39,0-58.5,0
			c-1.9,0-2.2-0.3-2.2-2.2C28.8,87.6,28.8,75,28.8,62.4z M57.5,82c-0.3,0-0.7,0-1,0c-5.3,0-10.7,0-16,0c-1.1,0-1.8-0.5-1.8-1.3
			s0.7-1.3,1.8-1.3c0.2,0,0.4,0,0.6,0c5.2,0,10.3,0,15.5,0c0.3,0,0.6,0,1-0.1c0-0.2,0.1-0.3,0.1-0.4c0.8-6.9,5.7-12.6,12.5-14.4
			c6.7-1.8,14,0.8,17.9,6.5c3.9,5.7,4.2,11.7,1.1,17.8C89,89,88.9,89.5,89,89.6c1.3,1.4,2.7,2.8,4.2,4.2c0-18.9,0-37.7,0-56.5
			c-0.4,0-0.7,0-1,0c-2.9,0-5.9,0-8.8,0c-1.4,0-1.8-0.4-1.8-1.8c0-3.2,0-6.3,0-9.5c0-0.3,0-0.6,0-0.9c-16.7,0-33.4,0-50.1,0
			c0,24.9,0,49.7,0,74.5c18.7,0,37.3,0,56.1,0c-1.4-1.4-2.7-2.7-4-4c-0.5-0.5-0.8-0.5-1.3-0.2c-7.1,3.8-15.5,2.2-20.8-3.9
			c-0.4-0.4-0.7-0.6-1.3-0.6c-6.6,0-13.2,0-19.9,0c-1.1,0-1.7-0.5-1.7-1.3c0-0.8,0.6-1.3,1.7-1.4c0.2,0,0.5,0,0.7,0
			c5.7,0,11.5,0,17.2,0c0.3,0,0.7,0,1,0c-0.4-1.1-0.8-2.1-1.1-3.1C57.9,84.3,57.7,83.2,57.5,82z M88.5,80.7c0-7.8-6.3-14.2-14-14.2
			c-7.9-0.1-14.2,6.3-14.2,14.3c0,7.7,6.4,14,14.1,14C82.1,94.9,88.5,88.5,88.5,80.7z M85.3,93.6c3.6,3.6,7.2,7.2,10.8,10.8
			c0.7,0.7,1.4,0.7,2,0.1c0.6-0.6,0.6-1.4-0.1-2.1c-3.5-3.5-7-7-10.6-10.6c-0.1-0.1-0.2-0.2-0.2-0.1C86.6,92.4,86,92.9,85.3,93.6z
			 M91.4,34.6c-2.4-2.6-4.7-5-7.1-7.5c0,2.6,0,5,0,7.5C86.6,34.6,88.9,34.6,91.4,34.6z"/>
		<path class="st0" d="M57.5,82c0.3,1.2,0.4,2.3,0.7,3.3c0.3,1,0.7,2,1.1,3.1c-0.4,0-0.7,0-1,0c-5.7,0-11.5,0-17.2,0
			c-0.2,0-0.5,0-0.7,0c-1,0-1.7,0.6-1.7,1.4c0,0.8,0.6,1.3,1.7,1.3c6.6,0,13.2,0,19.9,0c0.6,0,0.9,0.2,1.3,0.6
			c5.2,6.1,13.7,7.7,20.8,3.9c0.6-0.3,0.9-0.3,1.3,0.2c1.3,1.3,2.6,2.6,4,4c-18.8,0-37.4,0-56.1,0c0-24.8,0-49.7,0-74.5
			c16.7,0,33.3,0,50.1,0c0,0.3,0,0.6,0,0.9c0,3.2,0,6.3,0,9.5c0,1.4,0.4,1.8,1.8,1.8c2.9,0,5.9,0,8.8,0c0.3,0,0.6,0,1,0
			c0,18.8,0,37.6,0,56.5c-1.5-1.5-2.9-2.8-4.2-4.2c-0.1-0.1,0-0.6,0.2-0.9c3.1-6.2,2.8-12.2-1.1-17.8c-4-5.7-11.2-8.3-17.9-6.5
			c-6.8,1.8-11.7,7.5-12.5,14.4c0,0.1,0,0.2-0.1,0.4c-0.3,0-0.6,0.1-1,0.1c-5.2,0-10.3,0-15.5,0c-0.2,0-0.4,0-0.6,0
			c-1.1,0-1.8,0.5-1.8,1.3c0,0.9,0.6,1.3,1.8,1.3c5.3,0,10.7,0,16,0C56.8,82,57.1,82,57.5,82z M54.2,34.1c-4.5,0-9,0-13.5,0
			c-0.3,0-0.6,0-0.8,0c-0.7,0.1-1.1,0.5-1.2,1.2c0,0.7,0.3,1.2,1,1.3c0.3,0.1,0.7,0.1,1,0.1c8.9,0,17.8,0,26.7,0c0.3,0,0.7,0,1-0.1
			c0.7-0.2,1.1-0.6,1-1.3c0-0.7-0.4-1.1-1.1-1.2c-0.3,0-0.6,0-0.8,0C63.1,34.1,58.6,34.1,54.2,34.1z M54.3,45.8c4.5,0,9,0,13.5,0
			c0.3,0,0.6,0,0.8,0c0.8-0.1,1.3-0.6,1.3-1.3s-0.5-1.2-1.3-1.3c-0.3,0-0.6,0-0.8,0c-3.9,0-7.8,0-11.7,0c-5.3,0-10.5,0-15.8,0
			c-1,0-1.6,0.5-1.6,1.3c0,0.8,0.6,1.3,1.7,1.4c0.2,0,0.5,0,0.7,0C45.4,45.8,49.9,45.8,54.3,45.8z M52.4,63.9c4,0,7.9,0,11.9,0
			c1.3,0,2-0.4,2-1.3c0-0.9-0.6-1.4-2-1.4c-7.9,0-15.8,0-23.6,0c-0.3,0-0.6,0-0.8,0c-0.7,0.1-1.2,0.7-1.1,1.3
			c0.1,0.7,0.4,1.2,1.1,1.2c0.3,0,0.6,0,0.8,0C44.6,63.9,48.5,63.9,52.4,63.9z M73.6,54.8c3.5,0,6.9,0,10.4,0c0.3,0,0.6,0,0.9-0.1
			c0.7-0.1,1-0.6,1-1.2c0-0.7-0.3-1.2-1-1.3c-0.3-0.1-0.6-0.1-0.9-0.1c-6.9,0-13.8,0-20.7,0c-0.3,0-0.5,0-0.8,0
			c-0.8,0.1-1.3,0.7-1.2,1.3c0.1,0.7,0.5,1.2,1.2,1.3c0.3,0,0.6,0,0.8,0C66.8,54.8,70.2,54.8,73.6,54.8z M48.1,54.8c2.5,0,5,0,7.5,0
			c0.3,0,0.5,0,0.8,0c0.8-0.1,1.3-0.6,1.3-1.3c0-0.8-0.5-1.3-1.3-1.4c-0.3,0-0.6,0-0.8,0c-4.5,0-9.1,0-13.6,0c-0.7,0-1.4,0-2.1,0
			c-0.7,0.1-1.2,0.7-1.1,1.3c0.1,0.7,0.4,1.2,1.1,1.3c0.3,0,0.6,0,0.8,0C43.2,54.8,45.7,54.8,48.1,54.8z M47.4,72.9
			c2.5,0,4.9,0,7.4,0c0.9,0,1.4-0.5,1.5-1.3c0-0.7-0.6-1.4-1.4-1.4c-4.9,0-9.8,0-14.7,0c-0.4,0-0.9,0.3-1.2,0.6c-0.7,0.9,0,2,1.2,2
			C42.6,72.9,45,72.9,47.4,72.9z M79.9,45.8C79.9,45.8,79.9,45.8,79.9,45.8c1.6,0,3.2,0,4.9,0c0.8,0,1.3-0.6,1.3-1.3
			c0-0.7-0.5-1.3-1.3-1.3c-3.3,0-6.6,0-9.9,0c-0.4,0-1,0.5-1.2,0.9c-0.4,0.8,0.3,1.7,1.3,1.7C76.6,45.8,78.2,45.8,79.9,45.8z"/>
		<path class="st0" d="M88.5,80.7c0,7.8-6.4,14.1-14.2,14.1c-7.8,0-14.2-6.4-14.1-14c0-8,6.3-14.3,14.2-14.3
			C82.2,66.6,88.5,72.9,88.5,80.7z M86.4,80.7c0-6.7-5.3-12-12-12.1c-6.7,0-12,5.3-12.1,12c0,6.7,5.3,12,12,12.1
			C81,92.7,86.4,87.4,86.4,80.7z"/>
		<path class="st0" d="M85.3,93.6c0.7-0.6,1.3-1.2,1.9-1.8c0,0,0.1,0.1,0.2,0.1c3.5,3.5,7,7,10.6,10.6c0.7,0.7,0.7,1.5,0.1,2.1
			c-0.6,0.6-1.3,0.6-2-0.1C92.5,100.8,88.9,97.2,85.3,93.6z"/>
		<path class="st0" d="M91.4,34.6c-2.5,0-4.8,0-7.1,0c0-2.5,0-4.9,0-7.5C86.7,29.7,89,32.1,91.4,34.6z"/>
		<path class="st1" d="M54.2,34.1c4.4,0,8.9,0,13.3,0c0.3,0,0.6,0,0.8,0c0.7,0.1,1.1,0.6,1.1,1.2c0,0.7-0.3,1.2-1,1.3
			c-0.3,0.1-0.7,0.1-1,0.1c-8.9,0-17.8,0-26.7,0c-0.3,0-0.7,0-1-0.1c-0.7-0.2-1.1-0.7-1-1.3c0-0.7,0.4-1.1,1.2-1.2
			c0.3,0,0.6,0,0.8,0C45.2,34.1,49.7,34.1,54.2,34.1z"/>
		<path class="st1" d="M54.3,45.8c-4.4,0-8.8,0-13.2,0c-0.2,0-0.5,0-0.7,0c-1.1,0-1.7-0.6-1.7-1.4c0-0.8,0.6-1.3,1.6-1.3
			c5.3,0,10.5,0,15.8,0c3.9,0,7.8,0,11.7,0c0.3,0,0.6,0,0.8,0c0.8,0.1,1.3,0.6,1.3,1.3c0,0.7-0.5,1.2-1.3,1.3c-0.3,0-0.6,0-0.8,0
			C63.3,45.8,58.8,45.8,54.3,45.8z"/>
		<path class="st1" d="M52.4,63.9c-3.9,0-7.8,0-11.7,0c-0.3,0-0.6,0-0.8,0c-0.7-0.1-1.1-0.6-1.1-1.2c-0.1-0.7,0.5-1.2,1.1-1.3
			c0.3,0,0.6,0,0.8,0c7.9,0,15.8,0,23.6,0c1.4,0,2,0.5,2,1.4c0,0.9-0.6,1.3-2,1.3C60.4,63.9,56.4,63.9,52.4,63.9z"/>
		<path class="st1" d="M73.6,54.8c-3.4,0-6.8,0-10.2,0c-0.3,0-0.6,0-0.8,0c-0.8-0.1-1.2-0.5-1.2-1.3c-0.1-0.7,0.5-1.3,1.2-1.3
			c0.3,0,0.5,0,0.8,0c6.9,0,13.8,0,20.7,0c0.3,0,0.6,0,0.9,0.1c0.7,0.2,1.1,0.6,1,1.3c0,0.7-0.4,1.1-1,1.2c-0.3,0.1-0.6,0.1-0.9,0.1
			C80.6,54.8,77.1,54.8,73.6,54.8z"/>
		<path class="st1" d="M48.1,54.8c-2.5,0-5,0-7.5,0c-0.3,0-0.6,0-0.8,0c-0.7-0.1-1.1-0.6-1.1-1.3c-0.1-0.7,0.4-1.3,1.1-1.3
			c0.7-0.1,1.4,0,2.1,0c4.5,0,9.1,0,13.6,0c0.3,0,0.6,0,0.8,0c0.8,0.1,1.3,0.6,1.3,1.4c0,0.7-0.5,1.2-1.3,1.3c-0.3,0-0.5,0-0.8,0
			C53.1,54.8,50.6,54.8,48.1,54.8z"/>
		<path class="st1" d="M47.4,72.9c-2.4,0-4.9,0-7.3,0c-1.2,0-1.9-1.1-1.2-2c0.3-0.3,0.8-0.6,1.2-0.6c4.9,0,9.8,0,14.7,0
			c0.9,0,1.4,0.6,1.4,1.4c0,0.8-0.6,1.3-1.5,1.3C52.3,72.9,49.9,72.9,47.4,72.9z"/>
		<path class="st1" d="M79.9,45.8c-1.6,0-3.2,0-4.9,0c-1,0-1.7-0.9-1.3-1.7c0.2-0.4,0.8-0.9,1.2-0.9c3.3-0.1,6.6-0.1,9.9,0
			c0.8,0,1.3,0.5,1.3,1.3c0,0.8-0.5,1.3-1.3,1.3C83.1,45.8,81.5,45.8,79.9,45.8C79.9,45.8,79.9,45.8,79.9,45.8z"/>
		<path class="st1" d="M86.4,80.7c0,6.7-5.4,12-12.1,12c-6.7,0-12-5.4-12-12.1c0-6.7,5.4-12,12.1-12C81,68.7,86.4,74,86.4,80.7z
			 M74.3,71.3c-5.2,0-9.4,4.2-9.3,9.4c0,5.2,4.2,9.4,9.4,9.3c5.2,0,9.4-4.2,9.4-9.4C83.7,75.5,79.5,71.3,74.3,71.3z"/>
		<path class="st0" d="M74.3,71.3c5.2,0,9.4,4.1,9.4,9.3c0,5.2-4.2,9.4-9.4,9.4c-5.2,0-9.4-4.1-9.4-9.3C65,75.5,69.1,71.3,74.3,71.3
			z"/>
	</g>
</g>
</svg>
